%TF.GenerationSoftware,KiCad,Pcbnew,(5.1.12)-1*%
%TF.CreationDate,2021-12-25T08:53:35+00:00*%
%TF.ProjectId,ledDeviceServerEsp32Pio,6c656444-6576-4696-9365-536572766572,rev?*%
%TF.SameCoordinates,Original*%
%TF.FileFunction,Soldermask,Top*%
%TF.FilePolarity,Negative*%
%FSLAX46Y46*%
G04 Gerber Fmt 4.6, Leading zero omitted, Abs format (unit mm)*
G04 Created by KiCad (PCBNEW (5.1.12)-1) date 2021-12-25 08:53:35*
%MOMM*%
%LPD*%
G01*
G04 APERTURE LIST*
%ADD10R,3.000000X3.000000*%
%ADD11C,3.000000*%
%ADD12C,3.200000*%
%ADD13C,1.524000*%
%ADD14C,2.300000*%
%ADD15R,2.300000X2.000000*%
%ADD16O,1.200000X2.000000*%
G04 APERTURE END LIST*
D10*
%TO.C,JStrip1*%
X148844000Y-22225000D03*
D11*
X153924000Y-22225000D03*
X159004000Y-22225000D03*
%TD*%
D12*
%TO.C,H1*%
X19240500Y-18605500D03*
%TD*%
%TO.C,H2*%
X61468000Y-18923000D03*
%TD*%
%TO.C,H3*%
X137287000Y-39624000D03*
%TD*%
D13*
%TO.C,JAC1*%
X26225500Y-28981000D03*
X26225500Y-38481000D03*
%TD*%
D11*
%TO.C,JStrip2*%
X159258000Y-34417000D03*
X154178000Y-34417000D03*
D10*
X149098000Y-34417000D03*
%TD*%
D14*
%TO.C,PS1*%
X64960000Y-26169000D03*
D15*
X35560000Y-31369000D03*
D14*
X35560000Y-36369000D03*
X64960000Y-41569000D03*
%TD*%
D16*
%TO.C,U1*%
X75567720Y-42795320D03*
X78107720Y-42795320D03*
X80647720Y-42795320D03*
X83187720Y-42795320D03*
X85727720Y-42795320D03*
X88267720Y-42795320D03*
X90807720Y-42795320D03*
X93347720Y-42795320D03*
X95887720Y-42795320D03*
X98427720Y-42795320D03*
X100967720Y-42795320D03*
X103507720Y-42795320D03*
X106047720Y-42795320D03*
G36*
G01*
X107987720Y-43495320D02*
X107987720Y-42095320D01*
G75*
G02*
X108287720Y-41795320I300000J0D01*
G01*
X108887720Y-41795320D01*
G75*
G02*
X109187720Y-42095320I0J-300000D01*
G01*
X109187720Y-43495320D01*
G75*
G02*
X108887720Y-43795320I-300000J0D01*
G01*
X108287720Y-43795320D01*
G75*
G02*
X107987720Y-43495320I0J300000D01*
G01*
G37*
X111127720Y-42795320D03*
X113667720Y-42795320D03*
X116207720Y-42795320D03*
X118747720Y-42795320D03*
X121287720Y-42795320D03*
X121285000Y-17399000D03*
X118745000Y-17399000D03*
X116207720Y-17395320D03*
X113667720Y-17395320D03*
X111127720Y-17395320D03*
X108587720Y-17395320D03*
X106047720Y-17395320D03*
X103507720Y-17395320D03*
X100967720Y-17395320D03*
X98427720Y-17395320D03*
X95887720Y-17395320D03*
X93347720Y-17395320D03*
X90807720Y-17395320D03*
X88267720Y-17395320D03*
X85727720Y-17395320D03*
X83187720Y-17395320D03*
X80647720Y-17395320D03*
X78107720Y-17395320D03*
G36*
G01*
X74967720Y-18095320D02*
X74967720Y-16695320D01*
G75*
G02*
X75267720Y-16395320I300000J0D01*
G01*
X75867720Y-16395320D01*
G75*
G02*
X76167720Y-16695320I0J-300000D01*
G01*
X76167720Y-18095320D01*
G75*
G02*
X75867720Y-18395320I-300000J0D01*
G01*
X75267720Y-18395320D01*
G75*
G02*
X74967720Y-18095320I0J300000D01*
G01*
G37*
%TD*%
D13*
%TO.C,U2*%
X139636500Y-32321500D03*
X129476500Y-32321500D03*
X139636500Y-29781500D03*
X129476500Y-29781500D03*
X139636500Y-22161500D03*
X129476500Y-22161500D03*
X139636500Y-19621500D03*
X129476500Y-19621500D03*
X139636500Y-27241500D03*
X129476500Y-27241500D03*
X139636500Y-24701500D03*
X129476500Y-24701500D03*
%TD*%
M02*
