M48
; DRILL file {KiCad (5.1.12)-1} date 12/24/21 09:33:53
; FORMAT={-:-/ absolute / metric / decimal}
; #@! TF.CreationDate,2021-12-24T09:33:53+00:00
; #@! TF.GenerationSoftware,Kicad,Pcbnew,(5.1.12)-1
; #@! TF.FileFunction,Plated,1,2,PTH
FMAT,2
METRIC
T1C0.762
T2C0.800
T3C1.000
T4C1.520
%
G90
G05
T1
X22.885Y-62.484
X32.385Y-62.484
X73.025Y-42.418
X73.025Y-52.578
X75.565Y-42.418
X75.565Y-52.578
X78.105Y-42.418
X78.105Y-52.578
X80.645Y-42.418
X80.645Y-52.578
X83.185Y-42.418
X83.185Y-52.578
X85.725Y-42.418
X85.725Y-52.578
T2
X41.406Y-24.133
X41.406Y-26.673
X41.406Y-29.213
X41.406Y-31.753
X41.406Y-34.293
X41.406Y-36.833
X41.406Y-39.373
X41.406Y-41.913
X41.406Y-44.453
X41.406Y-46.993
X41.406Y-49.533
X41.406Y-52.073
X41.406Y-54.613
X41.406Y-57.153
X41.406Y-59.693
X41.406Y-62.233
X41.406Y-64.773
X41.406Y-67.313
X41.406Y-69.853
X66.802Y-67.31
X66.802Y-69.85
X66.806Y-24.133
X66.806Y-26.673
X66.806Y-29.213
X66.806Y-31.753
X66.806Y-34.293
X66.806Y-36.833
X66.806Y-39.373
X66.806Y-41.913
X66.806Y-44.453
X66.806Y-46.993
X66.806Y-49.533
X66.806Y-52.073
X66.806Y-54.613
X66.806Y-57.153
X66.806Y-59.693
X66.806Y-62.233
X66.806Y-64.773
T3
X20.2Y-25.845
X25.4Y-55.245
X30.4Y-55.245
X35.6Y-25.845
T4
X73.406Y-26.543
X73.406Y-31.623
X73.406Y-36.703
X75.819Y-59.563
X75.819Y-64.643
X75.819Y-69.723
T0
M30
