%TF.GenerationSoftware,KiCad,Pcbnew,(5.1.12)-1*%
%TF.CreationDate,2021-12-25T08:53:35+00:00*%
%TF.ProjectId,ledDeviceServerEsp32Pio,6c656444-6576-4696-9365-536572766572,rev?*%
%TF.SameCoordinates,Original*%
%TF.FileFunction,Legend,Top*%
%TF.FilePolarity,Positive*%
%FSLAX46Y46*%
G04 Gerber Fmt 4.6, Leading zero omitted, Abs format (unit mm)*
G04 Created by KiCad (PCBNEW (5.1.12)-1) date 2021-12-25 08:53:35*
%MOMM*%
%LPD*%
G01*
G04 APERTURE LIST*
%ADD10C,0.120000*%
%ADD11C,0.150000*%
G04 APERTURE END LIST*
D10*
%TO.C,JStrip1*%
X146304000Y-26035000D02*
X146304000Y-18415000D01*
X161544000Y-26035000D02*
X161544000Y-18415000D01*
X146304000Y-24765000D02*
X161544000Y-24765000D01*
X146304000Y-18415000D02*
X161544000Y-18415000D01*
X146304000Y-26035000D02*
X161544000Y-26035000D01*
%TO.C,JAC1*%
X29959300Y-43815000D02*
X29959300Y-24215000D01*
X29959300Y-24215000D02*
X15657500Y-24215000D01*
X15657500Y-24215000D02*
X15657500Y-43815000D01*
X17741900Y-43815000D02*
X29959300Y-43815000D01*
%TO.C,JStrip2*%
X146558000Y-38227000D02*
X161798000Y-38227000D01*
X146558000Y-30607000D02*
X161798000Y-30607000D01*
X146558000Y-36957000D02*
X161798000Y-36957000D01*
X161798000Y-38227000D02*
X161798000Y-30607000D01*
X146558000Y-38227000D02*
X146558000Y-30607000D01*
%TO.C,PS1*%
X33160000Y-23769000D02*
X33160000Y-43969000D01*
X33160000Y-43969000D02*
X67360000Y-43969000D01*
X67360000Y-43969000D02*
X67360000Y-23769000D01*
X67360000Y-23769000D02*
X33160000Y-23769000D01*
X32770000Y-30369000D02*
X32770000Y-32379000D01*
%TO.C,U1*%
X68554600Y-21082000D02*
X74447400Y-21082000D01*
X68554600Y-39065200D02*
X68554600Y-21082000D01*
X74447400Y-39065200D02*
X68554600Y-39065200D01*
X74467720Y-44295319D02*
X122387720Y-44295320D01*
X74467720Y-15895320D02*
X74467720Y-44295319D01*
X122387720Y-15895321D02*
X74467720Y-15895320D01*
X122387720Y-44295320D02*
X122387720Y-15895321D01*
%TO.C,U2*%
X141033500Y-18224500D02*
X128079500Y-18224500D01*
X128079500Y-18224500D02*
X128079500Y-33591500D01*
X128079500Y-33591500D02*
X141033500Y-33591500D01*
X141033500Y-33591500D02*
X141033500Y-18224500D01*
%TO.C,JStrip1*%
D11*
X151798761Y-17027380D02*
X151798761Y-17741666D01*
X151751142Y-17884523D01*
X151655904Y-17979761D01*
X151513047Y-18027380D01*
X151417809Y-18027380D01*
X152227333Y-17979761D02*
X152370190Y-18027380D01*
X152608285Y-18027380D01*
X152703523Y-17979761D01*
X152751142Y-17932142D01*
X152798761Y-17836904D01*
X152798761Y-17741666D01*
X152751142Y-17646428D01*
X152703523Y-17598809D01*
X152608285Y-17551190D01*
X152417809Y-17503571D01*
X152322571Y-17455952D01*
X152274952Y-17408333D01*
X152227333Y-17313095D01*
X152227333Y-17217857D01*
X152274952Y-17122619D01*
X152322571Y-17075000D01*
X152417809Y-17027380D01*
X152655904Y-17027380D01*
X152798761Y-17075000D01*
X153084476Y-17360714D02*
X153465428Y-17360714D01*
X153227333Y-17027380D02*
X153227333Y-17884523D01*
X153274952Y-17979761D01*
X153370190Y-18027380D01*
X153465428Y-18027380D01*
X153798761Y-18027380D02*
X153798761Y-17360714D01*
X153798761Y-17551190D02*
X153846380Y-17455952D01*
X153894000Y-17408333D01*
X153989238Y-17360714D01*
X154084476Y-17360714D01*
X154417809Y-18027380D02*
X154417809Y-17360714D01*
X154417809Y-17027380D02*
X154370190Y-17075000D01*
X154417809Y-17122619D01*
X154465428Y-17075000D01*
X154417809Y-17027380D01*
X154417809Y-17122619D01*
X154894000Y-17360714D02*
X154894000Y-18360714D01*
X154894000Y-17408333D02*
X154989238Y-17360714D01*
X155179714Y-17360714D01*
X155274952Y-17408333D01*
X155322571Y-17455952D01*
X155370190Y-17551190D01*
X155370190Y-17836904D01*
X155322571Y-17932142D01*
X155274952Y-17979761D01*
X155179714Y-18027380D01*
X154989238Y-18027380D01*
X154894000Y-17979761D01*
X156322571Y-18027380D02*
X155751142Y-18027380D01*
X156036857Y-18027380D02*
X156036857Y-17027380D01*
X155941619Y-17170238D01*
X155846380Y-17265476D01*
X155751142Y-17313095D01*
%TO.C,H1*%
X23749095Y-18740380D02*
X23749095Y-17740380D01*
X23749095Y-18216571D02*
X24320523Y-18216571D01*
X24320523Y-18740380D02*
X24320523Y-17740380D01*
X25320523Y-18740380D02*
X24749095Y-18740380D01*
X25034809Y-18740380D02*
X25034809Y-17740380D01*
X24939571Y-17883238D01*
X24844333Y-17978476D01*
X24749095Y-18026095D01*
%TO.C,H2*%
X64706595Y-16581380D02*
X64706595Y-15581380D01*
X64706595Y-16057571D02*
X65278023Y-16057571D01*
X65278023Y-16581380D02*
X65278023Y-15581380D01*
X65706595Y-15676619D02*
X65754214Y-15629000D01*
X65849452Y-15581380D01*
X66087547Y-15581380D01*
X66182785Y-15629000D01*
X66230404Y-15676619D01*
X66278023Y-15771857D01*
X66278023Y-15867095D01*
X66230404Y-16009952D01*
X65658976Y-16581380D01*
X66278023Y-16581380D01*
%TO.C,H3*%
X136525095Y-35876380D02*
X136525095Y-34876380D01*
X136525095Y-35352571D02*
X137096523Y-35352571D01*
X137096523Y-35876380D02*
X137096523Y-34876380D01*
X137477476Y-34876380D02*
X138096523Y-34876380D01*
X137763190Y-35257333D01*
X137906047Y-35257333D01*
X138001285Y-35304952D01*
X138048904Y-35352571D01*
X138096523Y-35447809D01*
X138096523Y-35685904D01*
X138048904Y-35781142D01*
X138001285Y-35828761D01*
X137906047Y-35876380D01*
X137620333Y-35876380D01*
X137525095Y-35828761D01*
X137477476Y-35781142D01*
%TO.C,JAC1*%
X19883595Y-42251380D02*
X19883595Y-42965666D01*
X19835976Y-43108523D01*
X19740738Y-43203761D01*
X19597880Y-43251380D01*
X19502642Y-43251380D01*
X20312166Y-42965666D02*
X20788357Y-42965666D01*
X20216928Y-43251380D02*
X20550261Y-42251380D01*
X20883595Y-43251380D01*
X21788357Y-43156142D02*
X21740738Y-43203761D01*
X21597880Y-43251380D01*
X21502642Y-43251380D01*
X21359785Y-43203761D01*
X21264547Y-43108523D01*
X21216928Y-43013285D01*
X21169309Y-42822809D01*
X21169309Y-42679952D01*
X21216928Y-42489476D01*
X21264547Y-42394238D01*
X21359785Y-42299000D01*
X21502642Y-42251380D01*
X21597880Y-42251380D01*
X21740738Y-42299000D01*
X21788357Y-42346619D01*
X22740738Y-43251380D02*
X22169309Y-43251380D01*
X22455023Y-43251380D02*
X22455023Y-42251380D01*
X22359785Y-42394238D01*
X22264547Y-42489476D01*
X22169309Y-42537095D01*
X22826095Y-28630619D02*
X22873714Y-28583000D01*
X22968952Y-28535380D01*
X23207047Y-28535380D01*
X23302285Y-28583000D01*
X23349904Y-28630619D01*
X23397523Y-28725857D01*
X23397523Y-28821095D01*
X23349904Y-28963952D01*
X22778476Y-29535380D01*
X23397523Y-29535380D01*
X23397523Y-38933380D02*
X22826095Y-38933380D01*
X23111809Y-38933380D02*
X23111809Y-37933380D01*
X23016571Y-38076238D01*
X22921333Y-38171476D01*
X22826095Y-38219095D01*
%TO.C,JStrip2*%
X152052761Y-29219380D02*
X152052761Y-29933666D01*
X152005142Y-30076523D01*
X151909904Y-30171761D01*
X151767047Y-30219380D01*
X151671809Y-30219380D01*
X152481333Y-30171761D02*
X152624190Y-30219380D01*
X152862285Y-30219380D01*
X152957523Y-30171761D01*
X153005142Y-30124142D01*
X153052761Y-30028904D01*
X153052761Y-29933666D01*
X153005142Y-29838428D01*
X152957523Y-29790809D01*
X152862285Y-29743190D01*
X152671809Y-29695571D01*
X152576571Y-29647952D01*
X152528952Y-29600333D01*
X152481333Y-29505095D01*
X152481333Y-29409857D01*
X152528952Y-29314619D01*
X152576571Y-29267000D01*
X152671809Y-29219380D01*
X152909904Y-29219380D01*
X153052761Y-29267000D01*
X153338476Y-29552714D02*
X153719428Y-29552714D01*
X153481333Y-29219380D02*
X153481333Y-30076523D01*
X153528952Y-30171761D01*
X153624190Y-30219380D01*
X153719428Y-30219380D01*
X154052761Y-30219380D02*
X154052761Y-29552714D01*
X154052761Y-29743190D02*
X154100380Y-29647952D01*
X154148000Y-29600333D01*
X154243238Y-29552714D01*
X154338476Y-29552714D01*
X154671809Y-30219380D02*
X154671809Y-29552714D01*
X154671809Y-29219380D02*
X154624190Y-29267000D01*
X154671809Y-29314619D01*
X154719428Y-29267000D01*
X154671809Y-29219380D01*
X154671809Y-29314619D01*
X155148000Y-29552714D02*
X155148000Y-30552714D01*
X155148000Y-29600333D02*
X155243238Y-29552714D01*
X155433714Y-29552714D01*
X155528952Y-29600333D01*
X155576571Y-29647952D01*
X155624190Y-29743190D01*
X155624190Y-30028904D01*
X155576571Y-30124142D01*
X155528952Y-30171761D01*
X155433714Y-30219380D01*
X155243238Y-30219380D01*
X155148000Y-30171761D01*
X156005142Y-29314619D02*
X156052761Y-29267000D01*
X156148000Y-29219380D01*
X156386095Y-29219380D01*
X156481333Y-29267000D01*
X156528952Y-29314619D01*
X156576571Y-29409857D01*
X156576571Y-29505095D01*
X156528952Y-29647952D01*
X155957523Y-30219380D01*
X156576571Y-30219380D01*
%TO.C,PS1*%
X32072380Y-32033285D02*
X31072380Y-32033285D01*
X31072380Y-31652333D01*
X31120000Y-31557095D01*
X31167619Y-31509476D01*
X31262857Y-31461857D01*
X31405714Y-31461857D01*
X31500952Y-31509476D01*
X31548571Y-31557095D01*
X31596190Y-31652333D01*
X31596190Y-32033285D01*
X32024761Y-31080904D02*
X32072380Y-30938047D01*
X32072380Y-30699952D01*
X32024761Y-30604714D01*
X31977142Y-30557095D01*
X31881904Y-30509476D01*
X31786666Y-30509476D01*
X31691428Y-30557095D01*
X31643809Y-30604714D01*
X31596190Y-30699952D01*
X31548571Y-30890428D01*
X31500952Y-30985666D01*
X31453333Y-31033285D01*
X31358095Y-31080904D01*
X31262857Y-31080904D01*
X31167619Y-31033285D01*
X31120000Y-30985666D01*
X31072380Y-30890428D01*
X31072380Y-30652333D01*
X31120000Y-30509476D01*
X32072380Y-29557095D02*
X32072380Y-30128523D01*
X32072380Y-29842809D02*
X31072380Y-29842809D01*
X31215238Y-29938047D01*
X31310476Y-30033285D01*
X31358095Y-30128523D01*
%TO.C,U1*%
X72920100Y-30857224D02*
X73729624Y-30857224D01*
X73824862Y-30809605D01*
X73872481Y-30761986D01*
X73920100Y-30666748D01*
X73920100Y-30476272D01*
X73872481Y-30381034D01*
X73824862Y-30333415D01*
X73729624Y-30285796D01*
X72920100Y-30285796D01*
X73920100Y-29285796D02*
X73920100Y-29857224D01*
X73920100Y-29571510D02*
X72920100Y-29571510D01*
X73062958Y-29666748D01*
X73158196Y-29761986D01*
X73205815Y-29857224D01*
X94102481Y-30023891D02*
X94435815Y-30023891D01*
X94578672Y-30547700D02*
X94102481Y-30547700D01*
X94102481Y-29547700D01*
X94578672Y-29547700D01*
X94959624Y-30500081D02*
X95102481Y-30547700D01*
X95340577Y-30547700D01*
X95435815Y-30500081D01*
X95483434Y-30452462D01*
X95531053Y-30357224D01*
X95531053Y-30261986D01*
X95483434Y-30166748D01*
X95435815Y-30119129D01*
X95340577Y-30071510D01*
X95150100Y-30023891D01*
X95054862Y-29976272D01*
X95007243Y-29928653D01*
X94959624Y-29833415D01*
X94959624Y-29738177D01*
X95007243Y-29642939D01*
X95054862Y-29595320D01*
X95150100Y-29547700D01*
X95388196Y-29547700D01*
X95531053Y-29595320D01*
X95959624Y-30547700D02*
X95959624Y-29547700D01*
X96340577Y-29547700D01*
X96435815Y-29595320D01*
X96483434Y-29642939D01*
X96531053Y-29738177D01*
X96531053Y-29881034D01*
X96483434Y-29976272D01*
X96435815Y-30023891D01*
X96340577Y-30071510D01*
X95959624Y-30071510D01*
X96864386Y-29547700D02*
X97483434Y-29547700D01*
X97150100Y-29928653D01*
X97292958Y-29928653D01*
X97388196Y-29976272D01*
X97435815Y-30023891D01*
X97483434Y-30119129D01*
X97483434Y-30357224D01*
X97435815Y-30452462D01*
X97388196Y-30500081D01*
X97292958Y-30547700D01*
X97007243Y-30547700D01*
X96912005Y-30500081D01*
X96864386Y-30452462D01*
X97864386Y-29642939D02*
X97912005Y-29595320D01*
X98007243Y-29547700D01*
X98245339Y-29547700D01*
X98340577Y-29595320D01*
X98388196Y-29642939D01*
X98435815Y-29738177D01*
X98435815Y-29833415D01*
X98388196Y-29976272D01*
X97816767Y-30547700D01*
X98435815Y-30547700D01*
X98864386Y-30166748D02*
X99626291Y-30166748D01*
X100102481Y-30547700D02*
X100102481Y-29547700D01*
X100340577Y-29547700D01*
X100483434Y-29595320D01*
X100578672Y-29690558D01*
X100626291Y-29785796D01*
X100673910Y-29976272D01*
X100673910Y-30119129D01*
X100626291Y-30309605D01*
X100578672Y-30404843D01*
X100483434Y-30500081D01*
X100340577Y-30547700D01*
X100102481Y-30547700D01*
X101483434Y-30500081D02*
X101388196Y-30547700D01*
X101197720Y-30547700D01*
X101102481Y-30500081D01*
X101054862Y-30404843D01*
X101054862Y-30023891D01*
X101102481Y-29928653D01*
X101197720Y-29881034D01*
X101388196Y-29881034D01*
X101483434Y-29928653D01*
X101531053Y-30023891D01*
X101531053Y-30119129D01*
X101054862Y-30214367D01*
X101864386Y-29881034D02*
X102102481Y-30547700D01*
X102340577Y-29881034D01*
X102721529Y-30547700D02*
X102721529Y-29547700D01*
X103292958Y-30547700D02*
X102864386Y-29976272D01*
X103292958Y-29547700D02*
X102721529Y-30119129D01*
X103721529Y-30547700D02*
X103721529Y-29881034D01*
X103721529Y-29547700D02*
X103673910Y-29595320D01*
X103721529Y-29642939D01*
X103769148Y-29595320D01*
X103721529Y-29547700D01*
X103721529Y-29642939D01*
X104054862Y-29881034D02*
X104435815Y-29881034D01*
X104197720Y-29547700D02*
X104197720Y-30404843D01*
X104245339Y-30500081D01*
X104340577Y-30547700D01*
X104435815Y-30547700D01*
X105340577Y-30452462D02*
X105292958Y-30500081D01*
X105150100Y-30547700D01*
X105054862Y-30547700D01*
X104912005Y-30500081D01*
X104816767Y-30404843D01*
X104769148Y-30309605D01*
X104721529Y-30119129D01*
X104721529Y-29976272D01*
X104769148Y-29785796D01*
X104816767Y-29690558D01*
X104912005Y-29595320D01*
X105054862Y-29547700D01*
X105150100Y-29547700D01*
X105292958Y-29595320D01*
X105340577Y-29642939D01*
X95537720Y-40894486D02*
X95504386Y-40961153D01*
X95504386Y-41061153D01*
X95537720Y-41161153D01*
X95604386Y-41227820D01*
X95671053Y-41261153D01*
X95804386Y-41294486D01*
X95904386Y-41294486D01*
X96037720Y-41261153D01*
X96104386Y-41227820D01*
X96171053Y-41161153D01*
X96204386Y-41061153D01*
X96204386Y-40994486D01*
X96171053Y-40894486D01*
X96137720Y-40861153D01*
X95904386Y-40861153D01*
X95904386Y-40994486D01*
X96204386Y-40561153D02*
X95504386Y-40561153D01*
X95504386Y-40294486D01*
X95537720Y-40227820D01*
X95571053Y-40194486D01*
X95637720Y-40161153D01*
X95737720Y-40161153D01*
X95804386Y-40194486D01*
X95837720Y-40227820D01*
X95871053Y-40294486D01*
X95871053Y-40561153D01*
X96204386Y-39861153D02*
X95504386Y-39861153D01*
X95504386Y-39394486D02*
X95504386Y-39261153D01*
X95537720Y-39194486D01*
X95604386Y-39127820D01*
X95737720Y-39094486D01*
X95971053Y-39094486D01*
X96104386Y-39127820D01*
X96171053Y-39194486D01*
X96204386Y-39261153D01*
X96204386Y-39394486D01*
X96171053Y-39461153D01*
X96104386Y-39527820D01*
X95971053Y-39561153D01*
X95737720Y-39561153D01*
X95604386Y-39527820D01*
X95537720Y-39461153D01*
X95504386Y-39394486D01*
X95571053Y-38827820D02*
X95537720Y-38794486D01*
X95504386Y-38727820D01*
X95504386Y-38561153D01*
X95537720Y-38494486D01*
X95571053Y-38461153D01*
X95637720Y-38427820D01*
X95704386Y-38427820D01*
X95804386Y-38461153D01*
X96204386Y-38861153D01*
X96204386Y-38427820D01*
X95504386Y-37794486D02*
X95504386Y-38127820D01*
X95837720Y-38161153D01*
X95804386Y-38127820D01*
X95771053Y-38061153D01*
X95771053Y-37894486D01*
X95804386Y-37827820D01*
X95837720Y-37794486D01*
X95904386Y-37761153D01*
X96071053Y-37761153D01*
X96137720Y-37794486D01*
X96171053Y-37827820D01*
X96204386Y-37894486D01*
X96204386Y-38061153D01*
X96171053Y-38127820D01*
X96137720Y-38161153D01*
X113317720Y-25529486D02*
X113284386Y-25596153D01*
X113284386Y-25696153D01*
X113317720Y-25796153D01*
X113384386Y-25862820D01*
X113451053Y-25896153D01*
X113584386Y-25929486D01*
X113684386Y-25929486D01*
X113817720Y-25896153D01*
X113884386Y-25862820D01*
X113951053Y-25796153D01*
X113984386Y-25696153D01*
X113984386Y-25629486D01*
X113951053Y-25529486D01*
X113917720Y-25496153D01*
X113684386Y-25496153D01*
X113684386Y-25629486D01*
X113984386Y-25196153D02*
X113284386Y-25196153D01*
X113284386Y-24929486D01*
X113317720Y-24862820D01*
X113351053Y-24829486D01*
X113417720Y-24796153D01*
X113517720Y-24796153D01*
X113584386Y-24829486D01*
X113617720Y-24862820D01*
X113651053Y-24929486D01*
X113651053Y-25196153D01*
X113984386Y-24496153D02*
X113284386Y-24496153D01*
X113284386Y-24029486D02*
X113284386Y-23896153D01*
X113317720Y-23829486D01*
X113384386Y-23762820D01*
X113517720Y-23729486D01*
X113751053Y-23729486D01*
X113884386Y-23762820D01*
X113951053Y-23829486D01*
X113984386Y-23896153D01*
X113984386Y-24029486D01*
X113951053Y-24096153D01*
X113884386Y-24162820D01*
X113751053Y-24196153D01*
X113517720Y-24196153D01*
X113384386Y-24162820D01*
X113317720Y-24096153D01*
X113284386Y-24029486D01*
X113984386Y-23062820D02*
X113984386Y-23462820D01*
X113984386Y-23262820D02*
X113284386Y-23262820D01*
X113384386Y-23329486D01*
X113451053Y-23396153D01*
X113484386Y-23462820D01*
X113284386Y-22429486D02*
X113284386Y-22762820D01*
X113617720Y-22796153D01*
X113584386Y-22762820D01*
X113551053Y-22696153D01*
X113551053Y-22529486D01*
X113584386Y-22462820D01*
X113617720Y-22429486D01*
X113684386Y-22396153D01*
X113851053Y-22396153D01*
X113917720Y-22429486D01*
X113951053Y-22462820D01*
X113984386Y-22529486D01*
X113984386Y-22696153D01*
X113951053Y-22762820D01*
X113917720Y-22796153D01*
X113251053Y-21596153D02*
X114151053Y-22196153D01*
X113984386Y-21362820D02*
X113284386Y-21362820D01*
X113784386Y-21129486D01*
X113284386Y-20896153D01*
X113984386Y-20896153D01*
X113284386Y-20662820D02*
X113284386Y-20262820D01*
X113984386Y-20462820D02*
X113284386Y-20462820D01*
X113984386Y-20029486D02*
X113284386Y-20029486D01*
X113284386Y-19862820D01*
X113317720Y-19762820D01*
X113384386Y-19696153D01*
X113451053Y-19662820D01*
X113584386Y-19629486D01*
X113684386Y-19629486D01*
X113817720Y-19662820D01*
X113884386Y-19696153D01*
X113951053Y-19762820D01*
X113984386Y-19862820D01*
X113984386Y-20029486D01*
X113284386Y-19196153D02*
X113284386Y-19062820D01*
X113317720Y-18996153D01*
X113384386Y-18929486D01*
X113517720Y-18896153D01*
X113751053Y-18896153D01*
X113884386Y-18929486D01*
X113951053Y-18996153D01*
X113984386Y-19062820D01*
X113984386Y-19196153D01*
X113951053Y-19262820D01*
X113884386Y-19329486D01*
X113751053Y-19362820D01*
X113517720Y-19362820D01*
X113384386Y-19329486D01*
X113317720Y-19262820D01*
X113284386Y-19196153D01*
X82837720Y-25396153D02*
X82804386Y-25462820D01*
X82804386Y-25562820D01*
X82837720Y-25662820D01*
X82904386Y-25729486D01*
X82971053Y-25762820D01*
X83104386Y-25796153D01*
X83204386Y-25796153D01*
X83337720Y-25762820D01*
X83404386Y-25729486D01*
X83471053Y-25662820D01*
X83504386Y-25562820D01*
X83504386Y-25496153D01*
X83471053Y-25396153D01*
X83437720Y-25362820D01*
X83204386Y-25362820D01*
X83204386Y-25496153D01*
X83504386Y-25062820D02*
X82804386Y-25062820D01*
X82804386Y-24796153D01*
X82837720Y-24729486D01*
X82871053Y-24696153D01*
X82937720Y-24662820D01*
X83037720Y-24662820D01*
X83104386Y-24696153D01*
X83137720Y-24729486D01*
X83171053Y-24796153D01*
X83171053Y-25062820D01*
X83504386Y-24362820D02*
X82804386Y-24362820D01*
X82804386Y-23896153D02*
X82804386Y-23762820D01*
X82837720Y-23696153D01*
X82904386Y-23629486D01*
X83037720Y-23596153D01*
X83271053Y-23596153D01*
X83404386Y-23629486D01*
X83471053Y-23696153D01*
X83504386Y-23762820D01*
X83504386Y-23896153D01*
X83471053Y-23962820D01*
X83404386Y-24029486D01*
X83271053Y-24062820D01*
X83037720Y-24062820D01*
X82904386Y-24029486D01*
X82837720Y-23962820D01*
X82804386Y-23896153D01*
X83504386Y-22929486D02*
X83504386Y-23329486D01*
X83504386Y-23129486D02*
X82804386Y-23129486D01*
X82904386Y-23196153D01*
X82971053Y-23262820D01*
X83004386Y-23329486D01*
X82771053Y-22129486D02*
X83671053Y-22729486D01*
X82804386Y-21896153D02*
X83371053Y-21896153D01*
X83437720Y-21862820D01*
X83471053Y-21829486D01*
X83504386Y-21762820D01*
X83504386Y-21629486D01*
X83471053Y-21562820D01*
X83437720Y-21529486D01*
X83371053Y-21496153D01*
X82804386Y-21496153D01*
X82804386Y-21029486D02*
X82804386Y-20962820D01*
X82837720Y-20896153D01*
X82871053Y-20862820D01*
X82937720Y-20829486D01*
X83071053Y-20796153D01*
X83237720Y-20796153D01*
X83371053Y-20829486D01*
X83437720Y-20862820D01*
X83471053Y-20896153D01*
X83504386Y-20962820D01*
X83504386Y-21029486D01*
X83471053Y-21096153D01*
X83437720Y-21129486D01*
X83371053Y-21162820D01*
X83237720Y-21196153D01*
X83071053Y-21196153D01*
X82937720Y-21162820D01*
X82871053Y-21129486D01*
X82837720Y-21096153D01*
X82804386Y-21029486D01*
X82804386Y-20596153D02*
X82804386Y-20196153D01*
X83504386Y-20396153D02*
X82804386Y-20396153D01*
X82804386Y-20029486D02*
X83504386Y-19562820D01*
X82804386Y-19562820D02*
X83504386Y-20029486D01*
X83504386Y-19296153D02*
X82804386Y-19296153D01*
X82804386Y-19129486D01*
X82837720Y-19029486D01*
X82904386Y-18962820D01*
X82971053Y-18929486D01*
X83104386Y-18896153D01*
X83204386Y-18896153D01*
X83337720Y-18929486D01*
X83404386Y-18962820D01*
X83471053Y-19029486D01*
X83504386Y-19129486D01*
X83504386Y-19296153D01*
X100617720Y-22029486D02*
X100584386Y-22096153D01*
X100584386Y-22196153D01*
X100617720Y-22296153D01*
X100684386Y-22362820D01*
X100751053Y-22396153D01*
X100884386Y-22429486D01*
X100984386Y-22429486D01*
X101117720Y-22396153D01*
X101184386Y-22362820D01*
X101251053Y-22296153D01*
X101284386Y-22196153D01*
X101284386Y-22129486D01*
X101251053Y-22029486D01*
X101217720Y-21996153D01*
X100984386Y-21996153D01*
X100984386Y-22129486D01*
X101284386Y-21696153D02*
X100584386Y-21696153D01*
X100584386Y-21429486D01*
X100617720Y-21362820D01*
X100651053Y-21329486D01*
X100717720Y-21296153D01*
X100817720Y-21296153D01*
X100884386Y-21329486D01*
X100917720Y-21362820D01*
X100951053Y-21429486D01*
X100951053Y-21696153D01*
X101284386Y-20996153D02*
X100584386Y-20996153D01*
X100584386Y-20529486D02*
X100584386Y-20396153D01*
X100617720Y-20329486D01*
X100684386Y-20262820D01*
X100817720Y-20229486D01*
X101051053Y-20229486D01*
X101184386Y-20262820D01*
X101251053Y-20329486D01*
X101284386Y-20396153D01*
X101284386Y-20529486D01*
X101251053Y-20596153D01*
X101184386Y-20662820D01*
X101051053Y-20696153D01*
X100817720Y-20696153D01*
X100684386Y-20662820D01*
X100617720Y-20596153D01*
X100584386Y-20529486D01*
X101284386Y-19562820D02*
X101284386Y-19962820D01*
X101284386Y-19762820D02*
X100584386Y-19762820D01*
X100684386Y-19829486D01*
X100751053Y-19896153D01*
X100784386Y-19962820D01*
X100584386Y-19329486D02*
X100584386Y-18862820D01*
X101284386Y-19162820D01*
X90307720Y-21048534D02*
X90260100Y-21143772D01*
X90260100Y-21286629D01*
X90307720Y-21429486D01*
X90402958Y-21524724D01*
X90498196Y-21572343D01*
X90688672Y-21619962D01*
X90831529Y-21619962D01*
X91022005Y-21572343D01*
X91117243Y-21524724D01*
X91212481Y-21429486D01*
X91260100Y-21286629D01*
X91260100Y-21191391D01*
X91212481Y-21048534D01*
X91164862Y-21000915D01*
X90831529Y-21000915D01*
X90831529Y-21191391D01*
X91260100Y-20572343D02*
X90260100Y-20572343D01*
X91260100Y-20000915D01*
X90260100Y-20000915D01*
X91260100Y-19524724D02*
X90260100Y-19524724D01*
X90260100Y-19286629D01*
X90307720Y-19143772D01*
X90402958Y-19048534D01*
X90498196Y-19000915D01*
X90688672Y-18953296D01*
X90831529Y-18953296D01*
X91022005Y-19000915D01*
X91117243Y-19048534D01*
X91212481Y-19143772D01*
X91260100Y-19286629D01*
X91260100Y-19524724D01*
X80297720Y-22029486D02*
X80264386Y-22096153D01*
X80264386Y-22196153D01*
X80297720Y-22296153D01*
X80364386Y-22362820D01*
X80431053Y-22396153D01*
X80564386Y-22429486D01*
X80664386Y-22429486D01*
X80797720Y-22396153D01*
X80864386Y-22362820D01*
X80931053Y-22296153D01*
X80964386Y-22196153D01*
X80964386Y-22129486D01*
X80931053Y-22029486D01*
X80897720Y-21996153D01*
X80664386Y-21996153D01*
X80664386Y-22129486D01*
X80964386Y-21696153D02*
X80264386Y-21696153D01*
X80264386Y-21429486D01*
X80297720Y-21362820D01*
X80331053Y-21329486D01*
X80397720Y-21296153D01*
X80497720Y-21296153D01*
X80564386Y-21329486D01*
X80597720Y-21362820D01*
X80631053Y-21429486D01*
X80631053Y-21696153D01*
X80964386Y-20996153D02*
X80264386Y-20996153D01*
X80264386Y-20529486D02*
X80264386Y-20396153D01*
X80297720Y-20329486D01*
X80364386Y-20262820D01*
X80497720Y-20229486D01*
X80731053Y-20229486D01*
X80864386Y-20262820D01*
X80931053Y-20329486D01*
X80964386Y-20396153D01*
X80964386Y-20529486D01*
X80931053Y-20596153D01*
X80864386Y-20662820D01*
X80731053Y-20696153D01*
X80497720Y-20696153D01*
X80364386Y-20662820D01*
X80297720Y-20596153D01*
X80264386Y-20529486D01*
X80331053Y-19962820D02*
X80297720Y-19929486D01*
X80264386Y-19862820D01*
X80264386Y-19696153D01*
X80297720Y-19629486D01*
X80331053Y-19596153D01*
X80397720Y-19562820D01*
X80464386Y-19562820D01*
X80564386Y-19596153D01*
X80964386Y-19996153D01*
X80964386Y-19562820D01*
X80331053Y-19296153D02*
X80297720Y-19262820D01*
X80264386Y-19196153D01*
X80264386Y-19029486D01*
X80297720Y-18962820D01*
X80331053Y-18929486D01*
X80397720Y-18896153D01*
X80464386Y-18896153D01*
X80564386Y-18929486D01*
X80964386Y-19329486D01*
X80964386Y-18896153D01*
X118997720Y-40861153D02*
X119031053Y-40894486D01*
X119064386Y-40994486D01*
X119064386Y-41061153D01*
X119031053Y-41161153D01*
X118964386Y-41227820D01*
X118897720Y-41261153D01*
X118764386Y-41294486D01*
X118664386Y-41294486D01*
X118531053Y-41261153D01*
X118464386Y-41227820D01*
X118397720Y-41161153D01*
X118364386Y-41061153D01*
X118364386Y-40994486D01*
X118397720Y-40894486D01*
X118431053Y-40861153D01*
X119064386Y-40561153D02*
X118364386Y-40561153D01*
X118864386Y-40327820D01*
X118364386Y-40094486D01*
X119064386Y-40094486D01*
X119064386Y-39761153D02*
X118364386Y-39761153D01*
X118364386Y-39594486D01*
X118397720Y-39494486D01*
X118464386Y-39427820D01*
X118531053Y-39394486D01*
X118664386Y-39361153D01*
X118764386Y-39361153D01*
X118897720Y-39394486D01*
X118964386Y-39427820D01*
X119031053Y-39494486D01*
X119064386Y-39594486D01*
X119064386Y-39761153D01*
X95537720Y-22029486D02*
X95504386Y-22096153D01*
X95504386Y-22196153D01*
X95537720Y-22296153D01*
X95604386Y-22362820D01*
X95671053Y-22396153D01*
X95804386Y-22429486D01*
X95904386Y-22429486D01*
X96037720Y-22396153D01*
X96104386Y-22362820D01*
X96171053Y-22296153D01*
X96204386Y-22196153D01*
X96204386Y-22129486D01*
X96171053Y-22029486D01*
X96137720Y-21996153D01*
X95904386Y-21996153D01*
X95904386Y-22129486D01*
X96204386Y-21696153D02*
X95504386Y-21696153D01*
X95504386Y-21429486D01*
X95537720Y-21362820D01*
X95571053Y-21329486D01*
X95637720Y-21296153D01*
X95737720Y-21296153D01*
X95804386Y-21329486D01*
X95837720Y-21362820D01*
X95871053Y-21429486D01*
X95871053Y-21696153D01*
X96204386Y-20996153D02*
X95504386Y-20996153D01*
X95504386Y-20529486D02*
X95504386Y-20396153D01*
X95537720Y-20329486D01*
X95604386Y-20262820D01*
X95737720Y-20229486D01*
X95971053Y-20229486D01*
X96104386Y-20262820D01*
X96171053Y-20329486D01*
X96204386Y-20396153D01*
X96204386Y-20529486D01*
X96171053Y-20596153D01*
X96104386Y-20662820D01*
X95971053Y-20696153D01*
X95737720Y-20696153D01*
X95604386Y-20662820D01*
X95537720Y-20596153D01*
X95504386Y-20529486D01*
X96204386Y-19562820D02*
X96204386Y-19962820D01*
X96204386Y-19762820D02*
X95504386Y-19762820D01*
X95604386Y-19829486D01*
X95671053Y-19896153D01*
X95704386Y-19962820D01*
X95804386Y-19162820D02*
X95771053Y-19229486D01*
X95737720Y-19262820D01*
X95671053Y-19296153D01*
X95637720Y-19296153D01*
X95571053Y-19262820D01*
X95537720Y-19229486D01*
X95504386Y-19162820D01*
X95504386Y-19029486D01*
X95537720Y-18962820D01*
X95571053Y-18929486D01*
X95637720Y-18896153D01*
X95671053Y-18896153D01*
X95737720Y-18929486D01*
X95771053Y-18962820D01*
X95804386Y-19029486D01*
X95804386Y-19162820D01*
X95837720Y-19229486D01*
X95871053Y-19262820D01*
X95937720Y-19296153D01*
X96071053Y-19296153D01*
X96137720Y-19262820D01*
X96171053Y-19229486D01*
X96204386Y-19162820D01*
X96204386Y-19029486D01*
X96171053Y-18962820D01*
X96137720Y-18929486D01*
X96071053Y-18896153D01*
X95937720Y-18896153D01*
X95871053Y-18929486D01*
X95837720Y-18962820D01*
X95804386Y-19029486D01*
X116524386Y-41261153D02*
X115824386Y-41261153D01*
X115824386Y-41094486D01*
X115857720Y-40994486D01*
X115924386Y-40927820D01*
X115991053Y-40894486D01*
X116124386Y-40861153D01*
X116224386Y-40861153D01*
X116357720Y-40894486D01*
X116424386Y-40927820D01*
X116491053Y-40994486D01*
X116524386Y-41094486D01*
X116524386Y-41261153D01*
X115824386Y-40627820D02*
X115824386Y-40194486D01*
X116091053Y-40427820D01*
X116091053Y-40327820D01*
X116124386Y-40261153D01*
X116157720Y-40227820D01*
X116224386Y-40194486D01*
X116391053Y-40194486D01*
X116457720Y-40227820D01*
X116491053Y-40261153D01*
X116524386Y-40327820D01*
X116524386Y-40527820D01*
X116491053Y-40594486D01*
X116457720Y-40627820D01*
X85377720Y-40894486D02*
X85344386Y-40961153D01*
X85344386Y-41061153D01*
X85377720Y-41161153D01*
X85444386Y-41227820D01*
X85511053Y-41261153D01*
X85644386Y-41294486D01*
X85744386Y-41294486D01*
X85877720Y-41261153D01*
X85944386Y-41227820D01*
X86011053Y-41161153D01*
X86044386Y-41061153D01*
X86044386Y-40994486D01*
X86011053Y-40894486D01*
X85977720Y-40861153D01*
X85744386Y-40861153D01*
X85744386Y-40994486D01*
X86044386Y-40561153D02*
X85344386Y-40561153D01*
X85344386Y-40294486D01*
X85377720Y-40227820D01*
X85411053Y-40194486D01*
X85477720Y-40161153D01*
X85577720Y-40161153D01*
X85644386Y-40194486D01*
X85677720Y-40227820D01*
X85711053Y-40294486D01*
X85711053Y-40561153D01*
X86044386Y-39861153D02*
X85344386Y-39861153D01*
X85344386Y-39394486D02*
X85344386Y-39261153D01*
X85377720Y-39194486D01*
X85444386Y-39127820D01*
X85577720Y-39094486D01*
X85811053Y-39094486D01*
X85944386Y-39127820D01*
X86011053Y-39194486D01*
X86044386Y-39261153D01*
X86044386Y-39394486D01*
X86011053Y-39461153D01*
X85944386Y-39527820D01*
X85811053Y-39561153D01*
X85577720Y-39561153D01*
X85444386Y-39527820D01*
X85377720Y-39461153D01*
X85344386Y-39394486D01*
X85344386Y-38861153D02*
X85344386Y-38427820D01*
X85611053Y-38661153D01*
X85611053Y-38561153D01*
X85644386Y-38494486D01*
X85677720Y-38461153D01*
X85744386Y-38427820D01*
X85911053Y-38427820D01*
X85977720Y-38461153D01*
X86011053Y-38494486D01*
X86044386Y-38561153D01*
X86044386Y-38761153D01*
X86011053Y-38827820D01*
X85977720Y-38861153D01*
X85577720Y-37827820D02*
X86044386Y-37827820D01*
X85311053Y-37994486D02*
X85811053Y-38161153D01*
X85811053Y-37727820D01*
X103157720Y-40894486D02*
X103124386Y-40961153D01*
X103124386Y-41061153D01*
X103157720Y-41161153D01*
X103224386Y-41227820D01*
X103291053Y-41261153D01*
X103424386Y-41294486D01*
X103524386Y-41294486D01*
X103657720Y-41261153D01*
X103724386Y-41227820D01*
X103791053Y-41161153D01*
X103824386Y-41061153D01*
X103824386Y-40994486D01*
X103791053Y-40894486D01*
X103757720Y-40861153D01*
X103524386Y-40861153D01*
X103524386Y-40994486D01*
X103824386Y-40561153D02*
X103124386Y-40561153D01*
X103124386Y-40294486D01*
X103157720Y-40227820D01*
X103191053Y-40194486D01*
X103257720Y-40161153D01*
X103357720Y-40161153D01*
X103424386Y-40194486D01*
X103457720Y-40227820D01*
X103491053Y-40294486D01*
X103491053Y-40561153D01*
X103824386Y-39861153D02*
X103124386Y-39861153D01*
X103124386Y-39394486D02*
X103124386Y-39261153D01*
X103157720Y-39194486D01*
X103224386Y-39127820D01*
X103357720Y-39094486D01*
X103591053Y-39094486D01*
X103724386Y-39127820D01*
X103791053Y-39194486D01*
X103824386Y-39261153D01*
X103824386Y-39394486D01*
X103791053Y-39461153D01*
X103724386Y-39527820D01*
X103591053Y-39561153D01*
X103357720Y-39561153D01*
X103224386Y-39527820D01*
X103157720Y-39461153D01*
X103124386Y-39394486D01*
X103824386Y-38427820D02*
X103824386Y-38827820D01*
X103824386Y-38627820D02*
X103124386Y-38627820D01*
X103224386Y-38694486D01*
X103291053Y-38761153D01*
X103324386Y-38827820D01*
X103357720Y-37827820D02*
X103824386Y-37827820D01*
X103091053Y-37994486D02*
X103591053Y-38161153D01*
X103591053Y-37727820D01*
X103091053Y-36961153D02*
X103991053Y-37561153D01*
X103824386Y-36727820D02*
X103124386Y-36727820D01*
X103624386Y-36494486D01*
X103124386Y-36261153D01*
X103824386Y-36261153D01*
X103124386Y-36027820D02*
X103124386Y-35627820D01*
X103824386Y-35827820D02*
X103124386Y-35827820D01*
X103824386Y-35394486D02*
X103124386Y-35394486D01*
X103624386Y-35161153D01*
X103124386Y-34927820D01*
X103824386Y-34927820D01*
X103791053Y-34627820D02*
X103824386Y-34527820D01*
X103824386Y-34361153D01*
X103791053Y-34294486D01*
X103757720Y-34261153D01*
X103691053Y-34227820D01*
X103624386Y-34227820D01*
X103557720Y-34261153D01*
X103524386Y-34294486D01*
X103491053Y-34361153D01*
X103457720Y-34494486D01*
X103424386Y-34561153D01*
X103391053Y-34594486D01*
X103324386Y-34627820D01*
X103257720Y-34627820D01*
X103191053Y-34594486D01*
X103157720Y-34561153D01*
X103124386Y-34494486D01*
X103124386Y-34327820D01*
X103157720Y-34227820D01*
X87917720Y-40894486D02*
X87884386Y-40961153D01*
X87884386Y-41061153D01*
X87917720Y-41161153D01*
X87984386Y-41227820D01*
X88051053Y-41261153D01*
X88184386Y-41294486D01*
X88284386Y-41294486D01*
X88417720Y-41261153D01*
X88484386Y-41227820D01*
X88551053Y-41161153D01*
X88584386Y-41061153D01*
X88584386Y-40994486D01*
X88551053Y-40894486D01*
X88517720Y-40861153D01*
X88284386Y-40861153D01*
X88284386Y-40994486D01*
X88584386Y-40561153D02*
X87884386Y-40561153D01*
X87884386Y-40294486D01*
X87917720Y-40227820D01*
X87951053Y-40194486D01*
X88017720Y-40161153D01*
X88117720Y-40161153D01*
X88184386Y-40194486D01*
X88217720Y-40227820D01*
X88251053Y-40294486D01*
X88251053Y-40561153D01*
X88584386Y-39861153D02*
X87884386Y-39861153D01*
X87884386Y-39394486D02*
X87884386Y-39261153D01*
X87917720Y-39194486D01*
X87984386Y-39127820D01*
X88117720Y-39094486D01*
X88351053Y-39094486D01*
X88484386Y-39127820D01*
X88551053Y-39194486D01*
X88584386Y-39261153D01*
X88584386Y-39394486D01*
X88551053Y-39461153D01*
X88484386Y-39527820D01*
X88351053Y-39561153D01*
X88117720Y-39561153D01*
X87984386Y-39527820D01*
X87917720Y-39461153D01*
X87884386Y-39394486D01*
X87884386Y-38861153D02*
X87884386Y-38427820D01*
X88151053Y-38661153D01*
X88151053Y-38561153D01*
X88184386Y-38494486D01*
X88217720Y-38461153D01*
X88284386Y-38427820D01*
X88451053Y-38427820D01*
X88517720Y-38461153D01*
X88551053Y-38494486D01*
X88584386Y-38561153D01*
X88584386Y-38761153D01*
X88551053Y-38827820D01*
X88517720Y-38861153D01*
X87884386Y-37794486D02*
X87884386Y-38127820D01*
X88217720Y-38161153D01*
X88184386Y-38127820D01*
X88151053Y-38061153D01*
X88151053Y-37894486D01*
X88184386Y-37827820D01*
X88217720Y-37794486D01*
X88284386Y-37761153D01*
X88451053Y-37761153D01*
X88517720Y-37794486D01*
X88551053Y-37827820D01*
X88584386Y-37894486D01*
X88584386Y-38061153D01*
X88551053Y-38127820D01*
X88517720Y-38161153D01*
X105697720Y-21362820D02*
X105664386Y-21429486D01*
X105664386Y-21529486D01*
X105697720Y-21629486D01*
X105764386Y-21696153D01*
X105831053Y-21729486D01*
X105964386Y-21762820D01*
X106064386Y-21762820D01*
X106197720Y-21729486D01*
X106264386Y-21696153D01*
X106331053Y-21629486D01*
X106364386Y-21529486D01*
X106364386Y-21462820D01*
X106331053Y-21362820D01*
X106297720Y-21329486D01*
X106064386Y-21329486D01*
X106064386Y-21462820D01*
X106364386Y-21029486D02*
X105664386Y-21029486D01*
X105664386Y-20762820D01*
X105697720Y-20696153D01*
X105731053Y-20662820D01*
X105797720Y-20629486D01*
X105897720Y-20629486D01*
X105964386Y-20662820D01*
X105997720Y-20696153D01*
X106031053Y-20762820D01*
X106031053Y-21029486D01*
X106364386Y-20329486D02*
X105664386Y-20329486D01*
X105664386Y-19862820D02*
X105664386Y-19729486D01*
X105697720Y-19662820D01*
X105764386Y-19596153D01*
X105897720Y-19562820D01*
X106131053Y-19562820D01*
X106264386Y-19596153D01*
X106331053Y-19662820D01*
X106364386Y-19729486D01*
X106364386Y-19862820D01*
X106331053Y-19929486D01*
X106264386Y-19996153D01*
X106131053Y-20029486D01*
X105897720Y-20029486D01*
X105764386Y-19996153D01*
X105697720Y-19929486D01*
X105664386Y-19862820D01*
X105897720Y-18962820D02*
X106364386Y-18962820D01*
X105631053Y-19129486D02*
X106131053Y-19296153D01*
X106131053Y-18862820D01*
X78033571Y-41292214D02*
X78033571Y-40958880D01*
X78557380Y-40816023D02*
X78557380Y-41292214D01*
X77557380Y-41292214D01*
X77557380Y-40816023D01*
X78557380Y-40387452D02*
X77557380Y-40387452D01*
X78557380Y-39816023D01*
X77557380Y-39816023D01*
X77509761Y-38625547D02*
X78795476Y-39482690D01*
X78557380Y-37720785D02*
X78081190Y-38054119D01*
X78557380Y-38292214D02*
X77557380Y-38292214D01*
X77557380Y-37911261D01*
X77605000Y-37816023D01*
X77652619Y-37768404D01*
X77747857Y-37720785D01*
X77890714Y-37720785D01*
X77985952Y-37768404D01*
X78033571Y-37816023D01*
X78081190Y-37911261D01*
X78081190Y-38292214D01*
X78033571Y-37292214D02*
X78033571Y-36958880D01*
X78557380Y-36816023D02*
X78557380Y-37292214D01*
X77557380Y-37292214D01*
X77557380Y-36816023D01*
X78509761Y-36435071D02*
X78557380Y-36292214D01*
X78557380Y-36054119D01*
X78509761Y-35958880D01*
X78462142Y-35911261D01*
X78366904Y-35863642D01*
X78271666Y-35863642D01*
X78176428Y-35911261D01*
X78128809Y-35958880D01*
X78081190Y-36054119D01*
X78033571Y-36244595D01*
X77985952Y-36339833D01*
X77938333Y-36387452D01*
X77843095Y-36435071D01*
X77747857Y-36435071D01*
X77652619Y-36387452D01*
X77605000Y-36339833D01*
X77557380Y-36244595D01*
X77557380Y-36006500D01*
X77605000Y-35863642D01*
X78033571Y-35435071D02*
X78033571Y-35101738D01*
X78557380Y-34958880D02*
X78557380Y-35435071D01*
X77557380Y-35435071D01*
X77557380Y-34958880D01*
X77557380Y-34673166D02*
X77557380Y-34101738D01*
X78557380Y-34387452D02*
X77557380Y-34387452D01*
X121537720Y-20162820D02*
X121571053Y-20196153D01*
X121604386Y-20296153D01*
X121604386Y-20362820D01*
X121571053Y-20462820D01*
X121504386Y-20529486D01*
X121437720Y-20562820D01*
X121304386Y-20596153D01*
X121204386Y-20596153D01*
X121071053Y-20562820D01*
X121004386Y-20529486D01*
X120937720Y-20462820D01*
X120904386Y-20362820D01*
X120904386Y-20296153D01*
X120937720Y-20196153D01*
X120971053Y-20162820D01*
X121604386Y-19529486D02*
X121604386Y-19862820D01*
X120904386Y-19862820D01*
X121604386Y-19296153D02*
X120904386Y-19296153D01*
X121604386Y-18896153D02*
X121204386Y-19196153D01*
X120904386Y-18896153D02*
X121304386Y-19296153D01*
X108087720Y-40665915D02*
X108040100Y-40761153D01*
X108040100Y-40904010D01*
X108087720Y-41046867D01*
X108182958Y-41142105D01*
X108278196Y-41189724D01*
X108468672Y-41237343D01*
X108611529Y-41237343D01*
X108802005Y-41189724D01*
X108897243Y-41142105D01*
X108992481Y-41046867D01*
X109040100Y-40904010D01*
X109040100Y-40808772D01*
X108992481Y-40665915D01*
X108944862Y-40618296D01*
X108611529Y-40618296D01*
X108611529Y-40808772D01*
X109040100Y-40189724D02*
X108040100Y-40189724D01*
X109040100Y-39618296D01*
X108040100Y-39618296D01*
X109040100Y-39142105D02*
X108040100Y-39142105D01*
X108040100Y-38904010D01*
X108087720Y-38761153D01*
X108182958Y-38665915D01*
X108278196Y-38618296D01*
X108468672Y-38570677D01*
X108611529Y-38570677D01*
X108802005Y-38618296D01*
X108897243Y-38665915D01*
X108992481Y-38761153D01*
X109040100Y-38904010D01*
X109040100Y-39142105D01*
X108237720Y-21362820D02*
X108204386Y-21429486D01*
X108204386Y-21529486D01*
X108237720Y-21629486D01*
X108304386Y-21696153D01*
X108371053Y-21729486D01*
X108504386Y-21762820D01*
X108604386Y-21762820D01*
X108737720Y-21729486D01*
X108804386Y-21696153D01*
X108871053Y-21629486D01*
X108904386Y-21529486D01*
X108904386Y-21462820D01*
X108871053Y-21362820D01*
X108837720Y-21329486D01*
X108604386Y-21329486D01*
X108604386Y-21462820D01*
X108904386Y-21029486D02*
X108204386Y-21029486D01*
X108204386Y-20762820D01*
X108237720Y-20696153D01*
X108271053Y-20662820D01*
X108337720Y-20629486D01*
X108437720Y-20629486D01*
X108504386Y-20662820D01*
X108537720Y-20696153D01*
X108571053Y-20762820D01*
X108571053Y-21029486D01*
X108904386Y-20329486D02*
X108204386Y-20329486D01*
X108204386Y-19862820D02*
X108204386Y-19729486D01*
X108237720Y-19662820D01*
X108304386Y-19596153D01*
X108437720Y-19562820D01*
X108671053Y-19562820D01*
X108804386Y-19596153D01*
X108871053Y-19662820D01*
X108904386Y-19729486D01*
X108904386Y-19862820D01*
X108871053Y-19929486D01*
X108804386Y-19996153D01*
X108671053Y-20029486D01*
X108437720Y-20029486D01*
X108304386Y-19996153D01*
X108237720Y-19929486D01*
X108204386Y-19862820D01*
X108204386Y-19129486D02*
X108204386Y-19062820D01*
X108237720Y-18996153D01*
X108271053Y-18962820D01*
X108337720Y-18929486D01*
X108471053Y-18896153D01*
X108637720Y-18896153D01*
X108771053Y-18929486D01*
X108837720Y-18962820D01*
X108871053Y-18996153D01*
X108904386Y-19062820D01*
X108904386Y-19129486D01*
X108871053Y-19196153D01*
X108837720Y-19229486D01*
X108771053Y-19262820D01*
X108637720Y-19296153D01*
X108471053Y-19296153D01*
X108337720Y-19262820D01*
X108271053Y-19229486D01*
X108237720Y-19196153D01*
X108204386Y-19129486D01*
X90457720Y-40894486D02*
X90424386Y-40961153D01*
X90424386Y-41061153D01*
X90457720Y-41161153D01*
X90524386Y-41227820D01*
X90591053Y-41261153D01*
X90724386Y-41294486D01*
X90824386Y-41294486D01*
X90957720Y-41261153D01*
X91024386Y-41227820D01*
X91091053Y-41161153D01*
X91124386Y-41061153D01*
X91124386Y-40994486D01*
X91091053Y-40894486D01*
X91057720Y-40861153D01*
X90824386Y-40861153D01*
X90824386Y-40994486D01*
X91124386Y-40561153D02*
X90424386Y-40561153D01*
X90424386Y-40294486D01*
X90457720Y-40227820D01*
X90491053Y-40194486D01*
X90557720Y-40161153D01*
X90657720Y-40161153D01*
X90724386Y-40194486D01*
X90757720Y-40227820D01*
X90791053Y-40294486D01*
X90791053Y-40561153D01*
X91124386Y-39861153D02*
X90424386Y-39861153D01*
X90424386Y-39394486D02*
X90424386Y-39261153D01*
X90457720Y-39194486D01*
X90524386Y-39127820D01*
X90657720Y-39094486D01*
X90891053Y-39094486D01*
X91024386Y-39127820D01*
X91091053Y-39194486D01*
X91124386Y-39261153D01*
X91124386Y-39394486D01*
X91091053Y-39461153D01*
X91024386Y-39527820D01*
X90891053Y-39561153D01*
X90657720Y-39561153D01*
X90524386Y-39527820D01*
X90457720Y-39461153D01*
X90424386Y-39394486D01*
X90424386Y-38861153D02*
X90424386Y-38427820D01*
X90691053Y-38661153D01*
X90691053Y-38561153D01*
X90724386Y-38494486D01*
X90757720Y-38461153D01*
X90824386Y-38427820D01*
X90991053Y-38427820D01*
X91057720Y-38461153D01*
X91091053Y-38494486D01*
X91124386Y-38561153D01*
X91124386Y-38761153D01*
X91091053Y-38827820D01*
X91057720Y-38861153D01*
X90491053Y-38161153D02*
X90457720Y-38127820D01*
X90424386Y-38061153D01*
X90424386Y-37894486D01*
X90457720Y-37827820D01*
X90491053Y-37794486D01*
X90557720Y-37761153D01*
X90624386Y-37761153D01*
X90724386Y-37794486D01*
X91124386Y-38194486D01*
X91124386Y-37761153D01*
X103157720Y-22029486D02*
X103124386Y-22096153D01*
X103124386Y-22196153D01*
X103157720Y-22296153D01*
X103224386Y-22362820D01*
X103291053Y-22396153D01*
X103424386Y-22429486D01*
X103524386Y-22429486D01*
X103657720Y-22396153D01*
X103724386Y-22362820D01*
X103791053Y-22296153D01*
X103824386Y-22196153D01*
X103824386Y-22129486D01*
X103791053Y-22029486D01*
X103757720Y-21996153D01*
X103524386Y-21996153D01*
X103524386Y-22129486D01*
X103824386Y-21696153D02*
X103124386Y-21696153D01*
X103124386Y-21429486D01*
X103157720Y-21362820D01*
X103191053Y-21329486D01*
X103257720Y-21296153D01*
X103357720Y-21296153D01*
X103424386Y-21329486D01*
X103457720Y-21362820D01*
X103491053Y-21429486D01*
X103491053Y-21696153D01*
X103824386Y-20996153D02*
X103124386Y-20996153D01*
X103124386Y-20529486D02*
X103124386Y-20396153D01*
X103157720Y-20329486D01*
X103224386Y-20262820D01*
X103357720Y-20229486D01*
X103591053Y-20229486D01*
X103724386Y-20262820D01*
X103791053Y-20329486D01*
X103824386Y-20396153D01*
X103824386Y-20529486D01*
X103791053Y-20596153D01*
X103724386Y-20662820D01*
X103591053Y-20696153D01*
X103357720Y-20696153D01*
X103224386Y-20662820D01*
X103157720Y-20596153D01*
X103124386Y-20529486D01*
X103824386Y-19562820D02*
X103824386Y-19962820D01*
X103824386Y-19762820D02*
X103124386Y-19762820D01*
X103224386Y-19829486D01*
X103291053Y-19896153D01*
X103324386Y-19962820D01*
X103124386Y-18962820D02*
X103124386Y-19096153D01*
X103157720Y-19162820D01*
X103191053Y-19196153D01*
X103291053Y-19262820D01*
X103424386Y-19296153D01*
X103691053Y-19296153D01*
X103757720Y-19262820D01*
X103791053Y-19229486D01*
X103824386Y-19162820D01*
X103824386Y-19029486D01*
X103791053Y-18962820D01*
X103757720Y-18929486D01*
X103691053Y-18896153D01*
X103524386Y-18896153D01*
X103457720Y-18929486D01*
X103424386Y-18962820D01*
X103391053Y-19029486D01*
X103391053Y-19162820D01*
X103424386Y-19229486D01*
X103457720Y-19262820D01*
X103524386Y-19296153D01*
X75020100Y-41284962D02*
X75020100Y-40665915D01*
X75401053Y-40999248D01*
X75401053Y-40856391D01*
X75448672Y-40761153D01*
X75496291Y-40713534D01*
X75591529Y-40665915D01*
X75829624Y-40665915D01*
X75924862Y-40713534D01*
X75972481Y-40761153D01*
X76020100Y-40856391D01*
X76020100Y-41142105D01*
X75972481Y-41237343D01*
X75924862Y-41284962D01*
X75020100Y-40380200D02*
X76020100Y-40046867D01*
X75020100Y-39713534D01*
X75020100Y-39475439D02*
X75020100Y-38856391D01*
X75401053Y-39189724D01*
X75401053Y-39046867D01*
X75448672Y-38951629D01*
X75496291Y-38904010D01*
X75591529Y-38856391D01*
X75829624Y-38856391D01*
X75924862Y-38904010D01*
X75972481Y-38951629D01*
X76020100Y-39046867D01*
X76020100Y-39332581D01*
X75972481Y-39427820D01*
X75924862Y-39475439D01*
X85377720Y-25562820D02*
X85344386Y-25629486D01*
X85344386Y-25729486D01*
X85377720Y-25829486D01*
X85444386Y-25896153D01*
X85511053Y-25929486D01*
X85644386Y-25962820D01*
X85744386Y-25962820D01*
X85877720Y-25929486D01*
X85944386Y-25896153D01*
X86011053Y-25829486D01*
X86044386Y-25729486D01*
X86044386Y-25662820D01*
X86011053Y-25562820D01*
X85977720Y-25529486D01*
X85744386Y-25529486D01*
X85744386Y-25662820D01*
X86044386Y-25229486D02*
X85344386Y-25229486D01*
X85344386Y-24962820D01*
X85377720Y-24896153D01*
X85411053Y-24862820D01*
X85477720Y-24829486D01*
X85577720Y-24829486D01*
X85644386Y-24862820D01*
X85677720Y-24896153D01*
X85711053Y-24962820D01*
X85711053Y-25229486D01*
X86044386Y-24529486D02*
X85344386Y-24529486D01*
X85344386Y-24062820D02*
X85344386Y-23929486D01*
X85377720Y-23862820D01*
X85444386Y-23796153D01*
X85577720Y-23762820D01*
X85811053Y-23762820D01*
X85944386Y-23796153D01*
X86011053Y-23862820D01*
X86044386Y-23929486D01*
X86044386Y-24062820D01*
X86011053Y-24129486D01*
X85944386Y-24196153D01*
X85811053Y-24229486D01*
X85577720Y-24229486D01*
X85444386Y-24196153D01*
X85377720Y-24129486D01*
X85344386Y-24062820D01*
X85344386Y-23529486D02*
X85344386Y-23096153D01*
X85611053Y-23329486D01*
X85611053Y-23229486D01*
X85644386Y-23162820D01*
X85677720Y-23129486D01*
X85744386Y-23096153D01*
X85911053Y-23096153D01*
X85977720Y-23129486D01*
X86011053Y-23162820D01*
X86044386Y-23229486D01*
X86044386Y-23429486D01*
X86011053Y-23496153D01*
X85977720Y-23529486D01*
X85311053Y-22296153D02*
X86211053Y-22896153D01*
X85344386Y-22062820D02*
X85911053Y-22062820D01*
X85977720Y-22029486D01*
X86011053Y-21996153D01*
X86044386Y-21929486D01*
X86044386Y-21796153D01*
X86011053Y-21729486D01*
X85977720Y-21696153D01*
X85911053Y-21662820D01*
X85344386Y-21662820D01*
X85344386Y-21196153D02*
X85344386Y-21129486D01*
X85377720Y-21062820D01*
X85411053Y-21029486D01*
X85477720Y-20996153D01*
X85611053Y-20962820D01*
X85777720Y-20962820D01*
X85911053Y-20996153D01*
X85977720Y-21029486D01*
X86011053Y-21062820D01*
X86044386Y-21129486D01*
X86044386Y-21196153D01*
X86011053Y-21262820D01*
X85977720Y-21296153D01*
X85911053Y-21329486D01*
X85777720Y-21362820D01*
X85611053Y-21362820D01*
X85477720Y-21329486D01*
X85411053Y-21296153D01*
X85377720Y-21262820D01*
X85344386Y-21196153D01*
X86044386Y-20262820D02*
X85711053Y-20496153D01*
X86044386Y-20662820D02*
X85344386Y-20662820D01*
X85344386Y-20396153D01*
X85377720Y-20329486D01*
X85411053Y-20296153D01*
X85477720Y-20262820D01*
X85577720Y-20262820D01*
X85644386Y-20296153D01*
X85677720Y-20329486D01*
X85711053Y-20396153D01*
X85711053Y-20662820D01*
X85344386Y-20029486D02*
X86044386Y-19562820D01*
X85344386Y-19562820D02*
X86044386Y-20029486D01*
X86044386Y-19296153D02*
X85344386Y-19296153D01*
X85344386Y-19129486D01*
X85377720Y-19029486D01*
X85444386Y-18962820D01*
X85511053Y-18929486D01*
X85644386Y-18896153D01*
X85744386Y-18896153D01*
X85877720Y-18929486D01*
X85944386Y-18962820D01*
X86011053Y-19029486D01*
X86044386Y-19129486D01*
X86044386Y-19296153D01*
X98077720Y-40894486D02*
X98044386Y-40961153D01*
X98044386Y-41061153D01*
X98077720Y-41161153D01*
X98144386Y-41227820D01*
X98211053Y-41261153D01*
X98344386Y-41294486D01*
X98444386Y-41294486D01*
X98577720Y-41261153D01*
X98644386Y-41227820D01*
X98711053Y-41161153D01*
X98744386Y-41061153D01*
X98744386Y-40994486D01*
X98711053Y-40894486D01*
X98677720Y-40861153D01*
X98444386Y-40861153D01*
X98444386Y-40994486D01*
X98744386Y-40561153D02*
X98044386Y-40561153D01*
X98044386Y-40294486D01*
X98077720Y-40227820D01*
X98111053Y-40194486D01*
X98177720Y-40161153D01*
X98277720Y-40161153D01*
X98344386Y-40194486D01*
X98377720Y-40227820D01*
X98411053Y-40294486D01*
X98411053Y-40561153D01*
X98744386Y-39861153D02*
X98044386Y-39861153D01*
X98044386Y-39394486D02*
X98044386Y-39261153D01*
X98077720Y-39194486D01*
X98144386Y-39127820D01*
X98277720Y-39094486D01*
X98511053Y-39094486D01*
X98644386Y-39127820D01*
X98711053Y-39194486D01*
X98744386Y-39261153D01*
X98744386Y-39394486D01*
X98711053Y-39461153D01*
X98644386Y-39527820D01*
X98511053Y-39561153D01*
X98277720Y-39561153D01*
X98144386Y-39527820D01*
X98077720Y-39461153D01*
X98044386Y-39394486D01*
X98111053Y-38827820D02*
X98077720Y-38794486D01*
X98044386Y-38727820D01*
X98044386Y-38561153D01*
X98077720Y-38494486D01*
X98111053Y-38461153D01*
X98177720Y-38427820D01*
X98244386Y-38427820D01*
X98344386Y-38461153D01*
X98744386Y-38861153D01*
X98744386Y-38427820D01*
X98044386Y-37827820D02*
X98044386Y-37961153D01*
X98077720Y-38027820D01*
X98111053Y-38061153D01*
X98211053Y-38127820D01*
X98344386Y-38161153D01*
X98611053Y-38161153D01*
X98677720Y-38127820D01*
X98711053Y-38094486D01*
X98744386Y-38027820D01*
X98744386Y-37894486D01*
X98711053Y-37827820D01*
X98677720Y-37794486D01*
X98611053Y-37761153D01*
X98444386Y-37761153D01*
X98377720Y-37794486D01*
X98344386Y-37827820D01*
X98311053Y-37894486D01*
X98311053Y-38027820D01*
X98344386Y-38094486D01*
X98377720Y-38127820D01*
X98444386Y-38161153D01*
X110777720Y-21362820D02*
X110744386Y-21429486D01*
X110744386Y-21529486D01*
X110777720Y-21629486D01*
X110844386Y-21696153D01*
X110911053Y-21729486D01*
X111044386Y-21762820D01*
X111144386Y-21762820D01*
X111277720Y-21729486D01*
X111344386Y-21696153D01*
X111411053Y-21629486D01*
X111444386Y-21529486D01*
X111444386Y-21462820D01*
X111411053Y-21362820D01*
X111377720Y-21329486D01*
X111144386Y-21329486D01*
X111144386Y-21462820D01*
X111444386Y-21029486D02*
X110744386Y-21029486D01*
X110744386Y-20762820D01*
X110777720Y-20696153D01*
X110811053Y-20662820D01*
X110877720Y-20629486D01*
X110977720Y-20629486D01*
X111044386Y-20662820D01*
X111077720Y-20696153D01*
X111111053Y-20762820D01*
X111111053Y-21029486D01*
X111444386Y-20329486D02*
X110744386Y-20329486D01*
X110744386Y-19862820D02*
X110744386Y-19729486D01*
X110777720Y-19662820D01*
X110844386Y-19596153D01*
X110977720Y-19562820D01*
X111211053Y-19562820D01*
X111344386Y-19596153D01*
X111411053Y-19662820D01*
X111444386Y-19729486D01*
X111444386Y-19862820D01*
X111411053Y-19929486D01*
X111344386Y-19996153D01*
X111211053Y-20029486D01*
X110977720Y-20029486D01*
X110844386Y-19996153D01*
X110777720Y-19929486D01*
X110744386Y-19862820D01*
X110811053Y-19296153D02*
X110777720Y-19262820D01*
X110744386Y-19196153D01*
X110744386Y-19029486D01*
X110777720Y-18962820D01*
X110811053Y-18929486D01*
X110877720Y-18896153D01*
X110944386Y-18896153D01*
X111044386Y-18929486D01*
X111444386Y-19329486D01*
X111444386Y-18896153D01*
X110777720Y-40894486D02*
X110744386Y-40961153D01*
X110744386Y-41061153D01*
X110777720Y-41161153D01*
X110844386Y-41227820D01*
X110911053Y-41261153D01*
X111044386Y-41294486D01*
X111144386Y-41294486D01*
X111277720Y-41261153D01*
X111344386Y-41227820D01*
X111411053Y-41161153D01*
X111444386Y-41061153D01*
X111444386Y-40994486D01*
X111411053Y-40894486D01*
X111377720Y-40861153D01*
X111144386Y-40861153D01*
X111144386Y-40994486D01*
X111444386Y-40561153D02*
X110744386Y-40561153D01*
X110744386Y-40294486D01*
X110777720Y-40227820D01*
X110811053Y-40194486D01*
X110877720Y-40161153D01*
X110977720Y-40161153D01*
X111044386Y-40194486D01*
X111077720Y-40227820D01*
X111111053Y-40294486D01*
X111111053Y-40561153D01*
X111444386Y-39861153D02*
X110744386Y-39861153D01*
X110744386Y-39394486D02*
X110744386Y-39261153D01*
X110777720Y-39194486D01*
X110844386Y-39127820D01*
X110977720Y-39094486D01*
X111211053Y-39094486D01*
X111344386Y-39127820D01*
X111411053Y-39194486D01*
X111444386Y-39261153D01*
X111444386Y-39394486D01*
X111411053Y-39461153D01*
X111344386Y-39527820D01*
X111211053Y-39561153D01*
X110977720Y-39561153D01*
X110844386Y-39527820D01*
X110777720Y-39461153D01*
X110744386Y-39394486D01*
X111444386Y-38427820D02*
X111444386Y-38827820D01*
X111444386Y-38627820D02*
X110744386Y-38627820D01*
X110844386Y-38694486D01*
X110911053Y-38761153D01*
X110944386Y-38827820D01*
X110744386Y-38194486D02*
X110744386Y-37761153D01*
X111011053Y-37994486D01*
X111011053Y-37894486D01*
X111044386Y-37827820D01*
X111077720Y-37794486D01*
X111144386Y-37761153D01*
X111311053Y-37761153D01*
X111377720Y-37794486D01*
X111411053Y-37827820D01*
X111444386Y-37894486D01*
X111444386Y-38094486D01*
X111411053Y-38161153D01*
X111377720Y-38194486D01*
X110711053Y-36961153D02*
X111611053Y-37561153D01*
X111444386Y-36727820D02*
X110744386Y-36727820D01*
X111244386Y-36494486D01*
X110744386Y-36261153D01*
X111444386Y-36261153D01*
X110744386Y-36027820D02*
X110744386Y-35627820D01*
X111444386Y-35827820D02*
X110744386Y-35827820D01*
X111377720Y-34994486D02*
X111411053Y-35027820D01*
X111444386Y-35127820D01*
X111444386Y-35194486D01*
X111411053Y-35294486D01*
X111344386Y-35361153D01*
X111277720Y-35394486D01*
X111144386Y-35427820D01*
X111044386Y-35427820D01*
X110911053Y-35394486D01*
X110844386Y-35361153D01*
X110777720Y-35294486D01*
X110744386Y-35194486D01*
X110744386Y-35127820D01*
X110777720Y-35027820D01*
X110811053Y-34994486D01*
X111444386Y-34694486D02*
X110744386Y-34694486D01*
X111444386Y-34294486D02*
X111044386Y-34594486D01*
X110744386Y-34294486D02*
X111144386Y-34694486D01*
X82804386Y-41361153D02*
X83504386Y-41127820D01*
X82804386Y-40894486D01*
X83504386Y-40661153D02*
X82804386Y-40661153D01*
X83504386Y-40261153D01*
X82804386Y-40261153D01*
X82771053Y-39427820D02*
X83671053Y-40027820D01*
X82837720Y-38827820D02*
X82804386Y-38894486D01*
X82804386Y-38994486D01*
X82837720Y-39094486D01*
X82904386Y-39161153D01*
X82971053Y-39194486D01*
X83104386Y-39227820D01*
X83204386Y-39227820D01*
X83337720Y-39194486D01*
X83404386Y-39161153D01*
X83471053Y-39094486D01*
X83504386Y-38994486D01*
X83504386Y-38927820D01*
X83471053Y-38827820D01*
X83437720Y-38794486D01*
X83204386Y-38794486D01*
X83204386Y-38927820D01*
X83504386Y-38494486D02*
X82804386Y-38494486D01*
X82804386Y-38227820D01*
X82837720Y-38161153D01*
X82871053Y-38127820D01*
X82937720Y-38094486D01*
X83037720Y-38094486D01*
X83104386Y-38127820D01*
X83137720Y-38161153D01*
X83171053Y-38227820D01*
X83171053Y-38494486D01*
X83504386Y-37794486D02*
X82804386Y-37794486D01*
X82804386Y-37327820D02*
X82804386Y-37194486D01*
X82837720Y-37127820D01*
X82904386Y-37061153D01*
X83037720Y-37027820D01*
X83271053Y-37027820D01*
X83404386Y-37061153D01*
X83471053Y-37127820D01*
X83504386Y-37194486D01*
X83504386Y-37327820D01*
X83471053Y-37394486D01*
X83404386Y-37461153D01*
X83271053Y-37494486D01*
X83037720Y-37494486D01*
X82904386Y-37461153D01*
X82837720Y-37394486D01*
X82804386Y-37327820D01*
X82804386Y-36794486D02*
X82804386Y-36361153D01*
X83071053Y-36594486D01*
X83071053Y-36494486D01*
X83104386Y-36427820D01*
X83137720Y-36394486D01*
X83204386Y-36361153D01*
X83371053Y-36361153D01*
X83437720Y-36394486D01*
X83471053Y-36427820D01*
X83504386Y-36494486D01*
X83504386Y-36694486D01*
X83471053Y-36761153D01*
X83437720Y-36794486D01*
X83504386Y-36027820D02*
X83504386Y-35894486D01*
X83471053Y-35827820D01*
X83437720Y-35794486D01*
X83337720Y-35727820D01*
X83204386Y-35694486D01*
X82937720Y-35694486D01*
X82871053Y-35727820D01*
X82837720Y-35761153D01*
X82804386Y-35827820D01*
X82804386Y-35961153D01*
X82837720Y-36027820D01*
X82871053Y-36061153D01*
X82937720Y-36094486D01*
X83104386Y-36094486D01*
X83171053Y-36061153D01*
X83204386Y-36027820D01*
X83237720Y-35961153D01*
X83237720Y-35827820D01*
X83204386Y-35761153D01*
X83171053Y-35727820D01*
X83104386Y-35694486D01*
X92997720Y-22029486D02*
X92964386Y-22096153D01*
X92964386Y-22196153D01*
X92997720Y-22296153D01*
X93064386Y-22362820D01*
X93131053Y-22396153D01*
X93264386Y-22429486D01*
X93364386Y-22429486D01*
X93497720Y-22396153D01*
X93564386Y-22362820D01*
X93631053Y-22296153D01*
X93664386Y-22196153D01*
X93664386Y-22129486D01*
X93631053Y-22029486D01*
X93597720Y-21996153D01*
X93364386Y-21996153D01*
X93364386Y-22129486D01*
X93664386Y-21696153D02*
X92964386Y-21696153D01*
X92964386Y-21429486D01*
X92997720Y-21362820D01*
X93031053Y-21329486D01*
X93097720Y-21296153D01*
X93197720Y-21296153D01*
X93264386Y-21329486D01*
X93297720Y-21362820D01*
X93331053Y-21429486D01*
X93331053Y-21696153D01*
X93664386Y-20996153D02*
X92964386Y-20996153D01*
X92964386Y-20529486D02*
X92964386Y-20396153D01*
X92997720Y-20329486D01*
X93064386Y-20262820D01*
X93197720Y-20229486D01*
X93431053Y-20229486D01*
X93564386Y-20262820D01*
X93631053Y-20329486D01*
X93664386Y-20396153D01*
X93664386Y-20529486D01*
X93631053Y-20596153D01*
X93564386Y-20662820D01*
X93431053Y-20696153D01*
X93197720Y-20696153D01*
X93064386Y-20662820D01*
X92997720Y-20596153D01*
X92964386Y-20529486D01*
X93664386Y-19562820D02*
X93664386Y-19962820D01*
X93664386Y-19762820D02*
X92964386Y-19762820D01*
X93064386Y-19829486D01*
X93131053Y-19896153D01*
X93164386Y-19962820D01*
X93664386Y-19229486D02*
X93664386Y-19096153D01*
X93631053Y-19029486D01*
X93597720Y-18996153D01*
X93497720Y-18929486D01*
X93364386Y-18896153D01*
X93097720Y-18896153D01*
X93031053Y-18929486D01*
X92997720Y-18962820D01*
X92964386Y-19029486D01*
X92964386Y-19162820D01*
X92997720Y-19229486D01*
X93031053Y-19262820D01*
X93097720Y-19296153D01*
X93264386Y-19296153D01*
X93331053Y-19262820D01*
X93364386Y-19229486D01*
X93397720Y-19162820D01*
X93397720Y-19029486D01*
X93364386Y-18962820D01*
X93331053Y-18929486D01*
X93264386Y-18896153D01*
X92997720Y-40894486D02*
X92964386Y-40961153D01*
X92964386Y-41061153D01*
X92997720Y-41161153D01*
X93064386Y-41227820D01*
X93131053Y-41261153D01*
X93264386Y-41294486D01*
X93364386Y-41294486D01*
X93497720Y-41261153D01*
X93564386Y-41227820D01*
X93631053Y-41161153D01*
X93664386Y-41061153D01*
X93664386Y-40994486D01*
X93631053Y-40894486D01*
X93597720Y-40861153D01*
X93364386Y-40861153D01*
X93364386Y-40994486D01*
X93664386Y-40561153D02*
X92964386Y-40561153D01*
X92964386Y-40294486D01*
X92997720Y-40227820D01*
X93031053Y-40194486D01*
X93097720Y-40161153D01*
X93197720Y-40161153D01*
X93264386Y-40194486D01*
X93297720Y-40227820D01*
X93331053Y-40294486D01*
X93331053Y-40561153D01*
X93664386Y-39861153D02*
X92964386Y-39861153D01*
X92964386Y-39394486D02*
X92964386Y-39261153D01*
X92997720Y-39194486D01*
X93064386Y-39127820D01*
X93197720Y-39094486D01*
X93431053Y-39094486D01*
X93564386Y-39127820D01*
X93631053Y-39194486D01*
X93664386Y-39261153D01*
X93664386Y-39394486D01*
X93631053Y-39461153D01*
X93564386Y-39527820D01*
X93431053Y-39561153D01*
X93197720Y-39561153D01*
X93064386Y-39527820D01*
X92997720Y-39461153D01*
X92964386Y-39394486D01*
X92964386Y-38861153D02*
X92964386Y-38427820D01*
X93231053Y-38661153D01*
X93231053Y-38561153D01*
X93264386Y-38494486D01*
X93297720Y-38461153D01*
X93364386Y-38427820D01*
X93531053Y-38427820D01*
X93597720Y-38461153D01*
X93631053Y-38494486D01*
X93664386Y-38561153D01*
X93664386Y-38761153D01*
X93631053Y-38827820D01*
X93597720Y-38861153D01*
X92964386Y-38194486D02*
X92964386Y-37761153D01*
X93231053Y-37994486D01*
X93231053Y-37894486D01*
X93264386Y-37827820D01*
X93297720Y-37794486D01*
X93364386Y-37761153D01*
X93531053Y-37761153D01*
X93597720Y-37794486D01*
X93631053Y-37827820D01*
X93664386Y-37894486D01*
X93664386Y-38094486D01*
X93631053Y-38161153D01*
X93597720Y-38194486D01*
X100617720Y-40894486D02*
X100584386Y-40961153D01*
X100584386Y-41061153D01*
X100617720Y-41161153D01*
X100684386Y-41227820D01*
X100751053Y-41261153D01*
X100884386Y-41294486D01*
X100984386Y-41294486D01*
X101117720Y-41261153D01*
X101184386Y-41227820D01*
X101251053Y-41161153D01*
X101284386Y-41061153D01*
X101284386Y-40994486D01*
X101251053Y-40894486D01*
X101217720Y-40861153D01*
X100984386Y-40861153D01*
X100984386Y-40994486D01*
X101284386Y-40561153D02*
X100584386Y-40561153D01*
X100584386Y-40294486D01*
X100617720Y-40227820D01*
X100651053Y-40194486D01*
X100717720Y-40161153D01*
X100817720Y-40161153D01*
X100884386Y-40194486D01*
X100917720Y-40227820D01*
X100951053Y-40294486D01*
X100951053Y-40561153D01*
X101284386Y-39861153D02*
X100584386Y-39861153D01*
X100584386Y-39394486D02*
X100584386Y-39261153D01*
X100617720Y-39194486D01*
X100684386Y-39127820D01*
X100817720Y-39094486D01*
X101051053Y-39094486D01*
X101184386Y-39127820D01*
X101251053Y-39194486D01*
X101284386Y-39261153D01*
X101284386Y-39394486D01*
X101251053Y-39461153D01*
X101184386Y-39527820D01*
X101051053Y-39561153D01*
X100817720Y-39561153D01*
X100684386Y-39527820D01*
X100617720Y-39461153D01*
X100584386Y-39394486D01*
X100651053Y-38827820D02*
X100617720Y-38794486D01*
X100584386Y-38727820D01*
X100584386Y-38561153D01*
X100617720Y-38494486D01*
X100651053Y-38461153D01*
X100717720Y-38427820D01*
X100784386Y-38427820D01*
X100884386Y-38461153D01*
X101284386Y-38861153D01*
X101284386Y-38427820D01*
X100584386Y-38194486D02*
X100584386Y-37727820D01*
X101284386Y-38027820D01*
X113984386Y-41261153D02*
X113284386Y-41261153D01*
X113284386Y-41094486D01*
X113317720Y-40994486D01*
X113384386Y-40927820D01*
X113451053Y-40894486D01*
X113584386Y-40861153D01*
X113684386Y-40861153D01*
X113817720Y-40894486D01*
X113884386Y-40927820D01*
X113951053Y-40994486D01*
X113984386Y-41094486D01*
X113984386Y-41261153D01*
X113351053Y-40594486D02*
X113317720Y-40561153D01*
X113284386Y-40494486D01*
X113284386Y-40327820D01*
X113317720Y-40261153D01*
X113351053Y-40227820D01*
X113417720Y-40194486D01*
X113484386Y-40194486D01*
X113584386Y-40227820D01*
X113984386Y-40627820D01*
X113984386Y-40194486D01*
X80264386Y-41361153D02*
X80964386Y-41127820D01*
X80264386Y-40894486D01*
X80964386Y-40661153D02*
X80264386Y-40661153D01*
X80264386Y-40394486D01*
X80297720Y-40327820D01*
X80331053Y-40294486D01*
X80397720Y-40261153D01*
X80497720Y-40261153D01*
X80564386Y-40294486D01*
X80597720Y-40327820D01*
X80631053Y-40394486D01*
X80631053Y-40661153D01*
X80231053Y-39461153D02*
X81131053Y-40061153D01*
X80297720Y-38861153D02*
X80264386Y-38927820D01*
X80264386Y-39027820D01*
X80297720Y-39127820D01*
X80364386Y-39194486D01*
X80431053Y-39227820D01*
X80564386Y-39261153D01*
X80664386Y-39261153D01*
X80797720Y-39227820D01*
X80864386Y-39194486D01*
X80931053Y-39127820D01*
X80964386Y-39027820D01*
X80964386Y-38961153D01*
X80931053Y-38861153D01*
X80897720Y-38827820D01*
X80664386Y-38827820D01*
X80664386Y-38961153D01*
X80964386Y-38527820D02*
X80264386Y-38527820D01*
X80264386Y-38261153D01*
X80297720Y-38194486D01*
X80331053Y-38161153D01*
X80397720Y-38127820D01*
X80497720Y-38127820D01*
X80564386Y-38161153D01*
X80597720Y-38194486D01*
X80631053Y-38261153D01*
X80631053Y-38527820D01*
X80964386Y-37827820D02*
X80264386Y-37827820D01*
X80264386Y-37361153D02*
X80264386Y-37227820D01*
X80297720Y-37161153D01*
X80364386Y-37094486D01*
X80497720Y-37061153D01*
X80731053Y-37061153D01*
X80864386Y-37094486D01*
X80931053Y-37161153D01*
X80964386Y-37227820D01*
X80964386Y-37361153D01*
X80931053Y-37427820D01*
X80864386Y-37494486D01*
X80731053Y-37527820D01*
X80497720Y-37527820D01*
X80364386Y-37494486D01*
X80297720Y-37427820D01*
X80264386Y-37361153D01*
X80264386Y-36827820D02*
X80264386Y-36394486D01*
X80531053Y-36627820D01*
X80531053Y-36527820D01*
X80564386Y-36461153D01*
X80597720Y-36427820D01*
X80664386Y-36394486D01*
X80831053Y-36394486D01*
X80897720Y-36427820D01*
X80931053Y-36461153D01*
X80964386Y-36527820D01*
X80964386Y-36727820D01*
X80931053Y-36794486D01*
X80897720Y-36827820D01*
X80264386Y-35794486D02*
X80264386Y-35927820D01*
X80297720Y-35994486D01*
X80331053Y-36027820D01*
X80431053Y-36094486D01*
X80564386Y-36127820D01*
X80831053Y-36127820D01*
X80897720Y-36094486D01*
X80931053Y-36061153D01*
X80964386Y-35994486D01*
X80964386Y-35861153D01*
X80931053Y-35794486D01*
X80897720Y-35761153D01*
X80831053Y-35727820D01*
X80664386Y-35727820D01*
X80597720Y-35761153D01*
X80564386Y-35794486D01*
X80531053Y-35861153D01*
X80531053Y-35994486D01*
X80564386Y-36061153D01*
X80597720Y-36094486D01*
X80664386Y-36127820D01*
X105697720Y-40894486D02*
X105664386Y-40961153D01*
X105664386Y-41061153D01*
X105697720Y-41161153D01*
X105764386Y-41227820D01*
X105831053Y-41261153D01*
X105964386Y-41294486D01*
X106064386Y-41294486D01*
X106197720Y-41261153D01*
X106264386Y-41227820D01*
X106331053Y-41161153D01*
X106364386Y-41061153D01*
X106364386Y-40994486D01*
X106331053Y-40894486D01*
X106297720Y-40861153D01*
X106064386Y-40861153D01*
X106064386Y-40994486D01*
X106364386Y-40561153D02*
X105664386Y-40561153D01*
X105664386Y-40294486D01*
X105697720Y-40227820D01*
X105731053Y-40194486D01*
X105797720Y-40161153D01*
X105897720Y-40161153D01*
X105964386Y-40194486D01*
X105997720Y-40227820D01*
X106031053Y-40294486D01*
X106031053Y-40561153D01*
X106364386Y-39861153D02*
X105664386Y-39861153D01*
X105664386Y-39394486D02*
X105664386Y-39261153D01*
X105697720Y-39194486D01*
X105764386Y-39127820D01*
X105897720Y-39094486D01*
X106131053Y-39094486D01*
X106264386Y-39127820D01*
X106331053Y-39194486D01*
X106364386Y-39261153D01*
X106364386Y-39394486D01*
X106331053Y-39461153D01*
X106264386Y-39527820D01*
X106131053Y-39561153D01*
X105897720Y-39561153D01*
X105764386Y-39527820D01*
X105697720Y-39461153D01*
X105664386Y-39394486D01*
X106364386Y-38427820D02*
X106364386Y-38827820D01*
X106364386Y-38627820D02*
X105664386Y-38627820D01*
X105764386Y-38694486D01*
X105831053Y-38761153D01*
X105864386Y-38827820D01*
X105731053Y-38161153D02*
X105697720Y-38127820D01*
X105664386Y-38061153D01*
X105664386Y-37894486D01*
X105697720Y-37827820D01*
X105731053Y-37794486D01*
X105797720Y-37761153D01*
X105864386Y-37761153D01*
X105964386Y-37794486D01*
X106364386Y-38194486D01*
X106364386Y-37761153D01*
X105631053Y-36961153D02*
X106531053Y-37561153D01*
X106364386Y-36727820D02*
X105664386Y-36727820D01*
X106164386Y-36494486D01*
X105664386Y-36261153D01*
X106364386Y-36261153D01*
X105664386Y-36027820D02*
X105664386Y-35627820D01*
X106364386Y-35827820D02*
X105664386Y-35827820D01*
X106364386Y-35394486D02*
X105664386Y-35394486D01*
X105664386Y-35227820D01*
X105697720Y-35127820D01*
X105764386Y-35061153D01*
X105831053Y-35027820D01*
X105964386Y-34994486D01*
X106064386Y-34994486D01*
X106197720Y-35027820D01*
X106264386Y-35061153D01*
X106331053Y-35127820D01*
X106364386Y-35227820D01*
X106364386Y-35394486D01*
X106364386Y-34694486D02*
X105664386Y-34694486D01*
X116524386Y-19962820D02*
X115824386Y-19962820D01*
X115824386Y-19796153D01*
X115857720Y-19696153D01*
X115924386Y-19629486D01*
X115991053Y-19596153D01*
X116124386Y-19562820D01*
X116224386Y-19562820D01*
X116357720Y-19596153D01*
X116424386Y-19629486D01*
X116491053Y-19696153D01*
X116524386Y-19796153D01*
X116524386Y-19962820D01*
X116524386Y-18896153D02*
X116524386Y-19296153D01*
X116524386Y-19096153D02*
X115824386Y-19096153D01*
X115924386Y-19162820D01*
X115991053Y-19229486D01*
X116024386Y-19296153D01*
X87917720Y-22029486D02*
X87884386Y-22096153D01*
X87884386Y-22196153D01*
X87917720Y-22296153D01*
X87984386Y-22362820D01*
X88051053Y-22396153D01*
X88184386Y-22429486D01*
X88284386Y-22429486D01*
X88417720Y-22396153D01*
X88484386Y-22362820D01*
X88551053Y-22296153D01*
X88584386Y-22196153D01*
X88584386Y-22129486D01*
X88551053Y-22029486D01*
X88517720Y-21996153D01*
X88284386Y-21996153D01*
X88284386Y-22129486D01*
X88584386Y-21696153D02*
X87884386Y-21696153D01*
X87884386Y-21429486D01*
X87917720Y-21362820D01*
X87951053Y-21329486D01*
X88017720Y-21296153D01*
X88117720Y-21296153D01*
X88184386Y-21329486D01*
X88217720Y-21362820D01*
X88251053Y-21429486D01*
X88251053Y-21696153D01*
X88584386Y-20996153D02*
X87884386Y-20996153D01*
X87884386Y-20529486D02*
X87884386Y-20396153D01*
X87917720Y-20329486D01*
X87984386Y-20262820D01*
X88117720Y-20229486D01*
X88351053Y-20229486D01*
X88484386Y-20262820D01*
X88551053Y-20329486D01*
X88584386Y-20396153D01*
X88584386Y-20529486D01*
X88551053Y-20596153D01*
X88484386Y-20662820D01*
X88351053Y-20696153D01*
X88117720Y-20696153D01*
X87984386Y-20662820D01*
X87917720Y-20596153D01*
X87884386Y-20529486D01*
X87951053Y-19962820D02*
X87917720Y-19929486D01*
X87884386Y-19862820D01*
X87884386Y-19696153D01*
X87917720Y-19629486D01*
X87951053Y-19596153D01*
X88017720Y-19562820D01*
X88084386Y-19562820D01*
X88184386Y-19596153D01*
X88584386Y-19996153D01*
X88584386Y-19562820D01*
X88584386Y-18896153D02*
X88584386Y-19296153D01*
X88584386Y-19096153D02*
X87884386Y-19096153D01*
X87984386Y-19162820D01*
X88051053Y-19229486D01*
X88084386Y-19296153D01*
X120991380Y-40717214D02*
X120991380Y-41193404D01*
X121467571Y-41241023D01*
X121419952Y-41193404D01*
X121372333Y-41098166D01*
X121372333Y-40860071D01*
X121419952Y-40764833D01*
X121467571Y-40717214D01*
X121562809Y-40669595D01*
X121800904Y-40669595D01*
X121896142Y-40717214D01*
X121943761Y-40764833D01*
X121991380Y-40860071D01*
X121991380Y-41098166D01*
X121943761Y-41193404D01*
X121896142Y-41241023D01*
X120991380Y-40383880D02*
X121991380Y-40050547D01*
X120991380Y-39717214D01*
X119064386Y-19962820D02*
X118364386Y-19962820D01*
X118364386Y-19796153D01*
X118397720Y-19696153D01*
X118464386Y-19629486D01*
X118531053Y-19596153D01*
X118664386Y-19562820D01*
X118764386Y-19562820D01*
X118897720Y-19596153D01*
X118964386Y-19629486D01*
X119031053Y-19696153D01*
X119064386Y-19796153D01*
X119064386Y-19962820D01*
X118364386Y-19129486D02*
X118364386Y-19062820D01*
X118397720Y-18996153D01*
X118431053Y-18962820D01*
X118497720Y-18929486D01*
X118631053Y-18896153D01*
X118797720Y-18896153D01*
X118931053Y-18929486D01*
X118997720Y-18962820D01*
X119031053Y-18996153D01*
X119064386Y-19062820D01*
X119064386Y-19129486D01*
X119031053Y-19196153D01*
X118997720Y-19229486D01*
X118931053Y-19262820D01*
X118797720Y-19296153D01*
X118631053Y-19296153D01*
X118497720Y-19262820D01*
X118431053Y-19229486D01*
X118397720Y-19196153D01*
X118364386Y-19129486D01*
X98077720Y-21362820D02*
X98044386Y-21429486D01*
X98044386Y-21529486D01*
X98077720Y-21629486D01*
X98144386Y-21696153D01*
X98211053Y-21729486D01*
X98344386Y-21762820D01*
X98444386Y-21762820D01*
X98577720Y-21729486D01*
X98644386Y-21696153D01*
X98711053Y-21629486D01*
X98744386Y-21529486D01*
X98744386Y-21462820D01*
X98711053Y-21362820D01*
X98677720Y-21329486D01*
X98444386Y-21329486D01*
X98444386Y-21462820D01*
X98744386Y-21029486D02*
X98044386Y-21029486D01*
X98044386Y-20762820D01*
X98077720Y-20696153D01*
X98111053Y-20662820D01*
X98177720Y-20629486D01*
X98277720Y-20629486D01*
X98344386Y-20662820D01*
X98377720Y-20696153D01*
X98411053Y-20762820D01*
X98411053Y-21029486D01*
X98744386Y-20329486D02*
X98044386Y-20329486D01*
X98044386Y-19862820D02*
X98044386Y-19729486D01*
X98077720Y-19662820D01*
X98144386Y-19596153D01*
X98277720Y-19562820D01*
X98511053Y-19562820D01*
X98644386Y-19596153D01*
X98711053Y-19662820D01*
X98744386Y-19729486D01*
X98744386Y-19862820D01*
X98711053Y-19929486D01*
X98644386Y-19996153D01*
X98511053Y-20029486D01*
X98277720Y-20029486D01*
X98144386Y-19996153D01*
X98077720Y-19929486D01*
X98044386Y-19862820D01*
X98044386Y-18929486D02*
X98044386Y-19262820D01*
X98377720Y-19296153D01*
X98344386Y-19262820D01*
X98311053Y-19196153D01*
X98311053Y-19029486D01*
X98344386Y-18962820D01*
X98377720Y-18929486D01*
X98444386Y-18896153D01*
X98611053Y-18896153D01*
X98677720Y-18929486D01*
X98711053Y-18962820D01*
X98744386Y-19029486D01*
X98744386Y-19196153D01*
X98711053Y-19262820D01*
X98677720Y-19296153D01*
X77757720Y-22029486D02*
X77724386Y-22096153D01*
X77724386Y-22196153D01*
X77757720Y-22296153D01*
X77824386Y-22362820D01*
X77891053Y-22396153D01*
X78024386Y-22429486D01*
X78124386Y-22429486D01*
X78257720Y-22396153D01*
X78324386Y-22362820D01*
X78391053Y-22296153D01*
X78424386Y-22196153D01*
X78424386Y-22129486D01*
X78391053Y-22029486D01*
X78357720Y-21996153D01*
X78124386Y-21996153D01*
X78124386Y-22129486D01*
X78424386Y-21696153D02*
X77724386Y-21696153D01*
X77724386Y-21429486D01*
X77757720Y-21362820D01*
X77791053Y-21329486D01*
X77857720Y-21296153D01*
X77957720Y-21296153D01*
X78024386Y-21329486D01*
X78057720Y-21362820D01*
X78091053Y-21429486D01*
X78091053Y-21696153D01*
X78424386Y-20996153D02*
X77724386Y-20996153D01*
X77724386Y-20529486D02*
X77724386Y-20396153D01*
X77757720Y-20329486D01*
X77824386Y-20262820D01*
X77957720Y-20229486D01*
X78191053Y-20229486D01*
X78324386Y-20262820D01*
X78391053Y-20329486D01*
X78424386Y-20396153D01*
X78424386Y-20529486D01*
X78391053Y-20596153D01*
X78324386Y-20662820D01*
X78191053Y-20696153D01*
X77957720Y-20696153D01*
X77824386Y-20662820D01*
X77757720Y-20596153D01*
X77724386Y-20529486D01*
X77791053Y-19962820D02*
X77757720Y-19929486D01*
X77724386Y-19862820D01*
X77724386Y-19696153D01*
X77757720Y-19629486D01*
X77791053Y-19596153D01*
X77857720Y-19562820D01*
X77924386Y-19562820D01*
X78024386Y-19596153D01*
X78424386Y-19996153D01*
X78424386Y-19562820D01*
X77724386Y-19329486D02*
X77724386Y-18896153D01*
X77991053Y-19129486D01*
X77991053Y-19029486D01*
X78024386Y-18962820D01*
X78057720Y-18929486D01*
X78124386Y-18896153D01*
X78291053Y-18896153D01*
X78357720Y-18929486D01*
X78391053Y-18962820D01*
X78424386Y-19029486D01*
X78424386Y-19229486D01*
X78391053Y-19296153D01*
X78357720Y-19329486D01*
X75067720Y-21048534D02*
X75020100Y-21143772D01*
X75020100Y-21286629D01*
X75067720Y-21429486D01*
X75162958Y-21524724D01*
X75258196Y-21572343D01*
X75448672Y-21619962D01*
X75591529Y-21619962D01*
X75782005Y-21572343D01*
X75877243Y-21524724D01*
X75972481Y-21429486D01*
X76020100Y-21286629D01*
X76020100Y-21191391D01*
X75972481Y-21048534D01*
X75924862Y-21000915D01*
X75591529Y-21000915D01*
X75591529Y-21191391D01*
X76020100Y-20572343D02*
X75020100Y-20572343D01*
X76020100Y-20000915D01*
X75020100Y-20000915D01*
X76020100Y-19524724D02*
X75020100Y-19524724D01*
X75020100Y-19286629D01*
X75067720Y-19143772D01*
X75162958Y-19048534D01*
X75258196Y-19000915D01*
X75448672Y-18953296D01*
X75591529Y-18953296D01*
X75782005Y-19000915D01*
X75877243Y-19048534D01*
X75972481Y-19143772D01*
X76020100Y-19286629D01*
X76020100Y-19524724D01*
%TO.C,U2*%
X134008880Y-25463404D02*
X134818404Y-25463404D01*
X134913642Y-25415785D01*
X134961261Y-25368166D01*
X135008880Y-25272928D01*
X135008880Y-25082452D01*
X134961261Y-24987214D01*
X134913642Y-24939595D01*
X134818404Y-24891976D01*
X134008880Y-24891976D01*
X134104119Y-24463404D02*
X134056500Y-24415785D01*
X134008880Y-24320547D01*
X134008880Y-24082452D01*
X134056500Y-23987214D01*
X134104119Y-23939595D01*
X134199357Y-23891976D01*
X134294595Y-23891976D01*
X134437452Y-23939595D01*
X135008880Y-24511023D01*
X135008880Y-23891976D01*
%TD*%
M02*
