%TF.GenerationSoftware,KiCad,Pcbnew,(5.1.12)-1*%
%TF.CreationDate,2021-12-24T09:33:47+00:00*%
%TF.ProjectId,ledDeviceServerEsp32Pio,6c656444-6576-4696-9365-536572766572,rev?*%
%TF.SameCoordinates,Original*%
%TF.FileFunction,Soldermask,Bot*%
%TF.FilePolarity,Negative*%
%FSLAX46Y46*%
G04 Gerber Fmt 4.6, Leading zero omitted, Abs format (unit mm)*
G04 Created by KiCad (PCBNEW (5.1.12)-1) date 2021-12-24 09:33:47*
%MOMM*%
%LPD*%
G01*
G04 APERTURE LIST*
%ADD10C,3.200000*%
%ADD11R,3.000000X3.000000*%
%ADD12C,3.000000*%
%ADD13C,1.524000*%
%ADD14C,2.300000*%
%ADD15R,2.000000X2.300000*%
%ADD16O,2.000000X1.200000*%
G04 APERTURE END LIST*
D10*
%TO.C,H6*%
X87122000Y-16002000D03*
%TD*%
%TO.C,H5*%
X50800000Y-15748000D03*
%TD*%
%TO.C,H4*%
X16256000Y-16256000D03*
%TD*%
%TO.C,H1*%
X14000000Y-82000000D03*
%TD*%
%TO.C,H2*%
X50500000Y-82000000D03*
%TD*%
%TO.C,H3*%
X87000000Y-82000000D03*
%TD*%
D11*
%TO.C,JStrip1*%
X73406000Y-26543000D03*
D12*
X73406000Y-31623000D03*
X73406000Y-36703000D03*
%TD*%
D13*
%TO.C,JAC1*%
X32385000Y-62484000D03*
X22885000Y-62484000D03*
%TD*%
D14*
%TO.C,PS1*%
X20200000Y-25845000D03*
D15*
X25400000Y-55245000D03*
D14*
X30400000Y-55245000D03*
X35600000Y-25845000D03*
%TD*%
D16*
%TO.C,U1*%
X41405680Y-24132720D03*
X41405680Y-26672720D03*
X41405680Y-29212720D03*
X41405680Y-31752720D03*
X41405680Y-34292720D03*
X41405680Y-36832720D03*
X41405680Y-39372720D03*
X41405680Y-41912720D03*
X41405680Y-44452720D03*
X41405680Y-46992720D03*
X41405680Y-49532720D03*
X41405680Y-52072720D03*
X41405680Y-54612720D03*
G36*
G01*
X40705680Y-56552720D02*
X42105680Y-56552720D01*
G75*
G02*
X42405680Y-56852720I0J-300000D01*
G01*
X42405680Y-57452720D01*
G75*
G02*
X42105680Y-57752720I-300000J0D01*
G01*
X40705680Y-57752720D01*
G75*
G02*
X40405680Y-57452720I0J300000D01*
G01*
X40405680Y-56852720D01*
G75*
G02*
X40705680Y-56552720I300000J0D01*
G01*
G37*
X41405680Y-59692720D03*
X41405680Y-62232720D03*
X41405680Y-64772720D03*
X41405680Y-67312720D03*
X41405680Y-69852720D03*
X66802000Y-69850000D03*
X66802000Y-67310000D03*
X66805680Y-64772720D03*
X66805680Y-62232720D03*
X66805680Y-59692720D03*
X66805680Y-57152720D03*
X66805680Y-54612720D03*
X66805680Y-52072720D03*
X66805680Y-49532720D03*
X66805680Y-46992720D03*
X66805680Y-44452720D03*
X66805680Y-41912720D03*
X66805680Y-39372720D03*
X66805680Y-36832720D03*
X66805680Y-34292720D03*
X66805680Y-31752720D03*
X66805680Y-29212720D03*
X66805680Y-26672720D03*
G36*
G01*
X66105680Y-23532720D02*
X67505680Y-23532720D01*
G75*
G02*
X67805680Y-23832720I0J-300000D01*
G01*
X67805680Y-24432720D01*
G75*
G02*
X67505680Y-24732720I-300000J0D01*
G01*
X66105680Y-24732720D01*
G75*
G02*
X65805680Y-24432720I0J300000D01*
G01*
X65805680Y-23832720D01*
G75*
G02*
X66105680Y-23532720I300000J0D01*
G01*
G37*
%TD*%
D13*
%TO.C,U2*%
X73025000Y-52578000D03*
X73025000Y-42418000D03*
X75565000Y-52578000D03*
X75565000Y-42418000D03*
X83185000Y-52578000D03*
X83185000Y-42418000D03*
X85725000Y-52578000D03*
X85725000Y-42418000D03*
X78105000Y-52578000D03*
X78105000Y-42418000D03*
X80645000Y-52578000D03*
X80645000Y-42418000D03*
%TD*%
D11*
%TO.C,JStrip2*%
X75819000Y-69723000D03*
D12*
X75819000Y-64643000D03*
X75819000Y-59563000D03*
%TD*%
M02*
