%TF.GenerationSoftware,KiCad,Pcbnew,(5.1.12)-1*%
%TF.CreationDate,2021-12-25T08:53:35+00:00*%
%TF.ProjectId,ledDeviceServerEsp32Pio,6c656444-6576-4696-9365-536572766572,rev?*%
%TF.SameCoordinates,Original*%
%TF.FileFunction,Copper,L2,Bot*%
%TF.FilePolarity,Positive*%
%FSLAX46Y46*%
G04 Gerber Fmt 4.6, Leading zero omitted, Abs format (unit mm)*
G04 Created by KiCad (PCBNEW (5.1.12)-1) date 2021-12-25 08:53:35*
%MOMM*%
%LPD*%
G01*
G04 APERTURE LIST*
%TA.AperFunction,NonConductor*%
%ADD10C,0.250000*%
%TD*%
%TA.AperFunction,NonConductor*%
%ADD11C,0.125000*%
%TD*%
%TA.AperFunction,NonConductor*%
%ADD12C,0.300000*%
%TD*%
%TA.AperFunction,ComponentPad*%
%ADD13R,3.000000X3.000000*%
%TD*%
%TA.AperFunction,ComponentPad*%
%ADD14C,3.000000*%
%TD*%
%TA.AperFunction,ComponentPad*%
%ADD15C,1.524000*%
%TD*%
%TA.AperFunction,ComponentPad*%
%ADD16C,2.300000*%
%TD*%
%TA.AperFunction,ComponentPad*%
%ADD17R,2.300000X2.000000*%
%TD*%
%TA.AperFunction,ComponentPad*%
%ADD18O,1.200000X2.000000*%
%TD*%
%TA.AperFunction,ViaPad*%
%ADD19C,0.800000*%
%TD*%
%TA.AperFunction,Conductor*%
%ADD20C,2.000000*%
%TD*%
%TA.AperFunction,Conductor*%
%ADD21C,1.000000*%
%TD*%
G04 APERTURE END LIST*
D10*
X143382904Y-26932000D02*
X143478142Y-26884380D01*
X143621000Y-26884380D01*
X143763857Y-26932000D01*
X143859095Y-27027238D01*
X143906714Y-27122476D01*
X143954333Y-27312952D01*
X143954333Y-27455809D01*
X143906714Y-27646285D01*
X143859095Y-27741523D01*
X143763857Y-27836761D01*
X143621000Y-27884380D01*
X143525761Y-27884380D01*
X143382904Y-27836761D01*
X143335285Y-27789142D01*
X143335285Y-27455809D01*
X143525761Y-27455809D01*
X142906714Y-27884380D02*
X142906714Y-26884380D01*
X142335285Y-27884380D01*
X142335285Y-26884380D01*
X141859095Y-27884380D02*
X141859095Y-26884380D01*
X141621000Y-26884380D01*
X141478142Y-26932000D01*
X141382904Y-27027238D01*
X141335285Y-27122476D01*
X141287666Y-27312952D01*
X141287666Y-27455809D01*
X141335285Y-27646285D01*
X141382904Y-27741523D01*
X141478142Y-27836761D01*
X141621000Y-27884380D01*
X141859095Y-27884380D01*
D11*
X76184047Y-44557190D02*
X75874523Y-44557190D01*
X76041190Y-44747666D01*
X75969761Y-44747666D01*
X75922142Y-44771476D01*
X75898333Y-44795285D01*
X75874523Y-44842904D01*
X75874523Y-44961952D01*
X75898333Y-45009571D01*
X75922142Y-45033380D01*
X75969761Y-45057190D01*
X76112619Y-45057190D01*
X76160238Y-45033380D01*
X76184047Y-45009571D01*
X75731666Y-44557190D02*
X75565000Y-45057190D01*
X75398333Y-44557190D01*
X75279285Y-44557190D02*
X74969761Y-44557190D01*
X75136428Y-44747666D01*
X75065000Y-44747666D01*
X75017380Y-44771476D01*
X74993571Y-44795285D01*
X74969761Y-44842904D01*
X74969761Y-44961952D01*
X74993571Y-45009571D01*
X75017380Y-45033380D01*
X75065000Y-45057190D01*
X75207857Y-45057190D01*
X75255476Y-45033380D01*
X75279285Y-45009571D01*
X121761238Y-44684190D02*
X121999333Y-44684190D01*
X122023142Y-44922285D01*
X121999333Y-44898476D01*
X121951714Y-44874666D01*
X121832666Y-44874666D01*
X121785047Y-44898476D01*
X121761238Y-44922285D01*
X121737428Y-44969904D01*
X121737428Y-45088952D01*
X121761238Y-45136571D01*
X121785047Y-45160380D01*
X121832666Y-45184190D01*
X121951714Y-45184190D01*
X121999333Y-45160380D01*
X122023142Y-45136571D01*
X121594571Y-44684190D02*
X121427904Y-45184190D01*
X121261238Y-44684190D01*
X109092952Y-44708000D02*
X109140571Y-44684190D01*
X109212000Y-44684190D01*
X109283428Y-44708000D01*
X109331047Y-44755619D01*
X109354857Y-44803238D01*
X109378666Y-44898476D01*
X109378666Y-44969904D01*
X109354857Y-45065142D01*
X109331047Y-45112761D01*
X109283428Y-45160380D01*
X109212000Y-45184190D01*
X109164380Y-45184190D01*
X109092952Y-45160380D01*
X109069142Y-45136571D01*
X109069142Y-44969904D01*
X109164380Y-44969904D01*
X108854857Y-45184190D02*
X108854857Y-44684190D01*
X108569142Y-45184190D01*
X108569142Y-44684190D01*
X108331047Y-45184190D02*
X108331047Y-44684190D01*
X108212000Y-44684190D01*
X108140571Y-44708000D01*
X108092952Y-44755619D01*
X108069142Y-44803238D01*
X108045333Y-44898476D01*
X108045333Y-44969904D01*
X108069142Y-45065142D01*
X108092952Y-45112761D01*
X108140571Y-45160380D01*
X108212000Y-45184190D01*
X108331047Y-45184190D01*
X75818952Y-14863000D02*
X75866571Y-14839190D01*
X75938000Y-14839190D01*
X76009428Y-14863000D01*
X76057047Y-14910619D01*
X76080857Y-14958238D01*
X76104666Y-15053476D01*
X76104666Y-15124904D01*
X76080857Y-15220142D01*
X76057047Y-15267761D01*
X76009428Y-15315380D01*
X75938000Y-15339190D01*
X75890380Y-15339190D01*
X75818952Y-15315380D01*
X75795142Y-15291571D01*
X75795142Y-15124904D01*
X75890380Y-15124904D01*
X75580857Y-15339190D02*
X75580857Y-14839190D01*
X75295142Y-15339190D01*
X75295142Y-14839190D01*
X75057047Y-15339190D02*
X75057047Y-14839190D01*
X74938000Y-14839190D01*
X74866571Y-14863000D01*
X74818952Y-14910619D01*
X74795142Y-14958238D01*
X74771333Y-15053476D01*
X74771333Y-15124904D01*
X74795142Y-15220142D01*
X74818952Y-15267761D01*
X74866571Y-15315380D01*
X74938000Y-15339190D01*
X75057047Y-15339190D01*
D12*
X65531952Y-37893761D02*
X66484333Y-37893761D01*
X66579571Y-38846142D01*
X66484333Y-38750904D01*
X66293857Y-38655666D01*
X65817666Y-38655666D01*
X65627190Y-38750904D01*
X65531952Y-38846142D01*
X65436714Y-39036619D01*
X65436714Y-39512809D01*
X65531952Y-39703285D01*
X65627190Y-39798523D01*
X65817666Y-39893761D01*
X66293857Y-39893761D01*
X66484333Y-39798523D01*
X66579571Y-39703285D01*
X64865285Y-37893761D02*
X64198619Y-39893761D01*
X63531952Y-37893761D01*
X65531809Y-28337000D02*
X65722285Y-28241761D01*
X66008000Y-28241761D01*
X66293714Y-28337000D01*
X66484190Y-28527476D01*
X66579428Y-28717952D01*
X66674666Y-29098904D01*
X66674666Y-29384619D01*
X66579428Y-29765571D01*
X66484190Y-29956047D01*
X66293714Y-30146523D01*
X66008000Y-30241761D01*
X65817523Y-30241761D01*
X65531809Y-30146523D01*
X65436571Y-30051285D01*
X65436571Y-29384619D01*
X65817523Y-29384619D01*
X64579428Y-30241761D02*
X64579428Y-28241761D01*
X63436571Y-30241761D01*
X63436571Y-28241761D01*
X62484190Y-30241761D02*
X62484190Y-28241761D01*
X62008000Y-28241761D01*
X61722285Y-28337000D01*
X61531809Y-28527476D01*
X61436571Y-28717952D01*
X61341333Y-29098904D01*
X61341333Y-29384619D01*
X61436571Y-29765571D01*
X61531809Y-29956047D01*
X61722285Y-30146523D01*
X62008000Y-30241761D01*
X62484190Y-30241761D01*
X21129809Y-33194666D02*
X22082190Y-33194666D01*
X20939333Y-32623238D02*
X21606000Y-34623238D01*
X22272666Y-32623238D01*
X24082190Y-32813714D02*
X23986952Y-32718476D01*
X23701238Y-32623238D01*
X23510761Y-32623238D01*
X23225047Y-32718476D01*
X23034571Y-32908952D01*
X22939333Y-33099428D01*
X22844095Y-33480380D01*
X22844095Y-33766095D01*
X22939333Y-34147047D01*
X23034571Y-34337523D01*
X23225047Y-34528000D01*
X23510761Y-34623238D01*
X23701238Y-34623238D01*
X23986952Y-34528000D01*
X24082190Y-34432761D01*
D13*
%TO.P,JStrip1,1*%
%TO.N,/DATA1*%
X148844000Y-22225000D03*
D14*
%TO.P,JStrip1,2*%
%TO.N,/CLOCK1*%
X153924000Y-22225000D03*
%TO.P,JStrip1,3*%
%TO.N,GND*%
X159004000Y-22225000D03*
%TD*%
D15*
%TO.P,JAC1,2*%
%TO.N,Net-(JAC1-Pad2)*%
X26225500Y-28981000D03*
%TO.P,JAC1,1*%
%TO.N,Net-(JAC1-Pad1)*%
X26225500Y-38481000D03*
%TD*%
D14*
%TO.P,JStrip2,3*%
%TO.N,GND*%
X159258000Y-34417000D03*
%TO.P,JStrip2,2*%
%TO.N,/CLOCK2*%
X154178000Y-34417000D03*
D13*
%TO.P,JStrip2,1*%
%TO.N,/DATA2*%
X149098000Y-34417000D03*
%TD*%
D16*
%TO.P,PS1,3*%
%TO.N,GND*%
X64960000Y-26169000D03*
D17*
%TO.P,PS1,1*%
%TO.N,Net-(JAC1-Pad2)*%
X35560000Y-31369000D03*
D16*
%TO.P,PS1,2*%
%TO.N,Net-(JAC1-Pad1)*%
X35560000Y-36369000D03*
%TO.P,PS1,4*%
%TO.N,Net-(PS1-Pad4)*%
X64960000Y-41569000D03*
%TD*%
D18*
%TO.P,U1,1*%
%TO.N,Net-(U1-Pad1)*%
X75567720Y-42795320D03*
%TO.P,U1,2*%
%TO.N,N/C*%
X78107720Y-42795320D03*
%TO.P,U1,3*%
X80647720Y-42795320D03*
%TO.P,U1,4*%
X83187720Y-42795320D03*
%TO.P,U1,5*%
X85727720Y-42795320D03*
%TO.P,U1,6*%
X88267720Y-42795320D03*
%TO.P,U1,7*%
X90807720Y-42795320D03*
%TO.P,U1,8*%
X93347720Y-42795320D03*
%TO.P,U1,9*%
X95887720Y-42795320D03*
%TO.P,U1,10*%
X98427720Y-42795320D03*
%TO.P,U1,11*%
X100967720Y-42795320D03*
%TO.P,U1,12*%
X103507720Y-42795320D03*
%TO.P,U1,13*%
X106047720Y-42795320D03*
%TO.P,U1,14*%
%TO.N,GND*%
%TA.AperFunction,ComponentPad*%
G36*
G01*
X107987720Y-43495320D02*
X107987720Y-42095320D01*
G75*
G02*
X108287720Y-41795320I300000J0D01*
G01*
X108887720Y-41795320D01*
G75*
G02*
X109187720Y-42095320I0J-300000D01*
G01*
X109187720Y-43495320D01*
G75*
G02*
X108887720Y-43795320I-300000J0D01*
G01*
X108287720Y-43795320D01*
G75*
G02*
X107987720Y-43495320I0J300000D01*
G01*
G37*
%TD.AperFunction*%
%TO.P,U1,15*%
%TO.N,N/C*%
X111127720Y-42795320D03*
%TO.P,U1,16*%
X113667720Y-42795320D03*
%TO.P,U1,17*%
X116207720Y-42795320D03*
%TO.P,U1,18*%
X118747720Y-42795320D03*
%TO.P,U1,19*%
%TO.N,Net-(PS1-Pad4)*%
X121287720Y-42795320D03*
%TO.P,U1,20*%
%TO.N,N/C*%
X121285000Y-17399000D03*
%TO.P,U1,21*%
X118745000Y-17399000D03*
%TO.P,U1,22*%
X116207720Y-17395320D03*
%TO.P,U1,23*%
X113667720Y-17395320D03*
%TO.P,U1,24*%
X111127720Y-17395320D03*
%TO.P,U1,25*%
X108587720Y-17395320D03*
%TO.P,U1,26*%
X106047720Y-17395320D03*
%TO.P,U1,27*%
%TO.N,Net-(U1-Pad27)*%
X103507720Y-17395320D03*
%TO.P,U1,28*%
%TO.N,Net-(U1-Pad28)*%
X100967720Y-17395320D03*
%TO.P,U1,29*%
%TO.N,N/C*%
X98427720Y-17395320D03*
%TO.P,U1,30*%
%TO.N,Net-(U1-Pad30)*%
X95887720Y-17395320D03*
%TO.P,U1,31*%
%TO.N,Net-(U1-Pad31)*%
X93347720Y-17395320D03*
%TO.P,U1,32*%
%TO.N,GND*%
X90807720Y-17395320D03*
%TO.P,U1,33*%
%TO.N,N/C*%
X88267720Y-17395320D03*
%TO.P,U1,34*%
X85727720Y-17395320D03*
%TO.P,U1,35*%
X83187720Y-17395320D03*
%TO.P,U1,36*%
X80647720Y-17395320D03*
%TO.P,U1,37*%
X78107720Y-17395320D03*
%TO.P,U1,38*%
%TA.AperFunction,ComponentPad*%
G36*
G01*
X74967720Y-18095320D02*
X74967720Y-16695320D01*
G75*
G02*
X75267720Y-16395320I300000J0D01*
G01*
X75867720Y-16395320D01*
G75*
G02*
X76167720Y-16695320I0J-300000D01*
G01*
X76167720Y-18095320D01*
G75*
G02*
X75867720Y-18395320I-300000J0D01*
G01*
X75267720Y-18395320D01*
G75*
G02*
X74967720Y-18095320I0J300000D01*
G01*
G37*
%TD.AperFunction*%
%TD*%
D15*
%TO.P,U2,11*%
%TO.N,/CLOCK2*%
X139636500Y-32321500D03*
%TO.P,U2,10*%
%TO.N,Net-(U1-Pad31)*%
X129476500Y-32321500D03*
%TO.P,U2,9*%
%TO.N,/DATA2*%
X139636500Y-29781500D03*
%TO.P,U2,8*%
%TO.N,Net-(U1-Pad30)*%
X129476500Y-29781500D03*
%TO.P,U2,7*%
%TO.N,/CLOCK1*%
X139636500Y-22161500D03*
%TO.P,U2,6*%
%TO.N,Net-(U1-Pad28)*%
X129476500Y-22161500D03*
%TO.P,U2,5*%
%TO.N,/DATA1*%
X139636500Y-19621500D03*
%TO.P,U2,4*%
%TO.N,Net-(U1-Pad27)*%
X129476500Y-19621500D03*
%TO.P,U2,3*%
%TO.N,GND*%
X139636500Y-27241500D03*
X129476500Y-27241500D03*
%TO.P,U2,2*%
%TO.N,Net-(PS1-Pad4)*%
X139636500Y-24701500D03*
%TO.P,U2,1*%
%TO.N,Net-(U1-Pad1)*%
X129476500Y-24701500D03*
%TD*%
D19*
%TO.N,GND*%
X76835000Y-26162000D03*
X84582000Y-26162000D03*
X94488000Y-27813000D03*
%TO.N,Net-(PS1-Pad4)*%
X72263000Y-41529000D03*
%TO.N,Net-(U1-Pad30)*%
X95885000Y-20447000D03*
%TO.N,Net-(U1-Pad31)*%
X93345000Y-20447000D03*
%TD*%
D20*
%TO.N,Net-(JAC1-Pad1)*%
X33448000Y-38481000D02*
X35560000Y-36369000D01*
X26225500Y-38481000D02*
X33448000Y-38481000D01*
%TO.N,Net-(JAC1-Pad2)*%
X33172000Y-28981000D02*
X35560000Y-31369000D01*
X26225500Y-28981000D02*
X33172000Y-28981000D01*
%TO.N,GND*%
X76828000Y-26169000D02*
X76835000Y-26162000D01*
X64960000Y-26169000D02*
X76828000Y-26169000D01*
X90807720Y-19936280D02*
X90807720Y-17395320D01*
X84582000Y-26162000D02*
X90807720Y-19936280D01*
X128460500Y-27241500D02*
X129476500Y-27241500D01*
X95059500Y-27241500D02*
X128460500Y-27241500D01*
X94488000Y-27813000D02*
X95059500Y-27241500D01*
D21*
X108587720Y-42795320D02*
X108587720Y-40515720D01*
X108587720Y-40515720D02*
X99695000Y-31623000D01*
X99695000Y-31623000D02*
X95885000Y-31623000D01*
X94488000Y-30226000D02*
X94488000Y-27813000D01*
X95885000Y-31623000D02*
X94488000Y-30226000D01*
D20*
%TO.N,Net-(PS1-Pad4)*%
X138558870Y-24701500D02*
X132588000Y-30672370D01*
X139636500Y-24701500D02*
X138558870Y-24701500D01*
X132588000Y-30672370D02*
X132588000Y-33655000D01*
X123447680Y-42795320D02*
X121287720Y-42795320D01*
X132588000Y-33655000D02*
X123447680Y-42795320D01*
X65000000Y-41529000D02*
X64960000Y-41569000D01*
X72263000Y-41529000D02*
X65000000Y-41529000D01*
D21*
%TO.N,/DATA1*%
X146240500Y-19621500D02*
X148844000Y-22225000D01*
X139636500Y-19621500D02*
X146240500Y-19621500D01*
%TO.N,/CLOCK1*%
X139636500Y-22161500D02*
X143827500Y-22161500D01*
X143827500Y-22161500D02*
X146685000Y-25019000D01*
X151130000Y-25019000D02*
X153924000Y-22225000D01*
X146685000Y-25019000D02*
X151130000Y-25019000D01*
%TO.N,/DATA2*%
X139636500Y-29781500D02*
X141478000Y-31623000D01*
X146304000Y-31623000D02*
X149098000Y-34417000D01*
X141478000Y-31623000D02*
X146304000Y-31623000D01*
%TO.N,/CLOCK2*%
X154178000Y-34417000D02*
X151511000Y-37084000D01*
X144399000Y-37084000D02*
X139636500Y-32321500D01*
X151511000Y-37084000D02*
X144399000Y-37084000D01*
D20*
%TO.N,Net-(U1-Pad1)*%
X129476500Y-24701500D02*
X91376500Y-24701500D01*
X75567720Y-40510280D02*
X75567720Y-42795320D01*
X91376500Y-24701500D02*
X75567720Y-40510280D01*
D21*
%TO.N,Net-(U1-Pad27)*%
X129476500Y-19621500D02*
X105346500Y-19621500D01*
X103507720Y-17782720D02*
X103507720Y-17395320D01*
X105346500Y-19621500D02*
X103507720Y-17782720D01*
%TO.N,Net-(U1-Pad28)*%
X129476500Y-22161500D02*
X103441500Y-22161500D01*
X100967720Y-19687720D02*
X100967720Y-17395320D01*
X103441500Y-22161500D02*
X100967720Y-19687720D01*
%TO.N,Net-(U1-Pad30)*%
X95885000Y-17398040D02*
X95887720Y-17395320D01*
X95885000Y-20447000D02*
X95885000Y-17398040D01*
%TO.N,Net-(U1-Pad31)*%
X93345000Y-17398040D02*
X93347720Y-17395320D01*
X93345000Y-20447000D02*
X93345000Y-17398040D01*
%TD*%
M02*
