%TF.GenerationSoftware,KiCad,Pcbnew,(5.1.12)-1*%
%TF.CreationDate,2021-12-24T09:33:47+00:00*%
%TF.ProjectId,ledDeviceServerEsp32Pio,6c656444-6576-4696-9365-536572766572,rev?*%
%TF.SameCoordinates,Original*%
%TF.FileFunction,Other,User*%
%FSLAX46Y46*%
G04 Gerber Fmt 4.6, Leading zero omitted, Abs format (unit mm)*
G04 Created by KiCad (PCBNEW (5.1.12)-1) date 2021-12-24 09:33:47*
%MOMM*%
%LPD*%
G01*
G04 APERTURE LIST*
%ADD10C,0.050000*%
%ADD11C,0.120000*%
G04 APERTURE END LIST*
D10*
%TO.C,H6*%
X90572000Y-16002000D02*
G75*
G03*
X90572000Y-16002000I-3450000J0D01*
G01*
%TO.C,H5*%
X54250000Y-15748000D02*
G75*
G03*
X54250000Y-15748000I-3450000J0D01*
G01*
%TO.C,H4*%
X19706000Y-16256000D02*
G75*
G03*
X19706000Y-16256000I-3450000J0D01*
G01*
%TO.C,H1*%
X17450000Y-82000000D02*
G75*
G03*
X17450000Y-82000000I-3450000J0D01*
G01*
%TO.C,H2*%
X53950000Y-82000000D02*
G75*
G03*
X53950000Y-82000000I-3450000J0D01*
G01*
%TO.C,H3*%
X90450000Y-82000000D02*
G75*
G03*
X90450000Y-82000000I-3450000J0D01*
G01*
%TO.C,JStrip1*%
X69406000Y-39423000D02*
X69406000Y-23823000D01*
X69406000Y-39423000D02*
X77406000Y-39423000D01*
X77406000Y-23823000D02*
X69406000Y-23823000D01*
X77406000Y-23823000D02*
X77406000Y-39423000D01*
D11*
%TO.C,JAC1*%
X37819000Y-58652000D02*
X18019000Y-58652000D01*
X37819000Y-73152000D02*
X18019000Y-73152000D01*
X37819000Y-58652000D02*
X37819000Y-73152000D01*
X18019000Y-73152000D02*
X18019000Y-58652000D01*
D10*
%TO.C,PS1*%
X17650000Y-57795000D02*
X38150000Y-57795000D01*
X17650000Y-23295000D02*
X17650000Y-57795000D01*
X38150000Y-23295000D02*
X17650000Y-23295000D01*
X38150000Y-57795000D02*
X38150000Y-23295000D01*
%TO.C,U1*%
X68055680Y-70702720D02*
X40155680Y-70702720D01*
X40155680Y-23282720D02*
X68055680Y-23282720D01*
X68055680Y-23282720D02*
X68055680Y-70702720D01*
X40155680Y-70702720D02*
X40155680Y-23282720D01*
D11*
%TO.C,U2*%
X71895000Y-53848000D02*
X71895000Y-41148000D01*
X86995000Y-53848000D02*
X86995000Y-41148000D01*
X86995000Y-41148000D02*
X71895000Y-41148000D01*
X86995000Y-53848000D02*
X71895000Y-53848000D01*
D10*
%TO.C,JStrip2*%
X79819000Y-56843000D02*
X79819000Y-72443000D01*
X79819000Y-56843000D02*
X71819000Y-56843000D01*
X71819000Y-72443000D02*
X79819000Y-72443000D01*
X71819000Y-72443000D02*
X71819000Y-56843000D01*
%TD*%
M02*
