%TF.GenerationSoftware,KiCad,Pcbnew,(5.1.10)-1*%
%TF.CreationDate,2021-11-22T08:58:25+00:00*%
%TF.ProjectId,ledDeviceServerEsp32Pio,6c656444-6576-4696-9365-536572766572,rev?*%
%TF.SameCoordinates,Original*%
%TF.FileFunction,Legend,Top*%
%TF.FilePolarity,Positive*%
%FSLAX46Y46*%
G04 Gerber Fmt 4.6, Leading zero omitted, Abs format (unit mm)*
G04 Created by KiCad (PCBNEW (5.1.10)-1) date 2021-11-22 08:58:25*
%MOMM*%
%LPD*%
G01*
G04 APERTURE LIST*
%ADD10C,0.300000*%
%ADD11C,0.120000*%
%ADD12C,0.150000*%
G04 APERTURE END LIST*
D10*
X80554190Y-28082761D02*
X80554190Y-26082761D01*
X81030380Y-26082761D01*
X81316095Y-26178000D01*
X81506571Y-26368476D01*
X81601809Y-26558952D01*
X81697047Y-26939904D01*
X81697047Y-27225619D01*
X81601809Y-27606571D01*
X81506571Y-27797047D01*
X81316095Y-27987523D01*
X81030380Y-28082761D01*
X80554190Y-28082761D01*
X82554190Y-28082761D02*
X82554190Y-26082761D01*
X79157047Y-32972285D02*
X79061809Y-33067523D01*
X78776095Y-33162761D01*
X78585619Y-33162761D01*
X78299904Y-33067523D01*
X78109428Y-32877047D01*
X78014190Y-32686571D01*
X77918952Y-32305619D01*
X77918952Y-32019904D01*
X78014190Y-31638952D01*
X78109428Y-31448476D01*
X78299904Y-31258000D01*
X78585619Y-31162761D01*
X78776095Y-31162761D01*
X79061809Y-31258000D01*
X79157047Y-31353238D01*
X80966571Y-33162761D02*
X80014190Y-33162761D01*
X80014190Y-31162761D01*
X81633238Y-33162761D02*
X81633238Y-31162761D01*
X82776095Y-33162761D02*
X81918952Y-32019904D01*
X82776095Y-31162761D02*
X81633238Y-32305619D01*
X79061809Y-36338000D02*
X78871333Y-36242761D01*
X78585619Y-36242761D01*
X78299904Y-36338000D01*
X78109428Y-36528476D01*
X78014190Y-36718952D01*
X77918952Y-37099904D01*
X77918952Y-37385619D01*
X78014190Y-37766571D01*
X78109428Y-37957047D01*
X78299904Y-38147523D01*
X78585619Y-38242761D01*
X78776095Y-38242761D01*
X79061809Y-38147523D01*
X79157047Y-38052285D01*
X79157047Y-37385619D01*
X78776095Y-37385619D01*
X80014190Y-38242761D02*
X80014190Y-36242761D01*
X81157047Y-38242761D01*
X81157047Y-36242761D01*
X82109428Y-38242761D02*
X82109428Y-36242761D01*
X82585619Y-36242761D01*
X82871333Y-36338000D01*
X83061809Y-36528476D01*
X83157047Y-36718952D01*
X83252285Y-37099904D01*
X83252285Y-37385619D01*
X83157047Y-37766571D01*
X83061809Y-37957047D01*
X82871333Y-38147523D01*
X82585619Y-38242761D01*
X82109428Y-38242761D01*
X82713190Y-61102761D02*
X82713190Y-59102761D01*
X83189380Y-59102761D01*
X83475095Y-59198000D01*
X83665571Y-59388476D01*
X83760809Y-59578952D01*
X83856047Y-59959904D01*
X83856047Y-60245619D01*
X83760809Y-60626571D01*
X83665571Y-60817047D01*
X83475095Y-61007523D01*
X83189380Y-61102761D01*
X82713190Y-61102761D01*
X84713190Y-61102761D02*
X84713190Y-59102761D01*
X83760809Y-68850000D02*
X83570333Y-68754761D01*
X83284619Y-68754761D01*
X82998904Y-68850000D01*
X82808428Y-69040476D01*
X82713190Y-69230952D01*
X82617952Y-69611904D01*
X82617952Y-69897619D01*
X82713190Y-70278571D01*
X82808428Y-70469047D01*
X82998904Y-70659523D01*
X83284619Y-70754761D01*
X83475095Y-70754761D01*
X83760809Y-70659523D01*
X83856047Y-70564285D01*
X83856047Y-69897619D01*
X83475095Y-69897619D01*
X84713190Y-70754761D02*
X84713190Y-68754761D01*
X85856047Y-70754761D01*
X85856047Y-68754761D01*
X86808428Y-70754761D02*
X86808428Y-68754761D01*
X87284619Y-68754761D01*
X87570333Y-68850000D01*
X87760809Y-69040476D01*
X87856047Y-69230952D01*
X87951285Y-69611904D01*
X87951285Y-69897619D01*
X87856047Y-70278571D01*
X87760809Y-70469047D01*
X87570333Y-70659523D01*
X87284619Y-70754761D01*
X86808428Y-70754761D01*
X83602047Y-65992285D02*
X83506809Y-66087523D01*
X83221095Y-66182761D01*
X83030619Y-66182761D01*
X82744904Y-66087523D01*
X82554428Y-65897047D01*
X82459190Y-65706571D01*
X82363952Y-65325619D01*
X82363952Y-65039904D01*
X82459190Y-64658952D01*
X82554428Y-64468476D01*
X82744904Y-64278000D01*
X83030619Y-64182761D01*
X83221095Y-64182761D01*
X83506809Y-64278000D01*
X83602047Y-64373238D01*
X85411571Y-66182761D02*
X84459190Y-66182761D01*
X84459190Y-64182761D01*
X86078238Y-66182761D02*
X86078238Y-64182761D01*
X87221095Y-66182761D02*
X86363952Y-65039904D01*
X87221095Y-64182761D02*
X86078238Y-65325619D01*
D11*
%TO.C,JStrip1*%
X69596000Y-24003000D02*
X69596000Y-39243000D01*
X77216000Y-24003000D02*
X77216000Y-39243000D01*
X70866000Y-24003000D02*
X70866000Y-39243000D01*
X69596000Y-39243000D02*
X77216000Y-39243000D01*
X69596000Y-24003000D02*
X77216000Y-24003000D01*
%TO.C,JAC1*%
X37719000Y-58750200D02*
X18119000Y-58750200D01*
X18119000Y-58750200D02*
X18119000Y-73052000D01*
X18119000Y-73052000D02*
X37719000Y-73052000D01*
X37719000Y-70967600D02*
X37719000Y-58750200D01*
%TO.C,PS1*%
X24400000Y-58035000D02*
X26410000Y-58035000D01*
X17800000Y-23445000D02*
X17800000Y-57645000D01*
X38000000Y-23445000D02*
X17800000Y-23445000D01*
X38000000Y-57645000D02*
X38000000Y-23445000D01*
X17800000Y-57645000D02*
X38000000Y-57645000D01*
%TO.C,U1*%
X39905680Y-70952720D02*
X68305679Y-70952720D01*
X68305679Y-70952720D02*
X68305680Y-23032720D01*
X68305680Y-23032720D02*
X39905681Y-23032720D01*
X39905681Y-23032720D02*
X39905680Y-70952720D01*
X45135800Y-23012400D02*
X45135800Y-17119600D01*
X45135800Y-17119600D02*
X63119000Y-17119600D01*
X63119000Y-17119600D02*
X63119000Y-23012400D01*
%TO.C,U2*%
X71755000Y-53975000D02*
X87122000Y-53975000D01*
X71755000Y-41021000D02*
X71755000Y-53975000D01*
X87122000Y-41021000D02*
X71755000Y-41021000D01*
X87122000Y-53975000D02*
X87122000Y-41021000D01*
%TO.C,JStrip2*%
X79629000Y-72263000D02*
X79629000Y-57023000D01*
X72009000Y-72263000D02*
X72009000Y-57023000D01*
X78359000Y-72263000D02*
X78359000Y-57023000D01*
X79629000Y-57023000D02*
X72009000Y-57023000D01*
X79629000Y-72263000D02*
X72009000Y-72263000D01*
%TO.C,H1*%
D12*
X10160095Y-79374380D02*
X10160095Y-78374380D01*
X10160095Y-78850571D02*
X10731523Y-78850571D01*
X10731523Y-79374380D02*
X10731523Y-78374380D01*
X11731523Y-79374380D02*
X11160095Y-79374380D01*
X11445809Y-79374380D02*
X11445809Y-78374380D01*
X11350571Y-78517238D01*
X11255333Y-78612476D01*
X11160095Y-78660095D01*
%TO.C,H2*%
X46442095Y-79120380D02*
X46442095Y-78120380D01*
X46442095Y-78596571D02*
X47013523Y-78596571D01*
X47013523Y-79120380D02*
X47013523Y-78120380D01*
X47442095Y-78215619D02*
X47489714Y-78168000D01*
X47584952Y-78120380D01*
X47823047Y-78120380D01*
X47918285Y-78168000D01*
X47965904Y-78215619D01*
X48013523Y-78310857D01*
X48013523Y-78406095D01*
X47965904Y-78548952D01*
X47394476Y-79120380D01*
X48013523Y-79120380D01*
%TO.C,H3*%
X82724095Y-79374380D02*
X82724095Y-78374380D01*
X82724095Y-78850571D02*
X83295523Y-78850571D01*
X83295523Y-79374380D02*
X83295523Y-78374380D01*
X83676476Y-78374380D02*
X84295523Y-78374380D01*
X83962190Y-78755333D01*
X84105047Y-78755333D01*
X84200285Y-78802952D01*
X84247904Y-78850571D01*
X84295523Y-78945809D01*
X84295523Y-79183904D01*
X84247904Y-79279142D01*
X84200285Y-79326761D01*
X84105047Y-79374380D01*
X83819333Y-79374380D01*
X83724095Y-79326761D01*
X83676476Y-79279142D01*
%TO.C,JStrip1*%
X70191380Y-33718238D02*
X70905666Y-33718238D01*
X71048523Y-33765857D01*
X71143761Y-33861095D01*
X71191380Y-34003952D01*
X71191380Y-34099190D01*
X71143761Y-33289666D02*
X71191380Y-33146809D01*
X71191380Y-32908714D01*
X71143761Y-32813476D01*
X71096142Y-32765857D01*
X71000904Y-32718238D01*
X70905666Y-32718238D01*
X70810428Y-32765857D01*
X70762809Y-32813476D01*
X70715190Y-32908714D01*
X70667571Y-33099190D01*
X70619952Y-33194428D01*
X70572333Y-33242047D01*
X70477095Y-33289666D01*
X70381857Y-33289666D01*
X70286619Y-33242047D01*
X70239000Y-33194428D01*
X70191380Y-33099190D01*
X70191380Y-32861095D01*
X70239000Y-32718238D01*
X70524714Y-32432523D02*
X70524714Y-32051571D01*
X70191380Y-32289666D02*
X71048523Y-32289666D01*
X71143761Y-32242047D01*
X71191380Y-32146809D01*
X71191380Y-32051571D01*
X71191380Y-31718238D02*
X70524714Y-31718238D01*
X70715190Y-31718238D02*
X70619952Y-31670619D01*
X70572333Y-31623000D01*
X70524714Y-31527761D01*
X70524714Y-31432523D01*
X71191380Y-31099190D02*
X70524714Y-31099190D01*
X70191380Y-31099190D02*
X70239000Y-31146809D01*
X70286619Y-31099190D01*
X70239000Y-31051571D01*
X70191380Y-31099190D01*
X70286619Y-31099190D01*
X70524714Y-30623000D02*
X71524714Y-30623000D01*
X70572333Y-30623000D02*
X70524714Y-30527761D01*
X70524714Y-30337285D01*
X70572333Y-30242047D01*
X70619952Y-30194428D01*
X70715190Y-30146809D01*
X71000904Y-30146809D01*
X71096142Y-30194428D01*
X71143761Y-30242047D01*
X71191380Y-30337285D01*
X71191380Y-30527761D01*
X71143761Y-30623000D01*
X71191380Y-29194428D02*
X71191380Y-29765857D01*
X71191380Y-29480142D02*
X70191380Y-29480142D01*
X70334238Y-29575380D01*
X70429476Y-29670619D01*
X70477095Y-29765857D01*
%TO.C,JAC1*%
X26551095Y-67143380D02*
X26551095Y-67857666D01*
X26503476Y-68000523D01*
X26408238Y-68095761D01*
X26265380Y-68143380D01*
X26170142Y-68143380D01*
X26979666Y-67857666D02*
X27455857Y-67857666D01*
X26884428Y-68143380D02*
X27217761Y-67143380D01*
X27551095Y-68143380D01*
X28455857Y-68048142D02*
X28408238Y-68095761D01*
X28265380Y-68143380D01*
X28170142Y-68143380D01*
X28027285Y-68095761D01*
X27932047Y-68000523D01*
X27884428Y-67905285D01*
X27836809Y-67714809D01*
X27836809Y-67571952D01*
X27884428Y-67381476D01*
X27932047Y-67286238D01*
X28027285Y-67191000D01*
X28170142Y-67143380D01*
X28265380Y-67143380D01*
X28408238Y-67191000D01*
X28455857Y-67238619D01*
X29408238Y-68143380D02*
X28836809Y-68143380D01*
X29122523Y-68143380D02*
X29122523Y-67143380D01*
X29027285Y-67286238D01*
X28932047Y-67381476D01*
X28836809Y-67429095D01*
X32837380Y-65311976D02*
X32837380Y-65883404D01*
X32837380Y-65597690D02*
X31837380Y-65597690D01*
X31980238Y-65692928D01*
X32075476Y-65788166D01*
X32123095Y-65883404D01*
X22534619Y-65883404D02*
X22487000Y-65835785D01*
X22439380Y-65740547D01*
X22439380Y-65502452D01*
X22487000Y-65407214D01*
X22534619Y-65359595D01*
X22629857Y-65311976D01*
X22725095Y-65311976D01*
X22867952Y-65359595D01*
X23439380Y-65931023D01*
X23439380Y-65311976D01*
%TO.C,PS1*%
X26725714Y-43378380D02*
X26725714Y-42378380D01*
X27106666Y-42378380D01*
X27201904Y-42426000D01*
X27249523Y-42473619D01*
X27297142Y-42568857D01*
X27297142Y-42711714D01*
X27249523Y-42806952D01*
X27201904Y-42854571D01*
X27106666Y-42902190D01*
X26725714Y-42902190D01*
X27678095Y-43330761D02*
X27820952Y-43378380D01*
X28059047Y-43378380D01*
X28154285Y-43330761D01*
X28201904Y-43283142D01*
X28249523Y-43187904D01*
X28249523Y-43092666D01*
X28201904Y-42997428D01*
X28154285Y-42949809D01*
X28059047Y-42902190D01*
X27868571Y-42854571D01*
X27773333Y-42806952D01*
X27725714Y-42759333D01*
X27678095Y-42664095D01*
X27678095Y-42568857D01*
X27725714Y-42473619D01*
X27773333Y-42426000D01*
X27868571Y-42378380D01*
X28106666Y-42378380D01*
X28249523Y-42426000D01*
X29201904Y-43378380D02*
X28630476Y-43378380D01*
X28916190Y-43378380D02*
X28916190Y-42378380D01*
X28820952Y-42521238D01*
X28725714Y-42616476D01*
X28630476Y-42664095D01*
%TO.C,U1*%
X53343775Y-21485100D02*
X53343775Y-22294624D01*
X53391394Y-22389862D01*
X53439013Y-22437481D01*
X53534251Y-22485100D01*
X53724727Y-22485100D01*
X53819965Y-22437481D01*
X53867584Y-22389862D01*
X53915203Y-22294624D01*
X53915203Y-21485100D01*
X54915203Y-22485100D02*
X54343775Y-22485100D01*
X54629489Y-22485100D02*
X54629489Y-21485100D01*
X54534251Y-21627958D01*
X54439013Y-21723196D01*
X54343775Y-21770815D01*
X54034251Y-53857958D02*
X54034251Y-53524624D01*
X54558060Y-53381767D02*
X54558060Y-53857958D01*
X53558060Y-53857958D01*
X53558060Y-53381767D01*
X54510441Y-53000815D02*
X54558060Y-52857958D01*
X54558060Y-52619862D01*
X54510441Y-52524624D01*
X54462822Y-52477005D01*
X54367584Y-52429386D01*
X54272346Y-52429386D01*
X54177108Y-52477005D01*
X54129489Y-52524624D01*
X54081870Y-52619862D01*
X54034251Y-52810339D01*
X53986632Y-52905577D01*
X53939013Y-52953196D01*
X53843775Y-53000815D01*
X53748537Y-53000815D01*
X53653299Y-52953196D01*
X53605680Y-52905577D01*
X53558060Y-52810339D01*
X53558060Y-52572243D01*
X53605680Y-52429386D01*
X54558060Y-52000815D02*
X53558060Y-52000815D01*
X53558060Y-51619862D01*
X53605680Y-51524624D01*
X53653299Y-51477005D01*
X53748537Y-51429386D01*
X53891394Y-51429386D01*
X53986632Y-51477005D01*
X54034251Y-51524624D01*
X54081870Y-51619862D01*
X54081870Y-52000815D01*
X53558060Y-51096053D02*
X53558060Y-50477005D01*
X53939013Y-50810339D01*
X53939013Y-50667481D01*
X53986632Y-50572243D01*
X54034251Y-50524624D01*
X54129489Y-50477005D01*
X54367584Y-50477005D01*
X54462822Y-50524624D01*
X54510441Y-50572243D01*
X54558060Y-50667481D01*
X54558060Y-50953196D01*
X54510441Y-51048434D01*
X54462822Y-51096053D01*
X53653299Y-50096053D02*
X53605680Y-50048434D01*
X53558060Y-49953196D01*
X53558060Y-49715100D01*
X53605680Y-49619862D01*
X53653299Y-49572243D01*
X53748537Y-49524624D01*
X53843775Y-49524624D01*
X53986632Y-49572243D01*
X54558060Y-50143672D01*
X54558060Y-49524624D01*
X54177108Y-49096053D02*
X54177108Y-48334148D01*
X54558060Y-47857958D02*
X53558060Y-47857958D01*
X53558060Y-47619862D01*
X53605680Y-47477005D01*
X53700918Y-47381767D01*
X53796156Y-47334148D01*
X53986632Y-47286529D01*
X54129489Y-47286529D01*
X54319965Y-47334148D01*
X54415203Y-47381767D01*
X54510441Y-47477005D01*
X54558060Y-47619862D01*
X54558060Y-47857958D01*
X54510441Y-46477005D02*
X54558060Y-46572243D01*
X54558060Y-46762720D01*
X54510441Y-46857958D01*
X54415203Y-46905577D01*
X54034251Y-46905577D01*
X53939013Y-46857958D01*
X53891394Y-46762720D01*
X53891394Y-46572243D01*
X53939013Y-46477005D01*
X54034251Y-46429386D01*
X54129489Y-46429386D01*
X54224727Y-46905577D01*
X53891394Y-46096053D02*
X54558060Y-45857958D01*
X53891394Y-45619862D01*
X54558060Y-45238910D02*
X53558060Y-45238910D01*
X54558060Y-44667481D02*
X53986632Y-45096053D01*
X53558060Y-44667481D02*
X54129489Y-45238910D01*
X54558060Y-44238910D02*
X53891394Y-44238910D01*
X53558060Y-44238910D02*
X53605680Y-44286529D01*
X53653299Y-44238910D01*
X53605680Y-44191291D01*
X53558060Y-44238910D01*
X53653299Y-44238910D01*
X53891394Y-43905577D02*
X53891394Y-43524624D01*
X53558060Y-43762720D02*
X54415203Y-43762720D01*
X54510441Y-43715100D01*
X54558060Y-43619862D01*
X54558060Y-43524624D01*
X54462822Y-42619862D02*
X54510441Y-42667481D01*
X54558060Y-42810339D01*
X54558060Y-42905577D01*
X54510441Y-43048434D01*
X54415203Y-43143672D01*
X54319965Y-43191291D01*
X54129489Y-43238910D01*
X53986632Y-43238910D01*
X53796156Y-43191291D01*
X53700918Y-43143672D01*
X53605680Y-43048434D01*
X53558060Y-42905577D01*
X53558060Y-42810339D01*
X53605680Y-42667481D01*
X53653299Y-42619862D01*
X43306513Y-44102720D02*
X43239846Y-44069386D01*
X43139846Y-44069386D01*
X43039846Y-44102720D01*
X42973180Y-44169386D01*
X42939846Y-44236053D01*
X42906513Y-44369386D01*
X42906513Y-44469386D01*
X42939846Y-44602720D01*
X42973180Y-44669386D01*
X43039846Y-44736053D01*
X43139846Y-44769386D01*
X43206513Y-44769386D01*
X43306513Y-44736053D01*
X43339846Y-44702720D01*
X43339846Y-44469386D01*
X43206513Y-44469386D01*
X43639846Y-44769386D02*
X43639846Y-44069386D01*
X43906513Y-44069386D01*
X43973180Y-44102720D01*
X44006513Y-44136053D01*
X44039846Y-44202720D01*
X44039846Y-44302720D01*
X44006513Y-44369386D01*
X43973180Y-44402720D01*
X43906513Y-44436053D01*
X43639846Y-44436053D01*
X44339846Y-44769386D02*
X44339846Y-44069386D01*
X44806513Y-44069386D02*
X44939846Y-44069386D01*
X45006513Y-44102720D01*
X45073180Y-44169386D01*
X45106513Y-44302720D01*
X45106513Y-44536053D01*
X45073180Y-44669386D01*
X45006513Y-44736053D01*
X44939846Y-44769386D01*
X44806513Y-44769386D01*
X44739846Y-44736053D01*
X44673180Y-44669386D01*
X44639846Y-44536053D01*
X44639846Y-44302720D01*
X44673180Y-44169386D01*
X44739846Y-44102720D01*
X44806513Y-44069386D01*
X45373180Y-44136053D02*
X45406513Y-44102720D01*
X45473180Y-44069386D01*
X45639846Y-44069386D01*
X45706513Y-44102720D01*
X45739846Y-44136053D01*
X45773180Y-44202720D01*
X45773180Y-44269386D01*
X45739846Y-44369386D01*
X45339846Y-44769386D01*
X45773180Y-44769386D01*
X46406513Y-44069386D02*
X46073180Y-44069386D01*
X46039846Y-44402720D01*
X46073180Y-44369386D01*
X46139846Y-44336053D01*
X46306513Y-44336053D01*
X46373180Y-44369386D01*
X46406513Y-44402720D01*
X46439846Y-44469386D01*
X46439846Y-44636053D01*
X46406513Y-44702720D01*
X46373180Y-44736053D01*
X46306513Y-44769386D01*
X46139846Y-44769386D01*
X46073180Y-44736053D01*
X46039846Y-44702720D01*
X58671513Y-61882720D02*
X58604846Y-61849386D01*
X58504846Y-61849386D01*
X58404846Y-61882720D01*
X58338180Y-61949386D01*
X58304846Y-62016053D01*
X58271513Y-62149386D01*
X58271513Y-62249386D01*
X58304846Y-62382720D01*
X58338180Y-62449386D01*
X58404846Y-62516053D01*
X58504846Y-62549386D01*
X58571513Y-62549386D01*
X58671513Y-62516053D01*
X58704846Y-62482720D01*
X58704846Y-62249386D01*
X58571513Y-62249386D01*
X59004846Y-62549386D02*
X59004846Y-61849386D01*
X59271513Y-61849386D01*
X59338180Y-61882720D01*
X59371513Y-61916053D01*
X59404846Y-61982720D01*
X59404846Y-62082720D01*
X59371513Y-62149386D01*
X59338180Y-62182720D01*
X59271513Y-62216053D01*
X59004846Y-62216053D01*
X59704846Y-62549386D02*
X59704846Y-61849386D01*
X60171513Y-61849386D02*
X60304846Y-61849386D01*
X60371513Y-61882720D01*
X60438180Y-61949386D01*
X60471513Y-62082720D01*
X60471513Y-62316053D01*
X60438180Y-62449386D01*
X60371513Y-62516053D01*
X60304846Y-62549386D01*
X60171513Y-62549386D01*
X60104846Y-62516053D01*
X60038180Y-62449386D01*
X60004846Y-62316053D01*
X60004846Y-62082720D01*
X60038180Y-61949386D01*
X60104846Y-61882720D01*
X60171513Y-61849386D01*
X61138180Y-62549386D02*
X60738180Y-62549386D01*
X60938180Y-62549386D02*
X60938180Y-61849386D01*
X60871513Y-61949386D01*
X60804846Y-62016053D01*
X60738180Y-62049386D01*
X61771513Y-61849386D02*
X61438180Y-61849386D01*
X61404846Y-62182720D01*
X61438180Y-62149386D01*
X61504846Y-62116053D01*
X61671513Y-62116053D01*
X61738180Y-62149386D01*
X61771513Y-62182720D01*
X61804846Y-62249386D01*
X61804846Y-62416053D01*
X61771513Y-62482720D01*
X61738180Y-62516053D01*
X61671513Y-62549386D01*
X61504846Y-62549386D01*
X61438180Y-62516053D01*
X61404846Y-62482720D01*
X62604846Y-61816053D02*
X62004846Y-62716053D01*
X62838180Y-62549386D02*
X62838180Y-61849386D01*
X63071513Y-62349386D01*
X63304846Y-61849386D01*
X63304846Y-62549386D01*
X63538180Y-61849386D02*
X63938180Y-61849386D01*
X63738180Y-62549386D02*
X63738180Y-61849386D01*
X64171513Y-62549386D02*
X64171513Y-61849386D01*
X64338180Y-61849386D01*
X64438180Y-61882720D01*
X64504846Y-61949386D01*
X64538180Y-62016053D01*
X64571513Y-62149386D01*
X64571513Y-62249386D01*
X64538180Y-62382720D01*
X64504846Y-62449386D01*
X64438180Y-62516053D01*
X64338180Y-62549386D01*
X64171513Y-62549386D01*
X65004846Y-61849386D02*
X65138180Y-61849386D01*
X65204846Y-61882720D01*
X65271513Y-61949386D01*
X65304846Y-62082720D01*
X65304846Y-62316053D01*
X65271513Y-62449386D01*
X65204846Y-62516053D01*
X65138180Y-62549386D01*
X65004846Y-62549386D01*
X64938180Y-62516053D01*
X64871513Y-62449386D01*
X64838180Y-62316053D01*
X64838180Y-62082720D01*
X64871513Y-61949386D01*
X64938180Y-61882720D01*
X65004846Y-61849386D01*
X58804846Y-31402720D02*
X58738180Y-31369386D01*
X58638180Y-31369386D01*
X58538180Y-31402720D01*
X58471513Y-31469386D01*
X58438180Y-31536053D01*
X58404846Y-31669386D01*
X58404846Y-31769386D01*
X58438180Y-31902720D01*
X58471513Y-31969386D01*
X58538180Y-32036053D01*
X58638180Y-32069386D01*
X58704846Y-32069386D01*
X58804846Y-32036053D01*
X58838180Y-32002720D01*
X58838180Y-31769386D01*
X58704846Y-31769386D01*
X59138180Y-32069386D02*
X59138180Y-31369386D01*
X59404846Y-31369386D01*
X59471513Y-31402720D01*
X59504846Y-31436053D01*
X59538180Y-31502720D01*
X59538180Y-31602720D01*
X59504846Y-31669386D01*
X59471513Y-31702720D01*
X59404846Y-31736053D01*
X59138180Y-31736053D01*
X59838180Y-32069386D02*
X59838180Y-31369386D01*
X60304846Y-31369386D02*
X60438180Y-31369386D01*
X60504846Y-31402720D01*
X60571513Y-31469386D01*
X60604846Y-31602720D01*
X60604846Y-31836053D01*
X60571513Y-31969386D01*
X60504846Y-32036053D01*
X60438180Y-32069386D01*
X60304846Y-32069386D01*
X60238180Y-32036053D01*
X60171513Y-31969386D01*
X60138180Y-31836053D01*
X60138180Y-31602720D01*
X60171513Y-31469386D01*
X60238180Y-31402720D01*
X60304846Y-31369386D01*
X61271513Y-32069386D02*
X60871513Y-32069386D01*
X61071513Y-32069386D02*
X61071513Y-31369386D01*
X61004846Y-31469386D01*
X60938180Y-31536053D01*
X60871513Y-31569386D01*
X62071513Y-31336053D02*
X61471513Y-32236053D01*
X62304846Y-31369386D02*
X62304846Y-31936053D01*
X62338180Y-32002720D01*
X62371513Y-32036053D01*
X62438180Y-32069386D01*
X62571513Y-32069386D01*
X62638180Y-32036053D01*
X62671513Y-32002720D01*
X62704846Y-31936053D01*
X62704846Y-31369386D01*
X63171513Y-31369386D02*
X63238180Y-31369386D01*
X63304846Y-31402720D01*
X63338180Y-31436053D01*
X63371513Y-31502720D01*
X63404846Y-31636053D01*
X63404846Y-31802720D01*
X63371513Y-31936053D01*
X63338180Y-32002720D01*
X63304846Y-32036053D01*
X63238180Y-32069386D01*
X63171513Y-32069386D01*
X63104846Y-32036053D01*
X63071513Y-32002720D01*
X63038180Y-31936053D01*
X63004846Y-31802720D01*
X63004846Y-31636053D01*
X63038180Y-31502720D01*
X63071513Y-31436053D01*
X63104846Y-31402720D01*
X63171513Y-31369386D01*
X63604846Y-31369386D02*
X64004846Y-31369386D01*
X63804846Y-32069386D02*
X63804846Y-31369386D01*
X64171513Y-31369386D02*
X64638180Y-32069386D01*
X64638180Y-31369386D02*
X64171513Y-32069386D01*
X64904846Y-32069386D02*
X64904846Y-31369386D01*
X65071513Y-31369386D01*
X65171513Y-31402720D01*
X65238180Y-31469386D01*
X65271513Y-31536053D01*
X65304846Y-31669386D01*
X65304846Y-31769386D01*
X65271513Y-31902720D01*
X65238180Y-31969386D01*
X65171513Y-32036053D01*
X65071513Y-32069386D01*
X64904846Y-32069386D01*
X62171513Y-49182720D02*
X62104846Y-49149386D01*
X62004846Y-49149386D01*
X61904846Y-49182720D01*
X61838180Y-49249386D01*
X61804846Y-49316053D01*
X61771513Y-49449386D01*
X61771513Y-49549386D01*
X61804846Y-49682720D01*
X61838180Y-49749386D01*
X61904846Y-49816053D01*
X62004846Y-49849386D01*
X62071513Y-49849386D01*
X62171513Y-49816053D01*
X62204846Y-49782720D01*
X62204846Y-49549386D01*
X62071513Y-49549386D01*
X62504846Y-49849386D02*
X62504846Y-49149386D01*
X62771513Y-49149386D01*
X62838180Y-49182720D01*
X62871513Y-49216053D01*
X62904846Y-49282720D01*
X62904846Y-49382720D01*
X62871513Y-49449386D01*
X62838180Y-49482720D01*
X62771513Y-49516053D01*
X62504846Y-49516053D01*
X63204846Y-49849386D02*
X63204846Y-49149386D01*
X63671513Y-49149386D02*
X63804846Y-49149386D01*
X63871513Y-49182720D01*
X63938180Y-49249386D01*
X63971513Y-49382720D01*
X63971513Y-49616053D01*
X63938180Y-49749386D01*
X63871513Y-49816053D01*
X63804846Y-49849386D01*
X63671513Y-49849386D01*
X63604846Y-49816053D01*
X63538180Y-49749386D01*
X63504846Y-49616053D01*
X63504846Y-49382720D01*
X63538180Y-49249386D01*
X63604846Y-49182720D01*
X63671513Y-49149386D01*
X64638180Y-49849386D02*
X64238180Y-49849386D01*
X64438180Y-49849386D02*
X64438180Y-49149386D01*
X64371513Y-49249386D01*
X64304846Y-49316053D01*
X64238180Y-49349386D01*
X64871513Y-49149386D02*
X65338180Y-49149386D01*
X65038180Y-49849386D01*
X63152465Y-38872720D02*
X63057227Y-38825100D01*
X62914370Y-38825100D01*
X62771513Y-38872720D01*
X62676275Y-38967958D01*
X62628656Y-39063196D01*
X62581037Y-39253672D01*
X62581037Y-39396529D01*
X62628656Y-39587005D01*
X62676275Y-39682243D01*
X62771513Y-39777481D01*
X62914370Y-39825100D01*
X63009608Y-39825100D01*
X63152465Y-39777481D01*
X63200084Y-39729862D01*
X63200084Y-39396529D01*
X63009608Y-39396529D01*
X63628656Y-39825100D02*
X63628656Y-38825100D01*
X64200084Y-39825100D01*
X64200084Y-38825100D01*
X64676275Y-39825100D02*
X64676275Y-38825100D01*
X64914370Y-38825100D01*
X65057227Y-38872720D01*
X65152465Y-38967958D01*
X65200084Y-39063196D01*
X65247703Y-39253672D01*
X65247703Y-39396529D01*
X65200084Y-39587005D01*
X65152465Y-39682243D01*
X65057227Y-39777481D01*
X64914370Y-39825100D01*
X64676275Y-39825100D01*
X62171513Y-28862720D02*
X62104846Y-28829386D01*
X62004846Y-28829386D01*
X61904846Y-28862720D01*
X61838180Y-28929386D01*
X61804846Y-28996053D01*
X61771513Y-29129386D01*
X61771513Y-29229386D01*
X61804846Y-29362720D01*
X61838180Y-29429386D01*
X61904846Y-29496053D01*
X62004846Y-29529386D01*
X62071513Y-29529386D01*
X62171513Y-29496053D01*
X62204846Y-29462720D01*
X62204846Y-29229386D01*
X62071513Y-29229386D01*
X62504846Y-29529386D02*
X62504846Y-28829386D01*
X62771513Y-28829386D01*
X62838180Y-28862720D01*
X62871513Y-28896053D01*
X62904846Y-28962720D01*
X62904846Y-29062720D01*
X62871513Y-29129386D01*
X62838180Y-29162720D01*
X62771513Y-29196053D01*
X62504846Y-29196053D01*
X63204846Y-29529386D02*
X63204846Y-28829386D01*
X63671513Y-28829386D02*
X63804846Y-28829386D01*
X63871513Y-28862720D01*
X63938180Y-28929386D01*
X63971513Y-29062720D01*
X63971513Y-29296053D01*
X63938180Y-29429386D01*
X63871513Y-29496053D01*
X63804846Y-29529386D01*
X63671513Y-29529386D01*
X63604846Y-29496053D01*
X63538180Y-29429386D01*
X63504846Y-29296053D01*
X63504846Y-29062720D01*
X63538180Y-28929386D01*
X63604846Y-28862720D01*
X63671513Y-28829386D01*
X64238180Y-28896053D02*
X64271513Y-28862720D01*
X64338180Y-28829386D01*
X64504846Y-28829386D01*
X64571513Y-28862720D01*
X64604846Y-28896053D01*
X64638180Y-28962720D01*
X64638180Y-29029386D01*
X64604846Y-29129386D01*
X64204846Y-29529386D01*
X64638180Y-29529386D01*
X64904846Y-28896053D02*
X64938180Y-28862720D01*
X65004846Y-28829386D01*
X65171513Y-28829386D01*
X65238180Y-28862720D01*
X65271513Y-28896053D01*
X65304846Y-28962720D01*
X65304846Y-29029386D01*
X65271513Y-29129386D01*
X64871513Y-29529386D01*
X65304846Y-29529386D01*
X43339846Y-67562720D02*
X43306513Y-67596053D01*
X43206513Y-67629386D01*
X43139846Y-67629386D01*
X43039846Y-67596053D01*
X42973180Y-67529386D01*
X42939846Y-67462720D01*
X42906513Y-67329386D01*
X42906513Y-67229386D01*
X42939846Y-67096053D01*
X42973180Y-67029386D01*
X43039846Y-66962720D01*
X43139846Y-66929386D01*
X43206513Y-66929386D01*
X43306513Y-66962720D01*
X43339846Y-66996053D01*
X43639846Y-67629386D02*
X43639846Y-66929386D01*
X43873180Y-67429386D01*
X44106513Y-66929386D01*
X44106513Y-67629386D01*
X44439846Y-67629386D02*
X44439846Y-66929386D01*
X44606513Y-66929386D01*
X44706513Y-66962720D01*
X44773180Y-67029386D01*
X44806513Y-67096053D01*
X44839846Y-67229386D01*
X44839846Y-67329386D01*
X44806513Y-67462720D01*
X44773180Y-67529386D01*
X44706513Y-67596053D01*
X44606513Y-67629386D01*
X44439846Y-67629386D01*
X62171513Y-44102720D02*
X62104846Y-44069386D01*
X62004846Y-44069386D01*
X61904846Y-44102720D01*
X61838180Y-44169386D01*
X61804846Y-44236053D01*
X61771513Y-44369386D01*
X61771513Y-44469386D01*
X61804846Y-44602720D01*
X61838180Y-44669386D01*
X61904846Y-44736053D01*
X62004846Y-44769386D01*
X62071513Y-44769386D01*
X62171513Y-44736053D01*
X62204846Y-44702720D01*
X62204846Y-44469386D01*
X62071513Y-44469386D01*
X62504846Y-44769386D02*
X62504846Y-44069386D01*
X62771513Y-44069386D01*
X62838180Y-44102720D01*
X62871513Y-44136053D01*
X62904846Y-44202720D01*
X62904846Y-44302720D01*
X62871513Y-44369386D01*
X62838180Y-44402720D01*
X62771513Y-44436053D01*
X62504846Y-44436053D01*
X63204846Y-44769386D02*
X63204846Y-44069386D01*
X63671513Y-44069386D02*
X63804846Y-44069386D01*
X63871513Y-44102720D01*
X63938180Y-44169386D01*
X63971513Y-44302720D01*
X63971513Y-44536053D01*
X63938180Y-44669386D01*
X63871513Y-44736053D01*
X63804846Y-44769386D01*
X63671513Y-44769386D01*
X63604846Y-44736053D01*
X63538180Y-44669386D01*
X63504846Y-44536053D01*
X63504846Y-44302720D01*
X63538180Y-44169386D01*
X63604846Y-44102720D01*
X63671513Y-44069386D01*
X64638180Y-44769386D02*
X64238180Y-44769386D01*
X64438180Y-44769386D02*
X64438180Y-44069386D01*
X64371513Y-44169386D01*
X64304846Y-44236053D01*
X64238180Y-44269386D01*
X65038180Y-44369386D02*
X64971513Y-44336053D01*
X64938180Y-44302720D01*
X64904846Y-44236053D01*
X64904846Y-44202720D01*
X64938180Y-44136053D01*
X64971513Y-44102720D01*
X65038180Y-44069386D01*
X65171513Y-44069386D01*
X65238180Y-44102720D01*
X65271513Y-44136053D01*
X65304846Y-44202720D01*
X65304846Y-44236053D01*
X65271513Y-44302720D01*
X65238180Y-44336053D01*
X65171513Y-44369386D01*
X65038180Y-44369386D01*
X64971513Y-44402720D01*
X64938180Y-44436053D01*
X64904846Y-44502720D01*
X64904846Y-44636053D01*
X64938180Y-44702720D01*
X64971513Y-44736053D01*
X65038180Y-44769386D01*
X65171513Y-44769386D01*
X65238180Y-44736053D01*
X65271513Y-44702720D01*
X65304846Y-44636053D01*
X65304846Y-44502720D01*
X65271513Y-44436053D01*
X65238180Y-44402720D01*
X65171513Y-44369386D01*
X42939846Y-65089386D02*
X42939846Y-64389386D01*
X43106513Y-64389386D01*
X43206513Y-64422720D01*
X43273180Y-64489386D01*
X43306513Y-64556053D01*
X43339846Y-64689386D01*
X43339846Y-64789386D01*
X43306513Y-64922720D01*
X43273180Y-64989386D01*
X43206513Y-65056053D01*
X43106513Y-65089386D01*
X42939846Y-65089386D01*
X43573180Y-64389386D02*
X44006513Y-64389386D01*
X43773180Y-64656053D01*
X43873180Y-64656053D01*
X43939846Y-64689386D01*
X43973180Y-64722720D01*
X44006513Y-64789386D01*
X44006513Y-64956053D01*
X43973180Y-65022720D01*
X43939846Y-65056053D01*
X43873180Y-65089386D01*
X43673180Y-65089386D01*
X43606513Y-65056053D01*
X43573180Y-65022720D01*
X43306513Y-33942720D02*
X43239846Y-33909386D01*
X43139846Y-33909386D01*
X43039846Y-33942720D01*
X42973180Y-34009386D01*
X42939846Y-34076053D01*
X42906513Y-34209386D01*
X42906513Y-34309386D01*
X42939846Y-34442720D01*
X42973180Y-34509386D01*
X43039846Y-34576053D01*
X43139846Y-34609386D01*
X43206513Y-34609386D01*
X43306513Y-34576053D01*
X43339846Y-34542720D01*
X43339846Y-34309386D01*
X43206513Y-34309386D01*
X43639846Y-34609386D02*
X43639846Y-33909386D01*
X43906513Y-33909386D01*
X43973180Y-33942720D01*
X44006513Y-33976053D01*
X44039846Y-34042720D01*
X44039846Y-34142720D01*
X44006513Y-34209386D01*
X43973180Y-34242720D01*
X43906513Y-34276053D01*
X43639846Y-34276053D01*
X44339846Y-34609386D02*
X44339846Y-33909386D01*
X44806513Y-33909386D02*
X44939846Y-33909386D01*
X45006513Y-33942720D01*
X45073180Y-34009386D01*
X45106513Y-34142720D01*
X45106513Y-34376053D01*
X45073180Y-34509386D01*
X45006513Y-34576053D01*
X44939846Y-34609386D01*
X44806513Y-34609386D01*
X44739846Y-34576053D01*
X44673180Y-34509386D01*
X44639846Y-34376053D01*
X44639846Y-34142720D01*
X44673180Y-34009386D01*
X44739846Y-33942720D01*
X44806513Y-33909386D01*
X45339846Y-33909386D02*
X45773180Y-33909386D01*
X45539846Y-34176053D01*
X45639846Y-34176053D01*
X45706513Y-34209386D01*
X45739846Y-34242720D01*
X45773180Y-34309386D01*
X45773180Y-34476053D01*
X45739846Y-34542720D01*
X45706513Y-34576053D01*
X45639846Y-34609386D01*
X45439846Y-34609386D01*
X45373180Y-34576053D01*
X45339846Y-34542720D01*
X46373180Y-34142720D02*
X46373180Y-34609386D01*
X46206513Y-33876053D02*
X46039846Y-34376053D01*
X46473180Y-34376053D01*
X43306513Y-51722720D02*
X43239846Y-51689386D01*
X43139846Y-51689386D01*
X43039846Y-51722720D01*
X42973180Y-51789386D01*
X42939846Y-51856053D01*
X42906513Y-51989386D01*
X42906513Y-52089386D01*
X42939846Y-52222720D01*
X42973180Y-52289386D01*
X43039846Y-52356053D01*
X43139846Y-52389386D01*
X43206513Y-52389386D01*
X43306513Y-52356053D01*
X43339846Y-52322720D01*
X43339846Y-52089386D01*
X43206513Y-52089386D01*
X43639846Y-52389386D02*
X43639846Y-51689386D01*
X43906513Y-51689386D01*
X43973180Y-51722720D01*
X44006513Y-51756053D01*
X44039846Y-51822720D01*
X44039846Y-51922720D01*
X44006513Y-51989386D01*
X43973180Y-52022720D01*
X43906513Y-52056053D01*
X43639846Y-52056053D01*
X44339846Y-52389386D02*
X44339846Y-51689386D01*
X44806513Y-51689386D02*
X44939846Y-51689386D01*
X45006513Y-51722720D01*
X45073180Y-51789386D01*
X45106513Y-51922720D01*
X45106513Y-52156053D01*
X45073180Y-52289386D01*
X45006513Y-52356053D01*
X44939846Y-52389386D01*
X44806513Y-52389386D01*
X44739846Y-52356053D01*
X44673180Y-52289386D01*
X44639846Y-52156053D01*
X44639846Y-51922720D01*
X44673180Y-51789386D01*
X44739846Y-51722720D01*
X44806513Y-51689386D01*
X45773180Y-52389386D02*
X45373180Y-52389386D01*
X45573180Y-52389386D02*
X45573180Y-51689386D01*
X45506513Y-51789386D01*
X45439846Y-51856053D01*
X45373180Y-51889386D01*
X46373180Y-51922720D02*
X46373180Y-52389386D01*
X46206513Y-51656053D02*
X46039846Y-52156053D01*
X46473180Y-52156053D01*
X47239846Y-51656053D02*
X46639846Y-52556053D01*
X47473180Y-52389386D02*
X47473180Y-51689386D01*
X47706513Y-52189386D01*
X47939846Y-51689386D01*
X47939846Y-52389386D01*
X48173180Y-51689386D02*
X48573180Y-51689386D01*
X48373180Y-52389386D02*
X48373180Y-51689386D01*
X48806513Y-52389386D02*
X48806513Y-51689386D01*
X49039846Y-52189386D01*
X49273180Y-51689386D01*
X49273180Y-52389386D01*
X49573180Y-52356053D02*
X49673180Y-52389386D01*
X49839846Y-52389386D01*
X49906513Y-52356053D01*
X49939846Y-52322720D01*
X49973180Y-52256053D01*
X49973180Y-52189386D01*
X49939846Y-52122720D01*
X49906513Y-52089386D01*
X49839846Y-52056053D01*
X49706513Y-52022720D01*
X49639846Y-51989386D01*
X49606513Y-51956053D01*
X49573180Y-51889386D01*
X49573180Y-51822720D01*
X49606513Y-51756053D01*
X49639846Y-51722720D01*
X49706513Y-51689386D01*
X49873180Y-51689386D01*
X49973180Y-51722720D01*
X43306513Y-36482720D02*
X43239846Y-36449386D01*
X43139846Y-36449386D01*
X43039846Y-36482720D01*
X42973180Y-36549386D01*
X42939846Y-36616053D01*
X42906513Y-36749386D01*
X42906513Y-36849386D01*
X42939846Y-36982720D01*
X42973180Y-37049386D01*
X43039846Y-37116053D01*
X43139846Y-37149386D01*
X43206513Y-37149386D01*
X43306513Y-37116053D01*
X43339846Y-37082720D01*
X43339846Y-36849386D01*
X43206513Y-36849386D01*
X43639846Y-37149386D02*
X43639846Y-36449386D01*
X43906513Y-36449386D01*
X43973180Y-36482720D01*
X44006513Y-36516053D01*
X44039846Y-36582720D01*
X44039846Y-36682720D01*
X44006513Y-36749386D01*
X43973180Y-36782720D01*
X43906513Y-36816053D01*
X43639846Y-36816053D01*
X44339846Y-37149386D02*
X44339846Y-36449386D01*
X44806513Y-36449386D02*
X44939846Y-36449386D01*
X45006513Y-36482720D01*
X45073180Y-36549386D01*
X45106513Y-36682720D01*
X45106513Y-36916053D01*
X45073180Y-37049386D01*
X45006513Y-37116053D01*
X44939846Y-37149386D01*
X44806513Y-37149386D01*
X44739846Y-37116053D01*
X44673180Y-37049386D01*
X44639846Y-36916053D01*
X44639846Y-36682720D01*
X44673180Y-36549386D01*
X44739846Y-36482720D01*
X44806513Y-36449386D01*
X45339846Y-36449386D02*
X45773180Y-36449386D01*
X45539846Y-36716053D01*
X45639846Y-36716053D01*
X45706513Y-36749386D01*
X45739846Y-36782720D01*
X45773180Y-36849386D01*
X45773180Y-37016053D01*
X45739846Y-37082720D01*
X45706513Y-37116053D01*
X45639846Y-37149386D01*
X45439846Y-37149386D01*
X45373180Y-37116053D01*
X45339846Y-37082720D01*
X46406513Y-36449386D02*
X46073180Y-36449386D01*
X46039846Y-36782720D01*
X46073180Y-36749386D01*
X46139846Y-36716053D01*
X46306513Y-36716053D01*
X46373180Y-36749386D01*
X46406513Y-36782720D01*
X46439846Y-36849386D01*
X46439846Y-37016053D01*
X46406513Y-37082720D01*
X46373180Y-37116053D01*
X46306513Y-37149386D01*
X46139846Y-37149386D01*
X46073180Y-37116053D01*
X46039846Y-37082720D01*
X62838180Y-54262720D02*
X62771513Y-54229386D01*
X62671513Y-54229386D01*
X62571513Y-54262720D01*
X62504846Y-54329386D01*
X62471513Y-54396053D01*
X62438180Y-54529386D01*
X62438180Y-54629386D01*
X62471513Y-54762720D01*
X62504846Y-54829386D01*
X62571513Y-54896053D01*
X62671513Y-54929386D01*
X62738180Y-54929386D01*
X62838180Y-54896053D01*
X62871513Y-54862720D01*
X62871513Y-54629386D01*
X62738180Y-54629386D01*
X63171513Y-54929386D02*
X63171513Y-54229386D01*
X63438180Y-54229386D01*
X63504846Y-54262720D01*
X63538180Y-54296053D01*
X63571513Y-54362720D01*
X63571513Y-54462720D01*
X63538180Y-54529386D01*
X63504846Y-54562720D01*
X63438180Y-54596053D01*
X63171513Y-54596053D01*
X63871513Y-54929386D02*
X63871513Y-54229386D01*
X64338180Y-54229386D02*
X64471513Y-54229386D01*
X64538180Y-54262720D01*
X64604846Y-54329386D01*
X64638180Y-54462720D01*
X64638180Y-54696053D01*
X64604846Y-54829386D01*
X64538180Y-54896053D01*
X64471513Y-54929386D01*
X64338180Y-54929386D01*
X64271513Y-54896053D01*
X64204846Y-54829386D01*
X64171513Y-54696053D01*
X64171513Y-54462720D01*
X64204846Y-54329386D01*
X64271513Y-54262720D01*
X64338180Y-54229386D01*
X65238180Y-54462720D02*
X65238180Y-54929386D01*
X65071513Y-54196053D02*
X64904846Y-54696053D01*
X65338180Y-54696053D01*
X42908785Y-26598571D02*
X43242119Y-26598571D01*
X43384976Y-27122380D02*
X42908785Y-27122380D01*
X42908785Y-26122380D01*
X43384976Y-26122380D01*
X43813547Y-27122380D02*
X43813547Y-26122380D01*
X44384976Y-27122380D01*
X44384976Y-26122380D01*
X45575452Y-26074761D02*
X44718309Y-27360476D01*
X46480214Y-27122380D02*
X46146880Y-26646190D01*
X45908785Y-27122380D02*
X45908785Y-26122380D01*
X46289738Y-26122380D01*
X46384976Y-26170000D01*
X46432595Y-26217619D01*
X46480214Y-26312857D01*
X46480214Y-26455714D01*
X46432595Y-26550952D01*
X46384976Y-26598571D01*
X46289738Y-26646190D01*
X45908785Y-26646190D01*
X46908785Y-26598571D02*
X47242119Y-26598571D01*
X47384976Y-27122380D02*
X46908785Y-27122380D01*
X46908785Y-26122380D01*
X47384976Y-26122380D01*
X47765928Y-27074761D02*
X47908785Y-27122380D01*
X48146880Y-27122380D01*
X48242119Y-27074761D01*
X48289738Y-27027142D01*
X48337357Y-26931904D01*
X48337357Y-26836666D01*
X48289738Y-26741428D01*
X48242119Y-26693809D01*
X48146880Y-26646190D01*
X47956404Y-26598571D01*
X47861166Y-26550952D01*
X47813547Y-26503333D01*
X47765928Y-26408095D01*
X47765928Y-26312857D01*
X47813547Y-26217619D01*
X47861166Y-26170000D01*
X47956404Y-26122380D01*
X48194500Y-26122380D01*
X48337357Y-26170000D01*
X48765928Y-26598571D02*
X49099261Y-26598571D01*
X49242119Y-27122380D02*
X48765928Y-27122380D01*
X48765928Y-26122380D01*
X49242119Y-26122380D01*
X49527833Y-26122380D02*
X50099261Y-26122380D01*
X49813547Y-27122380D02*
X49813547Y-26122380D01*
X64038180Y-70102720D02*
X64004846Y-70136053D01*
X63904846Y-70169386D01*
X63838180Y-70169386D01*
X63738180Y-70136053D01*
X63671513Y-70069386D01*
X63638180Y-70002720D01*
X63604846Y-69869386D01*
X63604846Y-69769386D01*
X63638180Y-69636053D01*
X63671513Y-69569386D01*
X63738180Y-69502720D01*
X63838180Y-69469386D01*
X63904846Y-69469386D01*
X64004846Y-69502720D01*
X64038180Y-69536053D01*
X64671513Y-70169386D02*
X64338180Y-70169386D01*
X64338180Y-69469386D01*
X64904846Y-70169386D02*
X64904846Y-69469386D01*
X65304846Y-70169386D02*
X65004846Y-69769386D01*
X65304846Y-69469386D02*
X64904846Y-69869386D01*
X43535084Y-56652720D02*
X43439846Y-56605100D01*
X43296989Y-56605100D01*
X43154132Y-56652720D01*
X43058894Y-56747958D01*
X43011275Y-56843196D01*
X42963656Y-57033672D01*
X42963656Y-57176529D01*
X43011275Y-57367005D01*
X43058894Y-57462243D01*
X43154132Y-57557481D01*
X43296989Y-57605100D01*
X43392227Y-57605100D01*
X43535084Y-57557481D01*
X43582703Y-57509862D01*
X43582703Y-57176529D01*
X43392227Y-57176529D01*
X44011275Y-57605100D02*
X44011275Y-56605100D01*
X44582703Y-57605100D01*
X44582703Y-56605100D01*
X45058894Y-57605100D02*
X45058894Y-56605100D01*
X45296989Y-56605100D01*
X45439846Y-56652720D01*
X45535084Y-56747958D01*
X45582703Y-56843196D01*
X45630322Y-57033672D01*
X45630322Y-57176529D01*
X45582703Y-57367005D01*
X45535084Y-57462243D01*
X45439846Y-57557481D01*
X45296989Y-57605100D01*
X45058894Y-57605100D01*
X62838180Y-56802720D02*
X62771513Y-56769386D01*
X62671513Y-56769386D01*
X62571513Y-56802720D01*
X62504846Y-56869386D01*
X62471513Y-56936053D01*
X62438180Y-57069386D01*
X62438180Y-57169386D01*
X62471513Y-57302720D01*
X62504846Y-57369386D01*
X62571513Y-57436053D01*
X62671513Y-57469386D01*
X62738180Y-57469386D01*
X62838180Y-57436053D01*
X62871513Y-57402720D01*
X62871513Y-57169386D01*
X62738180Y-57169386D01*
X63171513Y-57469386D02*
X63171513Y-56769386D01*
X63438180Y-56769386D01*
X63504846Y-56802720D01*
X63538180Y-56836053D01*
X63571513Y-56902720D01*
X63571513Y-57002720D01*
X63538180Y-57069386D01*
X63504846Y-57102720D01*
X63438180Y-57136053D01*
X63171513Y-57136053D01*
X63871513Y-57469386D02*
X63871513Y-56769386D01*
X64338180Y-56769386D02*
X64471513Y-56769386D01*
X64538180Y-56802720D01*
X64604846Y-56869386D01*
X64638180Y-57002720D01*
X64638180Y-57236053D01*
X64604846Y-57369386D01*
X64538180Y-57436053D01*
X64471513Y-57469386D01*
X64338180Y-57469386D01*
X64271513Y-57436053D01*
X64204846Y-57369386D01*
X64171513Y-57236053D01*
X64171513Y-57002720D01*
X64204846Y-56869386D01*
X64271513Y-56802720D01*
X64338180Y-56769386D01*
X65071513Y-56769386D02*
X65138180Y-56769386D01*
X65204846Y-56802720D01*
X65238180Y-56836053D01*
X65271513Y-56902720D01*
X65304846Y-57036053D01*
X65304846Y-57202720D01*
X65271513Y-57336053D01*
X65238180Y-57402720D01*
X65204846Y-57436053D01*
X65138180Y-57469386D01*
X65071513Y-57469386D01*
X65004846Y-57436053D01*
X64971513Y-57402720D01*
X64938180Y-57336053D01*
X64904846Y-57202720D01*
X64904846Y-57036053D01*
X64938180Y-56902720D01*
X64971513Y-56836053D01*
X65004846Y-56802720D01*
X65071513Y-56769386D01*
X43306513Y-39022720D02*
X43239846Y-38989386D01*
X43139846Y-38989386D01*
X43039846Y-39022720D01*
X42973180Y-39089386D01*
X42939846Y-39156053D01*
X42906513Y-39289386D01*
X42906513Y-39389386D01*
X42939846Y-39522720D01*
X42973180Y-39589386D01*
X43039846Y-39656053D01*
X43139846Y-39689386D01*
X43206513Y-39689386D01*
X43306513Y-39656053D01*
X43339846Y-39622720D01*
X43339846Y-39389386D01*
X43206513Y-39389386D01*
X43639846Y-39689386D02*
X43639846Y-38989386D01*
X43906513Y-38989386D01*
X43973180Y-39022720D01*
X44006513Y-39056053D01*
X44039846Y-39122720D01*
X44039846Y-39222720D01*
X44006513Y-39289386D01*
X43973180Y-39322720D01*
X43906513Y-39356053D01*
X43639846Y-39356053D01*
X44339846Y-39689386D02*
X44339846Y-38989386D01*
X44806513Y-38989386D02*
X44939846Y-38989386D01*
X45006513Y-39022720D01*
X45073180Y-39089386D01*
X45106513Y-39222720D01*
X45106513Y-39456053D01*
X45073180Y-39589386D01*
X45006513Y-39656053D01*
X44939846Y-39689386D01*
X44806513Y-39689386D01*
X44739846Y-39656053D01*
X44673180Y-39589386D01*
X44639846Y-39456053D01*
X44639846Y-39222720D01*
X44673180Y-39089386D01*
X44739846Y-39022720D01*
X44806513Y-38989386D01*
X45339846Y-38989386D02*
X45773180Y-38989386D01*
X45539846Y-39256053D01*
X45639846Y-39256053D01*
X45706513Y-39289386D01*
X45739846Y-39322720D01*
X45773180Y-39389386D01*
X45773180Y-39556053D01*
X45739846Y-39622720D01*
X45706513Y-39656053D01*
X45639846Y-39689386D01*
X45439846Y-39689386D01*
X45373180Y-39656053D01*
X45339846Y-39622720D01*
X46039846Y-39056053D02*
X46073180Y-39022720D01*
X46139846Y-38989386D01*
X46306513Y-38989386D01*
X46373180Y-39022720D01*
X46406513Y-39056053D01*
X46439846Y-39122720D01*
X46439846Y-39189386D01*
X46406513Y-39289386D01*
X46006513Y-39689386D01*
X46439846Y-39689386D01*
X62171513Y-51722720D02*
X62104846Y-51689386D01*
X62004846Y-51689386D01*
X61904846Y-51722720D01*
X61838180Y-51789386D01*
X61804846Y-51856053D01*
X61771513Y-51989386D01*
X61771513Y-52089386D01*
X61804846Y-52222720D01*
X61838180Y-52289386D01*
X61904846Y-52356053D01*
X62004846Y-52389386D01*
X62071513Y-52389386D01*
X62171513Y-52356053D01*
X62204846Y-52322720D01*
X62204846Y-52089386D01*
X62071513Y-52089386D01*
X62504846Y-52389386D02*
X62504846Y-51689386D01*
X62771513Y-51689386D01*
X62838180Y-51722720D01*
X62871513Y-51756053D01*
X62904846Y-51822720D01*
X62904846Y-51922720D01*
X62871513Y-51989386D01*
X62838180Y-52022720D01*
X62771513Y-52056053D01*
X62504846Y-52056053D01*
X63204846Y-52389386D02*
X63204846Y-51689386D01*
X63671513Y-51689386D02*
X63804846Y-51689386D01*
X63871513Y-51722720D01*
X63938180Y-51789386D01*
X63971513Y-51922720D01*
X63971513Y-52156053D01*
X63938180Y-52289386D01*
X63871513Y-52356053D01*
X63804846Y-52389386D01*
X63671513Y-52389386D01*
X63604846Y-52356053D01*
X63538180Y-52289386D01*
X63504846Y-52156053D01*
X63504846Y-51922720D01*
X63538180Y-51789386D01*
X63604846Y-51722720D01*
X63671513Y-51689386D01*
X64638180Y-52389386D02*
X64238180Y-52389386D01*
X64438180Y-52389386D02*
X64438180Y-51689386D01*
X64371513Y-51789386D01*
X64304846Y-51856053D01*
X64238180Y-51889386D01*
X65238180Y-51689386D02*
X65104846Y-51689386D01*
X65038180Y-51722720D01*
X65004846Y-51756053D01*
X64938180Y-51856053D01*
X64904846Y-51989386D01*
X64904846Y-52256053D01*
X64938180Y-52322720D01*
X64971513Y-52356053D01*
X65038180Y-52389386D01*
X65171513Y-52389386D01*
X65238180Y-52356053D01*
X65271513Y-52322720D01*
X65304846Y-52256053D01*
X65304846Y-52089386D01*
X65271513Y-52022720D01*
X65238180Y-51989386D01*
X65171513Y-51956053D01*
X65038180Y-51956053D01*
X64971513Y-51989386D01*
X64938180Y-52022720D01*
X64904846Y-52089386D01*
X42916037Y-23585100D02*
X43535084Y-23585100D01*
X43201751Y-23966053D01*
X43344608Y-23966053D01*
X43439846Y-24013672D01*
X43487465Y-24061291D01*
X43535084Y-24156529D01*
X43535084Y-24394624D01*
X43487465Y-24489862D01*
X43439846Y-24537481D01*
X43344608Y-24585100D01*
X43058894Y-24585100D01*
X42963656Y-24537481D01*
X42916037Y-24489862D01*
X43820799Y-23585100D02*
X44154132Y-24585100D01*
X44487465Y-23585100D01*
X44725560Y-23585100D02*
X45344608Y-23585100D01*
X45011275Y-23966053D01*
X45154132Y-23966053D01*
X45249370Y-24013672D01*
X45296989Y-24061291D01*
X45344608Y-24156529D01*
X45344608Y-24394624D01*
X45296989Y-24489862D01*
X45249370Y-24537481D01*
X45154132Y-24585100D01*
X44868418Y-24585100D01*
X44773180Y-24537481D01*
X44725560Y-24489862D01*
X58638180Y-33942720D02*
X58571513Y-33909386D01*
X58471513Y-33909386D01*
X58371513Y-33942720D01*
X58304846Y-34009386D01*
X58271513Y-34076053D01*
X58238180Y-34209386D01*
X58238180Y-34309386D01*
X58271513Y-34442720D01*
X58304846Y-34509386D01*
X58371513Y-34576053D01*
X58471513Y-34609386D01*
X58538180Y-34609386D01*
X58638180Y-34576053D01*
X58671513Y-34542720D01*
X58671513Y-34309386D01*
X58538180Y-34309386D01*
X58971513Y-34609386D02*
X58971513Y-33909386D01*
X59238180Y-33909386D01*
X59304846Y-33942720D01*
X59338180Y-33976053D01*
X59371513Y-34042720D01*
X59371513Y-34142720D01*
X59338180Y-34209386D01*
X59304846Y-34242720D01*
X59238180Y-34276053D01*
X58971513Y-34276053D01*
X59671513Y-34609386D02*
X59671513Y-33909386D01*
X60138180Y-33909386D02*
X60271513Y-33909386D01*
X60338180Y-33942720D01*
X60404846Y-34009386D01*
X60438180Y-34142720D01*
X60438180Y-34376053D01*
X60404846Y-34509386D01*
X60338180Y-34576053D01*
X60271513Y-34609386D01*
X60138180Y-34609386D01*
X60071513Y-34576053D01*
X60004846Y-34509386D01*
X59971513Y-34376053D01*
X59971513Y-34142720D01*
X60004846Y-34009386D01*
X60071513Y-33942720D01*
X60138180Y-33909386D01*
X60671513Y-33909386D02*
X61104846Y-33909386D01*
X60871513Y-34176053D01*
X60971513Y-34176053D01*
X61038180Y-34209386D01*
X61071513Y-34242720D01*
X61104846Y-34309386D01*
X61104846Y-34476053D01*
X61071513Y-34542720D01*
X61038180Y-34576053D01*
X60971513Y-34609386D01*
X60771513Y-34609386D01*
X60704846Y-34576053D01*
X60671513Y-34542720D01*
X61904846Y-33876053D02*
X61304846Y-34776053D01*
X62138180Y-33909386D02*
X62138180Y-34476053D01*
X62171513Y-34542720D01*
X62204846Y-34576053D01*
X62271513Y-34609386D01*
X62404846Y-34609386D01*
X62471513Y-34576053D01*
X62504846Y-34542720D01*
X62538180Y-34476053D01*
X62538180Y-33909386D01*
X63004846Y-33909386D02*
X63071513Y-33909386D01*
X63138180Y-33942720D01*
X63171513Y-33976053D01*
X63204846Y-34042720D01*
X63238180Y-34176053D01*
X63238180Y-34342720D01*
X63204846Y-34476053D01*
X63171513Y-34542720D01*
X63138180Y-34576053D01*
X63071513Y-34609386D01*
X63004846Y-34609386D01*
X62938180Y-34576053D01*
X62904846Y-34542720D01*
X62871513Y-34476053D01*
X62838180Y-34342720D01*
X62838180Y-34176053D01*
X62871513Y-34042720D01*
X62904846Y-33976053D01*
X62938180Y-33942720D01*
X63004846Y-33909386D01*
X63938180Y-34609386D02*
X63704846Y-34276053D01*
X63538180Y-34609386D02*
X63538180Y-33909386D01*
X63804846Y-33909386D01*
X63871513Y-33942720D01*
X63904846Y-33976053D01*
X63938180Y-34042720D01*
X63938180Y-34142720D01*
X63904846Y-34209386D01*
X63871513Y-34242720D01*
X63804846Y-34276053D01*
X63538180Y-34276053D01*
X64171513Y-33909386D02*
X64638180Y-34609386D01*
X64638180Y-33909386D02*
X64171513Y-34609386D01*
X64904846Y-34609386D02*
X64904846Y-33909386D01*
X65071513Y-33909386D01*
X65171513Y-33942720D01*
X65238180Y-34009386D01*
X65271513Y-34076053D01*
X65304846Y-34209386D01*
X65304846Y-34309386D01*
X65271513Y-34442720D01*
X65238180Y-34509386D01*
X65171513Y-34576053D01*
X65071513Y-34609386D01*
X64904846Y-34609386D01*
X43306513Y-46642720D02*
X43239846Y-46609386D01*
X43139846Y-46609386D01*
X43039846Y-46642720D01*
X42973180Y-46709386D01*
X42939846Y-46776053D01*
X42906513Y-46909386D01*
X42906513Y-47009386D01*
X42939846Y-47142720D01*
X42973180Y-47209386D01*
X43039846Y-47276053D01*
X43139846Y-47309386D01*
X43206513Y-47309386D01*
X43306513Y-47276053D01*
X43339846Y-47242720D01*
X43339846Y-47009386D01*
X43206513Y-47009386D01*
X43639846Y-47309386D02*
X43639846Y-46609386D01*
X43906513Y-46609386D01*
X43973180Y-46642720D01*
X44006513Y-46676053D01*
X44039846Y-46742720D01*
X44039846Y-46842720D01*
X44006513Y-46909386D01*
X43973180Y-46942720D01*
X43906513Y-46976053D01*
X43639846Y-46976053D01*
X44339846Y-47309386D02*
X44339846Y-46609386D01*
X44806513Y-46609386D02*
X44939846Y-46609386D01*
X45006513Y-46642720D01*
X45073180Y-46709386D01*
X45106513Y-46842720D01*
X45106513Y-47076053D01*
X45073180Y-47209386D01*
X45006513Y-47276053D01*
X44939846Y-47309386D01*
X44806513Y-47309386D01*
X44739846Y-47276053D01*
X44673180Y-47209386D01*
X44639846Y-47076053D01*
X44639846Y-46842720D01*
X44673180Y-46709386D01*
X44739846Y-46642720D01*
X44806513Y-46609386D01*
X45373180Y-46676053D02*
X45406513Y-46642720D01*
X45473180Y-46609386D01*
X45639846Y-46609386D01*
X45706513Y-46642720D01*
X45739846Y-46676053D01*
X45773180Y-46742720D01*
X45773180Y-46809386D01*
X45739846Y-46909386D01*
X45339846Y-47309386D01*
X45773180Y-47309386D01*
X46373180Y-46609386D02*
X46239846Y-46609386D01*
X46173180Y-46642720D01*
X46139846Y-46676053D01*
X46073180Y-46776053D01*
X46039846Y-46909386D01*
X46039846Y-47176053D01*
X46073180Y-47242720D01*
X46106513Y-47276053D01*
X46173180Y-47309386D01*
X46306513Y-47309386D01*
X46373180Y-47276053D01*
X46406513Y-47242720D01*
X46439846Y-47176053D01*
X46439846Y-47009386D01*
X46406513Y-46942720D01*
X46373180Y-46909386D01*
X46306513Y-46876053D01*
X46173180Y-46876053D01*
X46106513Y-46909386D01*
X46073180Y-46942720D01*
X46039846Y-47009386D01*
X62838180Y-59342720D02*
X62771513Y-59309386D01*
X62671513Y-59309386D01*
X62571513Y-59342720D01*
X62504846Y-59409386D01*
X62471513Y-59476053D01*
X62438180Y-59609386D01*
X62438180Y-59709386D01*
X62471513Y-59842720D01*
X62504846Y-59909386D01*
X62571513Y-59976053D01*
X62671513Y-60009386D01*
X62738180Y-60009386D01*
X62838180Y-59976053D01*
X62871513Y-59942720D01*
X62871513Y-59709386D01*
X62738180Y-59709386D01*
X63171513Y-60009386D02*
X63171513Y-59309386D01*
X63438180Y-59309386D01*
X63504846Y-59342720D01*
X63538180Y-59376053D01*
X63571513Y-59442720D01*
X63571513Y-59542720D01*
X63538180Y-59609386D01*
X63504846Y-59642720D01*
X63438180Y-59676053D01*
X63171513Y-59676053D01*
X63871513Y-60009386D02*
X63871513Y-59309386D01*
X64338180Y-59309386D02*
X64471513Y-59309386D01*
X64538180Y-59342720D01*
X64604846Y-59409386D01*
X64638180Y-59542720D01*
X64638180Y-59776053D01*
X64604846Y-59909386D01*
X64538180Y-59976053D01*
X64471513Y-60009386D01*
X64338180Y-60009386D01*
X64271513Y-59976053D01*
X64204846Y-59909386D01*
X64171513Y-59776053D01*
X64171513Y-59542720D01*
X64204846Y-59409386D01*
X64271513Y-59342720D01*
X64338180Y-59309386D01*
X64904846Y-59376053D02*
X64938180Y-59342720D01*
X65004846Y-59309386D01*
X65171513Y-59309386D01*
X65238180Y-59342720D01*
X65271513Y-59376053D01*
X65304846Y-59442720D01*
X65304846Y-59509386D01*
X65271513Y-59609386D01*
X64871513Y-60009386D01*
X65304846Y-60009386D01*
X43306513Y-59342720D02*
X43239846Y-59309386D01*
X43139846Y-59309386D01*
X43039846Y-59342720D01*
X42973180Y-59409386D01*
X42939846Y-59476053D01*
X42906513Y-59609386D01*
X42906513Y-59709386D01*
X42939846Y-59842720D01*
X42973180Y-59909386D01*
X43039846Y-59976053D01*
X43139846Y-60009386D01*
X43206513Y-60009386D01*
X43306513Y-59976053D01*
X43339846Y-59942720D01*
X43339846Y-59709386D01*
X43206513Y-59709386D01*
X43639846Y-60009386D02*
X43639846Y-59309386D01*
X43906513Y-59309386D01*
X43973180Y-59342720D01*
X44006513Y-59376053D01*
X44039846Y-59442720D01*
X44039846Y-59542720D01*
X44006513Y-59609386D01*
X43973180Y-59642720D01*
X43906513Y-59676053D01*
X43639846Y-59676053D01*
X44339846Y-60009386D02*
X44339846Y-59309386D01*
X44806513Y-59309386D02*
X44939846Y-59309386D01*
X45006513Y-59342720D01*
X45073180Y-59409386D01*
X45106513Y-59542720D01*
X45106513Y-59776053D01*
X45073180Y-59909386D01*
X45006513Y-59976053D01*
X44939846Y-60009386D01*
X44806513Y-60009386D01*
X44739846Y-59976053D01*
X44673180Y-59909386D01*
X44639846Y-59776053D01*
X44639846Y-59542720D01*
X44673180Y-59409386D01*
X44739846Y-59342720D01*
X44806513Y-59309386D01*
X45773180Y-60009386D02*
X45373180Y-60009386D01*
X45573180Y-60009386D02*
X45573180Y-59309386D01*
X45506513Y-59409386D01*
X45439846Y-59476053D01*
X45373180Y-59509386D01*
X46006513Y-59309386D02*
X46439846Y-59309386D01*
X46206513Y-59576053D01*
X46306513Y-59576053D01*
X46373180Y-59609386D01*
X46406513Y-59642720D01*
X46439846Y-59709386D01*
X46439846Y-59876053D01*
X46406513Y-59942720D01*
X46373180Y-59976053D01*
X46306513Y-60009386D01*
X46106513Y-60009386D01*
X46039846Y-59976053D01*
X46006513Y-59942720D01*
X47239846Y-59276053D02*
X46639846Y-60176053D01*
X47473180Y-60009386D02*
X47473180Y-59309386D01*
X47706513Y-59809386D01*
X47939846Y-59309386D01*
X47939846Y-60009386D01*
X48173180Y-59309386D02*
X48573180Y-59309386D01*
X48373180Y-60009386D02*
X48373180Y-59309386D01*
X49206513Y-59942720D02*
X49173180Y-59976053D01*
X49073180Y-60009386D01*
X49006513Y-60009386D01*
X48906513Y-59976053D01*
X48839846Y-59909386D01*
X48806513Y-59842720D01*
X48773180Y-59709386D01*
X48773180Y-59609386D01*
X48806513Y-59476053D01*
X48839846Y-59409386D01*
X48906513Y-59342720D01*
X49006513Y-59309386D01*
X49073180Y-59309386D01*
X49173180Y-59342720D01*
X49206513Y-59376053D01*
X49506513Y-60009386D02*
X49506513Y-59309386D01*
X49906513Y-60009386D02*
X49606513Y-59609386D01*
X49906513Y-59309386D02*
X49506513Y-59709386D01*
X42839846Y-31369386D02*
X43073180Y-32069386D01*
X43306513Y-31369386D01*
X43539846Y-32069386D02*
X43539846Y-31369386D01*
X43939846Y-32069386D01*
X43939846Y-31369386D01*
X44773180Y-31336053D02*
X44173180Y-32236053D01*
X45373180Y-31402720D02*
X45306513Y-31369386D01*
X45206513Y-31369386D01*
X45106513Y-31402720D01*
X45039846Y-31469386D01*
X45006513Y-31536053D01*
X44973180Y-31669386D01*
X44973180Y-31769386D01*
X45006513Y-31902720D01*
X45039846Y-31969386D01*
X45106513Y-32036053D01*
X45206513Y-32069386D01*
X45273180Y-32069386D01*
X45373180Y-32036053D01*
X45406513Y-32002720D01*
X45406513Y-31769386D01*
X45273180Y-31769386D01*
X45706513Y-32069386D02*
X45706513Y-31369386D01*
X45973180Y-31369386D01*
X46039846Y-31402720D01*
X46073180Y-31436053D01*
X46106513Y-31502720D01*
X46106513Y-31602720D01*
X46073180Y-31669386D01*
X46039846Y-31702720D01*
X45973180Y-31736053D01*
X45706513Y-31736053D01*
X46406513Y-32069386D02*
X46406513Y-31369386D01*
X46873180Y-31369386D02*
X47006513Y-31369386D01*
X47073180Y-31402720D01*
X47139846Y-31469386D01*
X47173180Y-31602720D01*
X47173180Y-31836053D01*
X47139846Y-31969386D01*
X47073180Y-32036053D01*
X47006513Y-32069386D01*
X46873180Y-32069386D01*
X46806513Y-32036053D01*
X46739846Y-31969386D01*
X46706513Y-31836053D01*
X46706513Y-31602720D01*
X46739846Y-31469386D01*
X46806513Y-31402720D01*
X46873180Y-31369386D01*
X47406513Y-31369386D02*
X47839846Y-31369386D01*
X47606513Y-31636053D01*
X47706513Y-31636053D01*
X47773180Y-31669386D01*
X47806513Y-31702720D01*
X47839846Y-31769386D01*
X47839846Y-31936053D01*
X47806513Y-32002720D01*
X47773180Y-32036053D01*
X47706513Y-32069386D01*
X47506513Y-32069386D01*
X47439846Y-32036053D01*
X47406513Y-32002720D01*
X48173180Y-32069386D02*
X48306513Y-32069386D01*
X48373180Y-32036053D01*
X48406513Y-32002720D01*
X48473180Y-31902720D01*
X48506513Y-31769386D01*
X48506513Y-31502720D01*
X48473180Y-31436053D01*
X48439846Y-31402720D01*
X48373180Y-31369386D01*
X48239846Y-31369386D01*
X48173180Y-31402720D01*
X48139846Y-31436053D01*
X48106513Y-31502720D01*
X48106513Y-31669386D01*
X48139846Y-31736053D01*
X48173180Y-31769386D01*
X48239846Y-31802720D01*
X48373180Y-31802720D01*
X48439846Y-31769386D01*
X48473180Y-31736053D01*
X48506513Y-31669386D01*
X62171513Y-41562720D02*
X62104846Y-41529386D01*
X62004846Y-41529386D01*
X61904846Y-41562720D01*
X61838180Y-41629386D01*
X61804846Y-41696053D01*
X61771513Y-41829386D01*
X61771513Y-41929386D01*
X61804846Y-42062720D01*
X61838180Y-42129386D01*
X61904846Y-42196053D01*
X62004846Y-42229386D01*
X62071513Y-42229386D01*
X62171513Y-42196053D01*
X62204846Y-42162720D01*
X62204846Y-41929386D01*
X62071513Y-41929386D01*
X62504846Y-42229386D02*
X62504846Y-41529386D01*
X62771513Y-41529386D01*
X62838180Y-41562720D01*
X62871513Y-41596053D01*
X62904846Y-41662720D01*
X62904846Y-41762720D01*
X62871513Y-41829386D01*
X62838180Y-41862720D01*
X62771513Y-41896053D01*
X62504846Y-41896053D01*
X63204846Y-42229386D02*
X63204846Y-41529386D01*
X63671513Y-41529386D02*
X63804846Y-41529386D01*
X63871513Y-41562720D01*
X63938180Y-41629386D01*
X63971513Y-41762720D01*
X63971513Y-41996053D01*
X63938180Y-42129386D01*
X63871513Y-42196053D01*
X63804846Y-42229386D01*
X63671513Y-42229386D01*
X63604846Y-42196053D01*
X63538180Y-42129386D01*
X63504846Y-41996053D01*
X63504846Y-41762720D01*
X63538180Y-41629386D01*
X63604846Y-41562720D01*
X63671513Y-41529386D01*
X64638180Y-42229386D02*
X64238180Y-42229386D01*
X64438180Y-42229386D02*
X64438180Y-41529386D01*
X64371513Y-41629386D01*
X64304846Y-41696053D01*
X64238180Y-41729386D01*
X64971513Y-42229386D02*
X65104846Y-42229386D01*
X65171513Y-42196053D01*
X65204846Y-42162720D01*
X65271513Y-42062720D01*
X65304846Y-41929386D01*
X65304846Y-41662720D01*
X65271513Y-41596053D01*
X65238180Y-41562720D01*
X65171513Y-41529386D01*
X65038180Y-41529386D01*
X64971513Y-41562720D01*
X64938180Y-41596053D01*
X64904846Y-41662720D01*
X64904846Y-41829386D01*
X64938180Y-41896053D01*
X64971513Y-41929386D01*
X65038180Y-41962720D01*
X65171513Y-41962720D01*
X65238180Y-41929386D01*
X65271513Y-41896053D01*
X65304846Y-41829386D01*
X43306513Y-41562720D02*
X43239846Y-41529386D01*
X43139846Y-41529386D01*
X43039846Y-41562720D01*
X42973180Y-41629386D01*
X42939846Y-41696053D01*
X42906513Y-41829386D01*
X42906513Y-41929386D01*
X42939846Y-42062720D01*
X42973180Y-42129386D01*
X43039846Y-42196053D01*
X43139846Y-42229386D01*
X43206513Y-42229386D01*
X43306513Y-42196053D01*
X43339846Y-42162720D01*
X43339846Y-41929386D01*
X43206513Y-41929386D01*
X43639846Y-42229386D02*
X43639846Y-41529386D01*
X43906513Y-41529386D01*
X43973180Y-41562720D01*
X44006513Y-41596053D01*
X44039846Y-41662720D01*
X44039846Y-41762720D01*
X44006513Y-41829386D01*
X43973180Y-41862720D01*
X43906513Y-41896053D01*
X43639846Y-41896053D01*
X44339846Y-42229386D02*
X44339846Y-41529386D01*
X44806513Y-41529386D02*
X44939846Y-41529386D01*
X45006513Y-41562720D01*
X45073180Y-41629386D01*
X45106513Y-41762720D01*
X45106513Y-41996053D01*
X45073180Y-42129386D01*
X45006513Y-42196053D01*
X44939846Y-42229386D01*
X44806513Y-42229386D01*
X44739846Y-42196053D01*
X44673180Y-42129386D01*
X44639846Y-41996053D01*
X44639846Y-41762720D01*
X44673180Y-41629386D01*
X44739846Y-41562720D01*
X44806513Y-41529386D01*
X45339846Y-41529386D02*
X45773180Y-41529386D01*
X45539846Y-41796053D01*
X45639846Y-41796053D01*
X45706513Y-41829386D01*
X45739846Y-41862720D01*
X45773180Y-41929386D01*
X45773180Y-42096053D01*
X45739846Y-42162720D01*
X45706513Y-42196053D01*
X45639846Y-42229386D01*
X45439846Y-42229386D01*
X45373180Y-42196053D01*
X45339846Y-42162720D01*
X46006513Y-41529386D02*
X46439846Y-41529386D01*
X46206513Y-41796053D01*
X46306513Y-41796053D01*
X46373180Y-41829386D01*
X46406513Y-41862720D01*
X46439846Y-41929386D01*
X46439846Y-42096053D01*
X46406513Y-42162720D01*
X46373180Y-42196053D01*
X46306513Y-42229386D01*
X46106513Y-42229386D01*
X46039846Y-42196053D01*
X46006513Y-42162720D01*
X43306513Y-49182720D02*
X43239846Y-49149386D01*
X43139846Y-49149386D01*
X43039846Y-49182720D01*
X42973180Y-49249386D01*
X42939846Y-49316053D01*
X42906513Y-49449386D01*
X42906513Y-49549386D01*
X42939846Y-49682720D01*
X42973180Y-49749386D01*
X43039846Y-49816053D01*
X43139846Y-49849386D01*
X43206513Y-49849386D01*
X43306513Y-49816053D01*
X43339846Y-49782720D01*
X43339846Y-49549386D01*
X43206513Y-49549386D01*
X43639846Y-49849386D02*
X43639846Y-49149386D01*
X43906513Y-49149386D01*
X43973180Y-49182720D01*
X44006513Y-49216053D01*
X44039846Y-49282720D01*
X44039846Y-49382720D01*
X44006513Y-49449386D01*
X43973180Y-49482720D01*
X43906513Y-49516053D01*
X43639846Y-49516053D01*
X44339846Y-49849386D02*
X44339846Y-49149386D01*
X44806513Y-49149386D02*
X44939846Y-49149386D01*
X45006513Y-49182720D01*
X45073180Y-49249386D01*
X45106513Y-49382720D01*
X45106513Y-49616053D01*
X45073180Y-49749386D01*
X45006513Y-49816053D01*
X44939846Y-49849386D01*
X44806513Y-49849386D01*
X44739846Y-49816053D01*
X44673180Y-49749386D01*
X44639846Y-49616053D01*
X44639846Y-49382720D01*
X44673180Y-49249386D01*
X44739846Y-49182720D01*
X44806513Y-49149386D01*
X45373180Y-49216053D02*
X45406513Y-49182720D01*
X45473180Y-49149386D01*
X45639846Y-49149386D01*
X45706513Y-49182720D01*
X45739846Y-49216053D01*
X45773180Y-49282720D01*
X45773180Y-49349386D01*
X45739846Y-49449386D01*
X45339846Y-49849386D01*
X45773180Y-49849386D01*
X46006513Y-49149386D02*
X46473180Y-49149386D01*
X46173180Y-49849386D01*
X42939846Y-62549386D02*
X42939846Y-61849386D01*
X43106513Y-61849386D01*
X43206513Y-61882720D01*
X43273180Y-61949386D01*
X43306513Y-62016053D01*
X43339846Y-62149386D01*
X43339846Y-62249386D01*
X43306513Y-62382720D01*
X43273180Y-62449386D01*
X43206513Y-62516053D01*
X43106513Y-62549386D01*
X42939846Y-62549386D01*
X43606513Y-61916053D02*
X43639846Y-61882720D01*
X43706513Y-61849386D01*
X43873180Y-61849386D01*
X43939846Y-61882720D01*
X43973180Y-61916053D01*
X44006513Y-61982720D01*
X44006513Y-62049386D01*
X43973180Y-62149386D01*
X43573180Y-62549386D01*
X44006513Y-62549386D01*
X42839846Y-28829386D02*
X43073180Y-29529386D01*
X43306513Y-28829386D01*
X43539846Y-29529386D02*
X43539846Y-28829386D01*
X43806513Y-28829386D01*
X43873180Y-28862720D01*
X43906513Y-28896053D01*
X43939846Y-28962720D01*
X43939846Y-29062720D01*
X43906513Y-29129386D01*
X43873180Y-29162720D01*
X43806513Y-29196053D01*
X43539846Y-29196053D01*
X44739846Y-28796053D02*
X44139846Y-29696053D01*
X45339846Y-28862720D02*
X45273180Y-28829386D01*
X45173180Y-28829386D01*
X45073180Y-28862720D01*
X45006513Y-28929386D01*
X44973180Y-28996053D01*
X44939846Y-29129386D01*
X44939846Y-29229386D01*
X44973180Y-29362720D01*
X45006513Y-29429386D01*
X45073180Y-29496053D01*
X45173180Y-29529386D01*
X45239846Y-29529386D01*
X45339846Y-29496053D01*
X45373180Y-29462720D01*
X45373180Y-29229386D01*
X45239846Y-29229386D01*
X45673180Y-29529386D02*
X45673180Y-28829386D01*
X45939846Y-28829386D01*
X46006513Y-28862720D01*
X46039846Y-28896053D01*
X46073180Y-28962720D01*
X46073180Y-29062720D01*
X46039846Y-29129386D01*
X46006513Y-29162720D01*
X45939846Y-29196053D01*
X45673180Y-29196053D01*
X46373180Y-29529386D02*
X46373180Y-28829386D01*
X46839846Y-28829386D02*
X46973180Y-28829386D01*
X47039846Y-28862720D01*
X47106513Y-28929386D01*
X47139846Y-29062720D01*
X47139846Y-29296053D01*
X47106513Y-29429386D01*
X47039846Y-29496053D01*
X46973180Y-29529386D01*
X46839846Y-29529386D01*
X46773180Y-29496053D01*
X46706513Y-29429386D01*
X46673180Y-29296053D01*
X46673180Y-29062720D01*
X46706513Y-28929386D01*
X46773180Y-28862720D01*
X46839846Y-28829386D01*
X47373180Y-28829386D02*
X47806513Y-28829386D01*
X47573180Y-29096053D01*
X47673180Y-29096053D01*
X47739846Y-29129386D01*
X47773180Y-29162720D01*
X47806513Y-29229386D01*
X47806513Y-29396053D01*
X47773180Y-29462720D01*
X47739846Y-29496053D01*
X47673180Y-29529386D01*
X47473180Y-29529386D01*
X47406513Y-29496053D01*
X47373180Y-29462720D01*
X48406513Y-28829386D02*
X48273180Y-28829386D01*
X48206513Y-28862720D01*
X48173180Y-28896053D01*
X48106513Y-28996053D01*
X48073180Y-29129386D01*
X48073180Y-29396053D01*
X48106513Y-29462720D01*
X48139846Y-29496053D01*
X48206513Y-29529386D01*
X48339846Y-29529386D01*
X48406513Y-29496053D01*
X48439846Y-29462720D01*
X48473180Y-29396053D01*
X48473180Y-29229386D01*
X48439846Y-29162720D01*
X48406513Y-29129386D01*
X48339846Y-29096053D01*
X48206513Y-29096053D01*
X48139846Y-29129386D01*
X48106513Y-29162720D01*
X48073180Y-29229386D01*
X43306513Y-54262720D02*
X43239846Y-54229386D01*
X43139846Y-54229386D01*
X43039846Y-54262720D01*
X42973180Y-54329386D01*
X42939846Y-54396053D01*
X42906513Y-54529386D01*
X42906513Y-54629386D01*
X42939846Y-54762720D01*
X42973180Y-54829386D01*
X43039846Y-54896053D01*
X43139846Y-54929386D01*
X43206513Y-54929386D01*
X43306513Y-54896053D01*
X43339846Y-54862720D01*
X43339846Y-54629386D01*
X43206513Y-54629386D01*
X43639846Y-54929386D02*
X43639846Y-54229386D01*
X43906513Y-54229386D01*
X43973180Y-54262720D01*
X44006513Y-54296053D01*
X44039846Y-54362720D01*
X44039846Y-54462720D01*
X44006513Y-54529386D01*
X43973180Y-54562720D01*
X43906513Y-54596053D01*
X43639846Y-54596053D01*
X44339846Y-54929386D02*
X44339846Y-54229386D01*
X44806513Y-54229386D02*
X44939846Y-54229386D01*
X45006513Y-54262720D01*
X45073180Y-54329386D01*
X45106513Y-54462720D01*
X45106513Y-54696053D01*
X45073180Y-54829386D01*
X45006513Y-54896053D01*
X44939846Y-54929386D01*
X44806513Y-54929386D01*
X44739846Y-54896053D01*
X44673180Y-54829386D01*
X44639846Y-54696053D01*
X44639846Y-54462720D01*
X44673180Y-54329386D01*
X44739846Y-54262720D01*
X44806513Y-54229386D01*
X45773180Y-54929386D02*
X45373180Y-54929386D01*
X45573180Y-54929386D02*
X45573180Y-54229386D01*
X45506513Y-54329386D01*
X45439846Y-54396053D01*
X45373180Y-54429386D01*
X46039846Y-54296053D02*
X46073180Y-54262720D01*
X46139846Y-54229386D01*
X46306513Y-54229386D01*
X46373180Y-54262720D01*
X46406513Y-54296053D01*
X46439846Y-54362720D01*
X46439846Y-54429386D01*
X46406513Y-54529386D01*
X46006513Y-54929386D01*
X46439846Y-54929386D01*
X47239846Y-54196053D02*
X46639846Y-55096053D01*
X47473180Y-54929386D02*
X47473180Y-54229386D01*
X47706513Y-54729386D01*
X47939846Y-54229386D01*
X47939846Y-54929386D01*
X48173180Y-54229386D02*
X48573180Y-54229386D01*
X48373180Y-54929386D02*
X48373180Y-54229386D01*
X48806513Y-54929386D02*
X48806513Y-54229386D01*
X48973180Y-54229386D01*
X49073180Y-54262720D01*
X49139846Y-54329386D01*
X49173180Y-54396053D01*
X49206513Y-54529386D01*
X49206513Y-54629386D01*
X49173180Y-54762720D01*
X49139846Y-54829386D01*
X49073180Y-54896053D01*
X48973180Y-54929386D01*
X48806513Y-54929386D01*
X49506513Y-54929386D02*
X49506513Y-54229386D01*
X64238180Y-65089386D02*
X64238180Y-64389386D01*
X64404846Y-64389386D01*
X64504846Y-64422720D01*
X64571513Y-64489386D01*
X64604846Y-64556053D01*
X64638180Y-64689386D01*
X64638180Y-64789386D01*
X64604846Y-64922720D01*
X64571513Y-64989386D01*
X64504846Y-65056053D01*
X64404846Y-65089386D01*
X64238180Y-65089386D01*
X65304846Y-65089386D02*
X64904846Y-65089386D01*
X65104846Y-65089386D02*
X65104846Y-64389386D01*
X65038180Y-64489386D01*
X64971513Y-64556053D01*
X64904846Y-64589386D01*
X62171513Y-36482720D02*
X62104846Y-36449386D01*
X62004846Y-36449386D01*
X61904846Y-36482720D01*
X61838180Y-36549386D01*
X61804846Y-36616053D01*
X61771513Y-36749386D01*
X61771513Y-36849386D01*
X61804846Y-36982720D01*
X61838180Y-37049386D01*
X61904846Y-37116053D01*
X62004846Y-37149386D01*
X62071513Y-37149386D01*
X62171513Y-37116053D01*
X62204846Y-37082720D01*
X62204846Y-36849386D01*
X62071513Y-36849386D01*
X62504846Y-37149386D02*
X62504846Y-36449386D01*
X62771513Y-36449386D01*
X62838180Y-36482720D01*
X62871513Y-36516053D01*
X62904846Y-36582720D01*
X62904846Y-36682720D01*
X62871513Y-36749386D01*
X62838180Y-36782720D01*
X62771513Y-36816053D01*
X62504846Y-36816053D01*
X63204846Y-37149386D02*
X63204846Y-36449386D01*
X63671513Y-36449386D02*
X63804846Y-36449386D01*
X63871513Y-36482720D01*
X63938180Y-36549386D01*
X63971513Y-36682720D01*
X63971513Y-36916053D01*
X63938180Y-37049386D01*
X63871513Y-37116053D01*
X63804846Y-37149386D01*
X63671513Y-37149386D01*
X63604846Y-37116053D01*
X63538180Y-37049386D01*
X63504846Y-36916053D01*
X63504846Y-36682720D01*
X63538180Y-36549386D01*
X63604846Y-36482720D01*
X63671513Y-36449386D01*
X64238180Y-36516053D02*
X64271513Y-36482720D01*
X64338180Y-36449386D01*
X64504846Y-36449386D01*
X64571513Y-36482720D01*
X64604846Y-36516053D01*
X64638180Y-36582720D01*
X64638180Y-36649386D01*
X64604846Y-36749386D01*
X64204846Y-37149386D01*
X64638180Y-37149386D01*
X65304846Y-37149386D02*
X64904846Y-37149386D01*
X65104846Y-37149386D02*
X65104846Y-36449386D01*
X65038180Y-36549386D01*
X64971513Y-36616053D01*
X64904846Y-36649386D01*
X43483785Y-69556380D02*
X43007595Y-69556380D01*
X42959976Y-70032571D01*
X43007595Y-69984952D01*
X43102833Y-69937333D01*
X43340928Y-69937333D01*
X43436166Y-69984952D01*
X43483785Y-70032571D01*
X43531404Y-70127809D01*
X43531404Y-70365904D01*
X43483785Y-70461142D01*
X43436166Y-70508761D01*
X43340928Y-70556380D01*
X43102833Y-70556380D01*
X43007595Y-70508761D01*
X42959976Y-70461142D01*
X43817119Y-69556380D02*
X44150452Y-70556380D01*
X44483785Y-69556380D01*
X64238180Y-67629386D02*
X64238180Y-66929386D01*
X64404846Y-66929386D01*
X64504846Y-66962720D01*
X64571513Y-67029386D01*
X64604846Y-67096053D01*
X64638180Y-67229386D01*
X64638180Y-67329386D01*
X64604846Y-67462720D01*
X64571513Y-67529386D01*
X64504846Y-67596053D01*
X64404846Y-67629386D01*
X64238180Y-67629386D01*
X65071513Y-66929386D02*
X65138180Y-66929386D01*
X65204846Y-66962720D01*
X65238180Y-66996053D01*
X65271513Y-67062720D01*
X65304846Y-67196053D01*
X65304846Y-67362720D01*
X65271513Y-67496053D01*
X65238180Y-67562720D01*
X65204846Y-67596053D01*
X65138180Y-67629386D01*
X65071513Y-67629386D01*
X65004846Y-67596053D01*
X64971513Y-67562720D01*
X64938180Y-67496053D01*
X64904846Y-67362720D01*
X64904846Y-67196053D01*
X64938180Y-67062720D01*
X64971513Y-66996053D01*
X65004846Y-66962720D01*
X65071513Y-66929386D01*
X62838180Y-46642720D02*
X62771513Y-46609386D01*
X62671513Y-46609386D01*
X62571513Y-46642720D01*
X62504846Y-46709386D01*
X62471513Y-46776053D01*
X62438180Y-46909386D01*
X62438180Y-47009386D01*
X62471513Y-47142720D01*
X62504846Y-47209386D01*
X62571513Y-47276053D01*
X62671513Y-47309386D01*
X62738180Y-47309386D01*
X62838180Y-47276053D01*
X62871513Y-47242720D01*
X62871513Y-47009386D01*
X62738180Y-47009386D01*
X63171513Y-47309386D02*
X63171513Y-46609386D01*
X63438180Y-46609386D01*
X63504846Y-46642720D01*
X63538180Y-46676053D01*
X63571513Y-46742720D01*
X63571513Y-46842720D01*
X63538180Y-46909386D01*
X63504846Y-46942720D01*
X63438180Y-46976053D01*
X63171513Y-46976053D01*
X63871513Y-47309386D02*
X63871513Y-46609386D01*
X64338180Y-46609386D02*
X64471513Y-46609386D01*
X64538180Y-46642720D01*
X64604846Y-46709386D01*
X64638180Y-46842720D01*
X64638180Y-47076053D01*
X64604846Y-47209386D01*
X64538180Y-47276053D01*
X64471513Y-47309386D01*
X64338180Y-47309386D01*
X64271513Y-47276053D01*
X64204846Y-47209386D01*
X64171513Y-47076053D01*
X64171513Y-46842720D01*
X64204846Y-46709386D01*
X64271513Y-46642720D01*
X64338180Y-46609386D01*
X65271513Y-46609386D02*
X64938180Y-46609386D01*
X64904846Y-46942720D01*
X64938180Y-46909386D01*
X65004846Y-46876053D01*
X65171513Y-46876053D01*
X65238180Y-46909386D01*
X65271513Y-46942720D01*
X65304846Y-47009386D01*
X65304846Y-47176053D01*
X65271513Y-47242720D01*
X65238180Y-47276053D01*
X65171513Y-47309386D01*
X65004846Y-47309386D01*
X64938180Y-47276053D01*
X64904846Y-47242720D01*
X62171513Y-26322720D02*
X62104846Y-26289386D01*
X62004846Y-26289386D01*
X61904846Y-26322720D01*
X61838180Y-26389386D01*
X61804846Y-26456053D01*
X61771513Y-26589386D01*
X61771513Y-26689386D01*
X61804846Y-26822720D01*
X61838180Y-26889386D01*
X61904846Y-26956053D01*
X62004846Y-26989386D01*
X62071513Y-26989386D01*
X62171513Y-26956053D01*
X62204846Y-26922720D01*
X62204846Y-26689386D01*
X62071513Y-26689386D01*
X62504846Y-26989386D02*
X62504846Y-26289386D01*
X62771513Y-26289386D01*
X62838180Y-26322720D01*
X62871513Y-26356053D01*
X62904846Y-26422720D01*
X62904846Y-26522720D01*
X62871513Y-26589386D01*
X62838180Y-26622720D01*
X62771513Y-26656053D01*
X62504846Y-26656053D01*
X63204846Y-26989386D02*
X63204846Y-26289386D01*
X63671513Y-26289386D02*
X63804846Y-26289386D01*
X63871513Y-26322720D01*
X63938180Y-26389386D01*
X63971513Y-26522720D01*
X63971513Y-26756053D01*
X63938180Y-26889386D01*
X63871513Y-26956053D01*
X63804846Y-26989386D01*
X63671513Y-26989386D01*
X63604846Y-26956053D01*
X63538180Y-26889386D01*
X63504846Y-26756053D01*
X63504846Y-26522720D01*
X63538180Y-26389386D01*
X63604846Y-26322720D01*
X63671513Y-26289386D01*
X64238180Y-26356053D02*
X64271513Y-26322720D01*
X64338180Y-26289386D01*
X64504846Y-26289386D01*
X64571513Y-26322720D01*
X64604846Y-26356053D01*
X64638180Y-26422720D01*
X64638180Y-26489386D01*
X64604846Y-26589386D01*
X64204846Y-26989386D01*
X64638180Y-26989386D01*
X64871513Y-26289386D02*
X65304846Y-26289386D01*
X65071513Y-26556053D01*
X65171513Y-26556053D01*
X65238180Y-26589386D01*
X65271513Y-26622720D01*
X65304846Y-26689386D01*
X65304846Y-26856053D01*
X65271513Y-26922720D01*
X65238180Y-26956053D01*
X65171513Y-26989386D01*
X64971513Y-26989386D01*
X64904846Y-26956053D01*
X64871513Y-26922720D01*
X63152465Y-23632720D02*
X63057227Y-23585100D01*
X62914370Y-23585100D01*
X62771513Y-23632720D01*
X62676275Y-23727958D01*
X62628656Y-23823196D01*
X62581037Y-24013672D01*
X62581037Y-24156529D01*
X62628656Y-24347005D01*
X62676275Y-24442243D01*
X62771513Y-24537481D01*
X62914370Y-24585100D01*
X63009608Y-24585100D01*
X63152465Y-24537481D01*
X63200084Y-24489862D01*
X63200084Y-24156529D01*
X63009608Y-24156529D01*
X63628656Y-24585100D02*
X63628656Y-23585100D01*
X64200084Y-24585100D01*
X64200084Y-23585100D01*
X64676275Y-24585100D02*
X64676275Y-23585100D01*
X64914370Y-23585100D01*
X65057227Y-23632720D01*
X65152465Y-23727958D01*
X65200084Y-23823196D01*
X65247703Y-24013672D01*
X65247703Y-24156529D01*
X65200084Y-24347005D01*
X65152465Y-24442243D01*
X65057227Y-24537481D01*
X64914370Y-24585100D01*
X64676275Y-24585100D01*
%TO.C,U2*%
X79883095Y-46950380D02*
X79883095Y-47759904D01*
X79930714Y-47855142D01*
X79978333Y-47902761D01*
X80073571Y-47950380D01*
X80264047Y-47950380D01*
X80359285Y-47902761D01*
X80406904Y-47855142D01*
X80454523Y-47759904D01*
X80454523Y-46950380D01*
X80883095Y-47045619D02*
X80930714Y-46998000D01*
X81025952Y-46950380D01*
X81264047Y-46950380D01*
X81359285Y-46998000D01*
X81406904Y-47045619D01*
X81454523Y-47140857D01*
X81454523Y-47236095D01*
X81406904Y-47378952D01*
X80835476Y-47950380D01*
X81454523Y-47950380D01*
%TO.C,JStrip2*%
X70621380Y-66768238D02*
X71335666Y-66768238D01*
X71478523Y-66815857D01*
X71573761Y-66911095D01*
X71621380Y-67053952D01*
X71621380Y-67149190D01*
X71573761Y-66339666D02*
X71621380Y-66196809D01*
X71621380Y-65958714D01*
X71573761Y-65863476D01*
X71526142Y-65815857D01*
X71430904Y-65768238D01*
X71335666Y-65768238D01*
X71240428Y-65815857D01*
X71192809Y-65863476D01*
X71145190Y-65958714D01*
X71097571Y-66149190D01*
X71049952Y-66244428D01*
X71002333Y-66292047D01*
X70907095Y-66339666D01*
X70811857Y-66339666D01*
X70716619Y-66292047D01*
X70669000Y-66244428D01*
X70621380Y-66149190D01*
X70621380Y-65911095D01*
X70669000Y-65768238D01*
X70954714Y-65482523D02*
X70954714Y-65101571D01*
X70621380Y-65339666D02*
X71478523Y-65339666D01*
X71573761Y-65292047D01*
X71621380Y-65196809D01*
X71621380Y-65101571D01*
X71621380Y-64768238D02*
X70954714Y-64768238D01*
X71145190Y-64768238D02*
X71049952Y-64720619D01*
X71002333Y-64673000D01*
X70954714Y-64577761D01*
X70954714Y-64482523D01*
X71621380Y-64149190D02*
X70954714Y-64149190D01*
X70621380Y-64149190D02*
X70669000Y-64196809D01*
X70716619Y-64149190D01*
X70669000Y-64101571D01*
X70621380Y-64149190D01*
X70716619Y-64149190D01*
X70954714Y-63673000D02*
X71954714Y-63673000D01*
X71002333Y-63673000D02*
X70954714Y-63577761D01*
X70954714Y-63387285D01*
X71002333Y-63292047D01*
X71049952Y-63244428D01*
X71145190Y-63196809D01*
X71430904Y-63196809D01*
X71526142Y-63244428D01*
X71573761Y-63292047D01*
X71621380Y-63387285D01*
X71621380Y-63577761D01*
X71573761Y-63673000D01*
X70716619Y-62815857D02*
X70669000Y-62768238D01*
X70621380Y-62673000D01*
X70621380Y-62434904D01*
X70669000Y-62339666D01*
X70716619Y-62292047D01*
X70811857Y-62244428D01*
X70907095Y-62244428D01*
X71049952Y-62292047D01*
X71621380Y-62863476D01*
X71621380Y-62244428D01*
%TD*%
M02*
