M48
; DRILL file {KiCad (5.1.12)-1} date 12/25/21 08:53:54
; FORMAT={-:-/ absolute / metric / decimal}
; #@! TF.CreationDate,2021-12-25T08:53:54+00:00
; #@! TF.GenerationSoftware,Kicad,Pcbnew,(5.1.12)-1
; #@! TF.FileFunction,Plated,1,2,PTH
FMAT,2
METRIC
T1C0.400
T2C0.762
T3C0.800
T4C1.000
T5C1.520
%
G90
G05
T1
X72.263Y-41.529
X76.835Y-26.162
X84.582Y-26.162
X93.345Y-20.447
X94.488Y-27.813
X95.885Y-20.447
T2
X26.226Y-28.981
X26.226Y-38.481
X129.476Y-19.621
X129.476Y-22.162
X129.476Y-24.701
X129.476Y-27.241
X129.476Y-29.781
X129.476Y-32.322
X139.636Y-19.621
X139.636Y-22.162
X139.636Y-24.701
X139.636Y-27.241
X139.636Y-29.781
X139.636Y-32.322
T3
X75.568Y-17.395
X75.568Y-42.795
X78.108Y-17.395
X78.108Y-42.795
X80.648Y-17.395
X80.648Y-42.795
X83.188Y-17.395
X83.188Y-42.795
X85.728Y-17.395
X85.728Y-42.795
X88.268Y-17.395
X88.268Y-42.795
X90.808Y-17.395
X90.808Y-42.795
X93.348Y-17.395
X93.348Y-42.795
X95.888Y-17.395
X95.888Y-42.795
X98.428Y-17.395
X98.428Y-42.795
X100.968Y-17.395
X100.968Y-42.795
X103.508Y-17.395
X103.508Y-42.795
X106.048Y-17.395
X106.048Y-42.795
X108.588Y-17.395
X108.588Y-42.795
X111.128Y-17.395
X111.128Y-42.795
X113.668Y-17.395
X113.668Y-42.795
X116.208Y-17.395
X116.208Y-42.795
X118.745Y-17.399
X118.748Y-42.795
X121.285Y-17.399
X121.288Y-42.795
T4
X35.56Y-31.369
X35.56Y-36.369
X64.96Y-26.169
X64.96Y-41.569
T5
X148.844Y-22.225
X149.098Y-34.417
X153.924Y-22.225
X154.178Y-34.417
X159.004Y-22.225
X159.258Y-34.417
T0
M30
