%TF.GenerationSoftware,KiCad,Pcbnew,(5.1.12)-1*%
%TF.CreationDate,2021-12-24T05:07:40+00:00*%
%TF.ProjectId,ledDeviceServerEsp32Pio,6c656444-6576-4696-9365-536572766572,rev?*%
%TF.SameCoordinates,Original*%
%TF.FileFunction,Copper,L2,Bot*%
%TF.FilePolarity,Positive*%
%FSLAX46Y46*%
G04 Gerber Fmt 4.6, Leading zero omitted, Abs format (unit mm)*
G04 Created by KiCad (PCBNEW (5.1.12)-1) date 2021-12-24 05:07:40*
%MOMM*%
%LPD*%
G01*
G04 APERTURE LIST*
%TA.AperFunction,ComponentPad*%
%ADD10R,3.000000X3.000000*%
%TD*%
%TA.AperFunction,ComponentPad*%
%ADD11C,3.000000*%
%TD*%
%TA.AperFunction,ComponentPad*%
%ADD12C,1.524000*%
%TD*%
%TA.AperFunction,ComponentPad*%
%ADD13C,2.300000*%
%TD*%
%TA.AperFunction,ComponentPad*%
%ADD14R,2.000000X2.300000*%
%TD*%
%TA.AperFunction,ComponentPad*%
%ADD15O,2.000000X1.200000*%
%TD*%
%TA.AperFunction,Conductor*%
%ADD16C,2.000000*%
%TD*%
%TA.AperFunction,Conductor*%
%ADD17C,1.000000*%
%TD*%
G04 APERTURE END LIST*
D10*
%TO.P,JStrip1,1*%
%TO.N,/DATA1*%
X73406000Y-26543000D03*
D11*
%TO.P,JStrip1,2*%
%TO.N,/CLOCK1*%
X73406000Y-31623000D03*
%TO.P,JStrip1,3*%
%TO.N,GND*%
X73406000Y-36703000D03*
%TD*%
D12*
%TO.P,JAC1,1*%
%TO.N,Net-(JAC1-Pad1)*%
X32385000Y-62484000D03*
%TO.P,JAC1,2*%
%TO.N,Net-(JAC1-Pad2)*%
X22885000Y-62484000D03*
%TD*%
D13*
%TO.P,PS1,3*%
%TO.N,GND*%
X20200000Y-25845000D03*
D14*
%TO.P,PS1,1*%
%TO.N,Net-(JAC1-Pad2)*%
X25400000Y-55245000D03*
D13*
%TO.P,PS1,2*%
%TO.N,Net-(JAC1-Pad1)*%
X30400000Y-55245000D03*
%TO.P,PS1,4*%
%TO.N,Net-(PS1-Pad4)*%
X35600000Y-25845000D03*
%TD*%
D15*
%TO.P,U1,1*%
%TO.N,Net-(U1-Pad1)*%
X41405680Y-24132720D03*
%TO.P,U1,2*%
%TO.N,N/C*%
X41405680Y-26672720D03*
%TO.P,U1,3*%
X41405680Y-29212720D03*
%TO.P,U1,4*%
X41405680Y-31752720D03*
%TO.P,U1,5*%
X41405680Y-34292720D03*
%TO.P,U1,6*%
X41405680Y-36832720D03*
%TO.P,U1,7*%
X41405680Y-39372720D03*
%TO.P,U1,8*%
X41405680Y-41912720D03*
%TO.P,U1,9*%
X41405680Y-44452720D03*
%TO.P,U1,10*%
X41405680Y-46992720D03*
%TO.P,U1,11*%
X41405680Y-49532720D03*
%TO.P,U1,12*%
X41405680Y-52072720D03*
%TO.P,U1,13*%
X41405680Y-54612720D03*
%TO.P,U1,14*%
%TO.N,GND*%
%TA.AperFunction,ComponentPad*%
G36*
G01*
X40705680Y-56552720D02*
X42105680Y-56552720D01*
G75*
G02*
X42405680Y-56852720I0J-300000D01*
G01*
X42405680Y-57452720D01*
G75*
G02*
X42105680Y-57752720I-300000J0D01*
G01*
X40705680Y-57752720D01*
G75*
G02*
X40405680Y-57452720I0J300000D01*
G01*
X40405680Y-56852720D01*
G75*
G02*
X40705680Y-56552720I300000J0D01*
G01*
G37*
%TD.AperFunction*%
%TO.P,U1,15*%
%TO.N,N/C*%
X41405680Y-59692720D03*
%TO.P,U1,16*%
X41405680Y-62232720D03*
%TO.P,U1,17*%
X41405680Y-64772720D03*
%TO.P,U1,18*%
X41405680Y-67312720D03*
%TO.P,U1,19*%
%TO.N,Net-(PS1-Pad4)*%
X41405680Y-69852720D03*
%TO.P,U1,20*%
%TO.N,N/C*%
X66802000Y-69850000D03*
%TO.P,U1,21*%
X66802000Y-67310000D03*
%TO.P,U1,22*%
X66805680Y-64772720D03*
%TO.P,U1,23*%
X66805680Y-62232720D03*
%TO.P,U1,24*%
X66805680Y-59692720D03*
%TO.P,U1,25*%
X66805680Y-57152720D03*
%TO.P,U1,26*%
X66805680Y-54612720D03*
%TO.P,U1,27*%
%TO.N,Net-(U1-Pad27)*%
X66805680Y-52072720D03*
%TO.P,U1,28*%
%TO.N,Net-(U1-Pad28)*%
X66805680Y-49532720D03*
%TO.P,U1,29*%
%TO.N,N/C*%
X66805680Y-46992720D03*
%TO.P,U1,30*%
%TO.N,Net-(U1-Pad30)*%
X66805680Y-44452720D03*
%TO.P,U1,31*%
%TO.N,Net-(U1-Pad31)*%
X66805680Y-41912720D03*
%TO.P,U1,32*%
%TO.N,GND*%
X66805680Y-39372720D03*
%TO.P,U1,33*%
%TO.N,N/C*%
X66805680Y-36832720D03*
%TO.P,U1,34*%
X66805680Y-34292720D03*
%TO.P,U1,35*%
X66805680Y-31752720D03*
%TO.P,U1,36*%
X66805680Y-29212720D03*
%TO.P,U1,37*%
X66805680Y-26672720D03*
%TO.P,U1,38*%
%TA.AperFunction,ComponentPad*%
G36*
G01*
X66105680Y-23532720D02*
X67505680Y-23532720D01*
G75*
G02*
X67805680Y-23832720I0J-300000D01*
G01*
X67805680Y-24432720D01*
G75*
G02*
X67505680Y-24732720I-300000J0D01*
G01*
X66105680Y-24732720D01*
G75*
G02*
X65805680Y-24432720I0J300000D01*
G01*
X65805680Y-23832720D01*
G75*
G02*
X66105680Y-23532720I300000J0D01*
G01*
G37*
%TD.AperFunction*%
%TD*%
D12*
%TO.P,U2,11*%
%TO.N,/CLOCK2*%
X73025000Y-52578000D03*
%TO.P,U2,10*%
%TO.N,Net-(U1-Pad31)*%
X73025000Y-42418000D03*
%TO.P,U2,9*%
%TO.N,/DATA2*%
X75565000Y-52578000D03*
%TO.P,U2,8*%
%TO.N,Net-(U1-Pad30)*%
X75565000Y-42418000D03*
%TO.P,U2,7*%
%TO.N,/CLOCK1*%
X83185000Y-52578000D03*
%TO.P,U2,6*%
%TO.N,Net-(U1-Pad28)*%
X83185000Y-42418000D03*
%TO.P,U2,5*%
%TO.N,/DATA1*%
X85725000Y-52578000D03*
%TO.P,U2,4*%
%TO.N,Net-(U1-Pad27)*%
X85725000Y-42418000D03*
%TO.P,U2,3*%
%TO.N,GND*%
X78105000Y-52578000D03*
X78105000Y-42418000D03*
%TO.P,U2,2*%
%TO.N,Net-(PS1-Pad4)*%
X80645000Y-52578000D03*
%TO.P,U2,1*%
%TO.N,Net-(U1-Pad1)*%
X80645000Y-42418000D03*
%TD*%
D10*
%TO.P,JStrip2,1*%
%TO.N,/DATA2*%
X75819000Y-69723000D03*
D11*
%TO.P,JStrip2,2*%
%TO.N,/CLOCK2*%
X75819000Y-64643000D03*
%TO.P,JStrip2,3*%
%TO.N,GND*%
X75819000Y-59563000D03*
%TD*%
D16*
%TO.N,Net-(JAC1-Pad1)*%
X32385000Y-57230000D02*
X30400000Y-55245000D01*
X32385000Y-62484000D02*
X32385000Y-57230000D01*
%TO.N,Net-(JAC1-Pad2)*%
X22885000Y-57760000D02*
X25400000Y-55245000D01*
X22885000Y-62484000D02*
X22885000Y-57760000D01*
D17*
%TO.N,GND*%
X75819000Y-59563000D02*
X78105000Y-57277000D01*
X78105000Y-57277000D02*
X78105000Y-52578000D01*
D16*
X41405680Y-57152720D02*
X39118720Y-57152720D01*
X20200000Y-38234000D02*
X20200000Y-25845000D01*
X39118720Y-57152720D02*
X20200000Y-38234000D01*
X41405680Y-57152720D02*
X44701280Y-57152720D01*
X62481280Y-39372720D02*
X66805680Y-39372720D01*
X44701280Y-57152720D02*
X62481280Y-39372720D01*
X66805680Y-39372720D02*
X70736280Y-39372720D01*
D17*
X78105000Y-42418000D02*
X78105000Y-41402000D01*
X78105000Y-41402000D02*
X73406000Y-36703000D01*
D16*
X70736280Y-39372720D02*
X73406000Y-36703000D01*
%TO.N,Net-(PS1-Pad4)*%
X35600000Y-25845000D02*
X31345000Y-21590000D01*
X31345000Y-21590000D02*
X19050000Y-21590000D01*
X19050000Y-21590000D02*
X17849999Y-22790001D01*
X22608720Y-69852720D02*
X41405680Y-69852720D01*
X80645000Y-52578000D02*
X80645000Y-70993000D01*
X80645000Y-70993000D02*
X77851000Y-73787000D01*
X45339960Y-73787000D02*
X41405680Y-69852720D01*
X77851000Y-73787000D02*
X45339960Y-73787000D01*
X17849999Y-22790001D02*
X17849999Y-22917001D01*
X17849999Y-22917001D02*
X15494000Y-25273000D01*
X15494000Y-62738000D02*
X22608720Y-69852720D01*
X15494000Y-25273000D02*
X15494000Y-62738000D01*
D17*
%TO.N,/DATA1*%
X82296000Y-26543000D02*
X73406000Y-26543000D01*
X89916000Y-34163000D02*
X82296000Y-26543000D01*
X89916000Y-45085000D02*
X89916000Y-34163000D01*
X85725000Y-49276000D02*
X89916000Y-45085000D01*
X85725000Y-52578000D02*
X85725000Y-49276000D01*
%TO.N,/CLOCK1*%
X83185000Y-52578000D02*
X83185000Y-49403000D01*
X83185000Y-49403000D02*
X88138000Y-44450000D01*
X88138000Y-44450000D02*
X88138000Y-35306000D01*
X84455000Y-31623000D02*
X73406000Y-31623000D01*
X88138000Y-35306000D02*
X84455000Y-31623000D01*
%TO.N,/DATA2*%
X75565000Y-52578000D02*
X75565000Y-51054000D01*
X75565000Y-51054000D02*
X75057000Y-50546000D01*
X75057000Y-50546000D02*
X72517000Y-50546000D01*
X72517000Y-50546000D02*
X69469000Y-53594000D01*
X69469000Y-53594000D02*
X69469000Y-67437000D01*
X71755000Y-69723000D02*
X75819000Y-69723000D01*
X69469000Y-67437000D02*
X71755000Y-69723000D01*
%TO.N,/CLOCK2*%
X73025000Y-52578000D02*
X71501000Y-54102000D01*
X71501000Y-54102000D02*
X71501000Y-63246000D01*
X72898000Y-64643000D02*
X75819000Y-64643000D01*
X71501000Y-63246000D02*
X72898000Y-64643000D01*
%TO.N,Net-(U1-Pad27)*%
X66805680Y-52072720D02*
X69212280Y-52072720D01*
X69212280Y-52072720D02*
X72644000Y-48641000D01*
X72644000Y-48641000D02*
X80645000Y-48641000D01*
X85725000Y-43561000D02*
X85725000Y-42418000D01*
X80645000Y-48641000D02*
X85725000Y-43561000D01*
%TO.N,Net-(U1-Pad28)*%
X66805680Y-49532720D02*
X68323280Y-49532720D01*
X68323280Y-49532720D02*
X71374000Y-46482000D01*
X79121000Y-46482000D02*
X83185000Y-42418000D01*
X71374000Y-46482000D02*
X79121000Y-46482000D01*
%TO.N,Net-(U1-Pad30)*%
X66805680Y-44452720D02*
X74927280Y-44452720D01*
X75565000Y-43815000D02*
X75565000Y-42418000D01*
X74927280Y-44452720D02*
X75565000Y-43815000D01*
%TO.N,Net-(U1-Pad31)*%
X72519720Y-41912720D02*
X73025000Y-42418000D01*
X66805680Y-41912720D02*
X72519720Y-41912720D01*
%TD*%
M02*
