%TF.GenerationSoftware,KiCad,Pcbnew,(5.1.12)-1*%
%TF.CreationDate,2021-12-24T09:33:47+00:00*%
%TF.ProjectId,ledDeviceServerEsp32Pio,6c656444-6576-4696-9365-536572766572,rev?*%
%TF.SameCoordinates,Original*%
%TF.FileFunction,AssemblyDrawing,Top*%
%FSLAX46Y46*%
G04 Gerber Fmt 4.6, Leading zero omitted, Abs format (unit mm)*
G04 Created by KiCad (PCBNEW (5.1.12)-1) date 2021-12-24 09:33:47*
%MOMM*%
%LPD*%
G01*
G04 APERTURE LIST*
%ADD10C,0.100000*%
%ADD11C,0.120000*%
%ADD12C,0.150000*%
G04 APERTURE END LIST*
D10*
%TO.C,JStrip1*%
X69656000Y-24073000D02*
X77156000Y-24073000D01*
X69656000Y-39173000D02*
X69656000Y-24073000D01*
X77156000Y-39173000D02*
X69656000Y-39173000D01*
X77156000Y-24073000D02*
X77156000Y-39173000D01*
X70856000Y-24073000D02*
X70856000Y-39173000D01*
%TO.C,PS1*%
X24400000Y-57545000D02*
X17900000Y-57545000D01*
X24400000Y-57535000D02*
X25400000Y-56535000D01*
X25400000Y-56535000D02*
X26400000Y-57535000D01*
X17900000Y-57545000D02*
X17900000Y-23545000D01*
X37900000Y-57545000D02*
X26390000Y-57545000D01*
X37900000Y-23545000D02*
X17900000Y-23545000D01*
X37900000Y-57545000D02*
X37900000Y-23545000D01*
D11*
%TO.C,U2*%
X87122000Y-53975000D02*
X87122000Y-41021000D01*
X87122000Y-41021000D02*
X71755000Y-41021000D01*
X71755000Y-41021000D02*
X71755000Y-53975000D01*
X71755000Y-53975000D02*
X87122000Y-53975000D01*
D10*
%TO.C,JStrip2*%
X79569000Y-72193000D02*
X72069000Y-72193000D01*
X79569000Y-57093000D02*
X79569000Y-72193000D01*
X72069000Y-57093000D02*
X79569000Y-57093000D01*
X72069000Y-72193000D02*
X72069000Y-57093000D01*
X78369000Y-72193000D02*
X78369000Y-57093000D01*
%TD*%
%TO.C,H6*%
D12*
X80304285Y-20772380D02*
X80304285Y-19772380D01*
X80637619Y-20486666D01*
X80970952Y-19772380D01*
X80970952Y-20772380D01*
X81590000Y-20772380D02*
X81494761Y-20724761D01*
X81447142Y-20677142D01*
X81399523Y-20581904D01*
X81399523Y-20296190D01*
X81447142Y-20200952D01*
X81494761Y-20153333D01*
X81590000Y-20105714D01*
X81732857Y-20105714D01*
X81828095Y-20153333D01*
X81875714Y-20200952D01*
X81923333Y-20296190D01*
X81923333Y-20581904D01*
X81875714Y-20677142D01*
X81828095Y-20724761D01*
X81732857Y-20772380D01*
X81590000Y-20772380D01*
X82780476Y-20105714D02*
X82780476Y-20772380D01*
X82351904Y-20105714D02*
X82351904Y-20629523D01*
X82399523Y-20724761D01*
X82494761Y-20772380D01*
X82637619Y-20772380D01*
X82732857Y-20724761D01*
X82780476Y-20677142D01*
X83256666Y-20105714D02*
X83256666Y-20772380D01*
X83256666Y-20200952D02*
X83304285Y-20153333D01*
X83399523Y-20105714D01*
X83542380Y-20105714D01*
X83637619Y-20153333D01*
X83685238Y-20248571D01*
X83685238Y-20772380D01*
X84018571Y-20105714D02*
X84399523Y-20105714D01*
X84161428Y-19772380D02*
X84161428Y-20629523D01*
X84209047Y-20724761D01*
X84304285Y-20772380D01*
X84399523Y-20772380D01*
X84732857Y-20772380D02*
X84732857Y-20105714D01*
X84732857Y-19772380D02*
X84685238Y-19820000D01*
X84732857Y-19867619D01*
X84780476Y-19820000D01*
X84732857Y-19772380D01*
X84732857Y-19867619D01*
X85209047Y-20105714D02*
X85209047Y-20772380D01*
X85209047Y-20200952D02*
X85256666Y-20153333D01*
X85351904Y-20105714D01*
X85494761Y-20105714D01*
X85590000Y-20153333D01*
X85637619Y-20248571D01*
X85637619Y-20772380D01*
X86542380Y-20105714D02*
X86542380Y-20915238D01*
X86494761Y-21010476D01*
X86447142Y-21058095D01*
X86351904Y-21105714D01*
X86209047Y-21105714D01*
X86113809Y-21058095D01*
X86542380Y-20724761D02*
X86447142Y-20772380D01*
X86256666Y-20772380D01*
X86161428Y-20724761D01*
X86113809Y-20677142D01*
X86066190Y-20581904D01*
X86066190Y-20296190D01*
X86113809Y-20200952D01*
X86161428Y-20153333D01*
X86256666Y-20105714D01*
X86447142Y-20105714D01*
X86542380Y-20153333D01*
X87018571Y-20772380D02*
X87018571Y-19772380D01*
X87018571Y-20248571D02*
X87590000Y-20248571D01*
X87590000Y-20772380D02*
X87590000Y-19772380D01*
X88209047Y-20772380D02*
X88113809Y-20724761D01*
X88066190Y-20677142D01*
X88018571Y-20581904D01*
X88018571Y-20296190D01*
X88066190Y-20200952D01*
X88113809Y-20153333D01*
X88209047Y-20105714D01*
X88351904Y-20105714D01*
X88447142Y-20153333D01*
X88494761Y-20200952D01*
X88542380Y-20296190D01*
X88542380Y-20581904D01*
X88494761Y-20677142D01*
X88447142Y-20724761D01*
X88351904Y-20772380D01*
X88209047Y-20772380D01*
X89113809Y-20772380D02*
X89018571Y-20724761D01*
X88970952Y-20629523D01*
X88970952Y-19772380D01*
X89875714Y-20724761D02*
X89780476Y-20772380D01*
X89590000Y-20772380D01*
X89494761Y-20724761D01*
X89447142Y-20629523D01*
X89447142Y-20248571D01*
X89494761Y-20153333D01*
X89590000Y-20105714D01*
X89780476Y-20105714D01*
X89875714Y-20153333D01*
X89923333Y-20248571D01*
X89923333Y-20343809D01*
X89447142Y-20439047D01*
X86660095Y-16454380D02*
X86660095Y-15454380D01*
X86660095Y-15930571D02*
X87231523Y-15930571D01*
X87231523Y-16454380D02*
X87231523Y-15454380D01*
X88136285Y-15454380D02*
X87945809Y-15454380D01*
X87850571Y-15502000D01*
X87802952Y-15549619D01*
X87707714Y-15692476D01*
X87660095Y-15882952D01*
X87660095Y-16263904D01*
X87707714Y-16359142D01*
X87755333Y-16406761D01*
X87850571Y-16454380D01*
X88041047Y-16454380D01*
X88136285Y-16406761D01*
X88183904Y-16359142D01*
X88231523Y-16263904D01*
X88231523Y-16025809D01*
X88183904Y-15930571D01*
X88136285Y-15882952D01*
X88041047Y-15835333D01*
X87850571Y-15835333D01*
X87755333Y-15882952D01*
X87707714Y-15930571D01*
X87660095Y-16025809D01*
%TO.C,H5*%
X46014285Y-20400380D02*
X46014285Y-19400380D01*
X46347619Y-20114666D01*
X46680952Y-19400380D01*
X46680952Y-20400380D01*
X47300000Y-20400380D02*
X47204761Y-20352761D01*
X47157142Y-20305142D01*
X47109523Y-20209904D01*
X47109523Y-19924190D01*
X47157142Y-19828952D01*
X47204761Y-19781333D01*
X47300000Y-19733714D01*
X47442857Y-19733714D01*
X47538095Y-19781333D01*
X47585714Y-19828952D01*
X47633333Y-19924190D01*
X47633333Y-20209904D01*
X47585714Y-20305142D01*
X47538095Y-20352761D01*
X47442857Y-20400380D01*
X47300000Y-20400380D01*
X48490476Y-19733714D02*
X48490476Y-20400380D01*
X48061904Y-19733714D02*
X48061904Y-20257523D01*
X48109523Y-20352761D01*
X48204761Y-20400380D01*
X48347619Y-20400380D01*
X48442857Y-20352761D01*
X48490476Y-20305142D01*
X48966666Y-19733714D02*
X48966666Y-20400380D01*
X48966666Y-19828952D02*
X49014285Y-19781333D01*
X49109523Y-19733714D01*
X49252380Y-19733714D01*
X49347619Y-19781333D01*
X49395238Y-19876571D01*
X49395238Y-20400380D01*
X49728571Y-19733714D02*
X50109523Y-19733714D01*
X49871428Y-19400380D02*
X49871428Y-20257523D01*
X49919047Y-20352761D01*
X50014285Y-20400380D01*
X50109523Y-20400380D01*
X50442857Y-20400380D02*
X50442857Y-19733714D01*
X50442857Y-19400380D02*
X50395238Y-19448000D01*
X50442857Y-19495619D01*
X50490476Y-19448000D01*
X50442857Y-19400380D01*
X50442857Y-19495619D01*
X50919047Y-19733714D02*
X50919047Y-20400380D01*
X50919047Y-19828952D02*
X50966666Y-19781333D01*
X51061904Y-19733714D01*
X51204761Y-19733714D01*
X51300000Y-19781333D01*
X51347619Y-19876571D01*
X51347619Y-20400380D01*
X52252380Y-19733714D02*
X52252380Y-20543238D01*
X52204761Y-20638476D01*
X52157142Y-20686095D01*
X52061904Y-20733714D01*
X51919047Y-20733714D01*
X51823809Y-20686095D01*
X52252380Y-20352761D02*
X52157142Y-20400380D01*
X51966666Y-20400380D01*
X51871428Y-20352761D01*
X51823809Y-20305142D01*
X51776190Y-20209904D01*
X51776190Y-19924190D01*
X51823809Y-19828952D01*
X51871428Y-19781333D01*
X51966666Y-19733714D01*
X52157142Y-19733714D01*
X52252380Y-19781333D01*
X52728571Y-20400380D02*
X52728571Y-19400380D01*
X52728571Y-19876571D02*
X53300000Y-19876571D01*
X53300000Y-20400380D02*
X53300000Y-19400380D01*
X53919047Y-20400380D02*
X53823809Y-20352761D01*
X53776190Y-20305142D01*
X53728571Y-20209904D01*
X53728571Y-19924190D01*
X53776190Y-19828952D01*
X53823809Y-19781333D01*
X53919047Y-19733714D01*
X54061904Y-19733714D01*
X54157142Y-19781333D01*
X54204761Y-19828952D01*
X54252380Y-19924190D01*
X54252380Y-20209904D01*
X54204761Y-20305142D01*
X54157142Y-20352761D01*
X54061904Y-20400380D01*
X53919047Y-20400380D01*
X54823809Y-20400380D02*
X54728571Y-20352761D01*
X54680952Y-20257523D01*
X54680952Y-19400380D01*
X55585714Y-20352761D02*
X55490476Y-20400380D01*
X55300000Y-20400380D01*
X55204761Y-20352761D01*
X55157142Y-20257523D01*
X55157142Y-19876571D01*
X55204761Y-19781333D01*
X55300000Y-19733714D01*
X55490476Y-19733714D01*
X55585714Y-19781333D01*
X55633333Y-19876571D01*
X55633333Y-19971809D01*
X55157142Y-20067047D01*
X50338095Y-16200380D02*
X50338095Y-15200380D01*
X50338095Y-15676571D02*
X50909523Y-15676571D01*
X50909523Y-16200380D02*
X50909523Y-15200380D01*
X51861904Y-15200380D02*
X51385714Y-15200380D01*
X51338095Y-15676571D01*
X51385714Y-15628952D01*
X51480952Y-15581333D01*
X51719047Y-15581333D01*
X51814285Y-15628952D01*
X51861904Y-15676571D01*
X51909523Y-15771809D01*
X51909523Y-16009904D01*
X51861904Y-16105142D01*
X51814285Y-16152761D01*
X51719047Y-16200380D01*
X51480952Y-16200380D01*
X51385714Y-16152761D01*
X51338095Y-16105142D01*
%TO.C,H4*%
X11470285Y-20908380D02*
X11470285Y-19908380D01*
X11803619Y-20622666D01*
X12136952Y-19908380D01*
X12136952Y-20908380D01*
X12756000Y-20908380D02*
X12660761Y-20860761D01*
X12613142Y-20813142D01*
X12565523Y-20717904D01*
X12565523Y-20432190D01*
X12613142Y-20336952D01*
X12660761Y-20289333D01*
X12756000Y-20241714D01*
X12898857Y-20241714D01*
X12994095Y-20289333D01*
X13041714Y-20336952D01*
X13089333Y-20432190D01*
X13089333Y-20717904D01*
X13041714Y-20813142D01*
X12994095Y-20860761D01*
X12898857Y-20908380D01*
X12756000Y-20908380D01*
X13946476Y-20241714D02*
X13946476Y-20908380D01*
X13517904Y-20241714D02*
X13517904Y-20765523D01*
X13565523Y-20860761D01*
X13660761Y-20908380D01*
X13803619Y-20908380D01*
X13898857Y-20860761D01*
X13946476Y-20813142D01*
X14422666Y-20241714D02*
X14422666Y-20908380D01*
X14422666Y-20336952D02*
X14470285Y-20289333D01*
X14565523Y-20241714D01*
X14708380Y-20241714D01*
X14803619Y-20289333D01*
X14851238Y-20384571D01*
X14851238Y-20908380D01*
X15184571Y-20241714D02*
X15565523Y-20241714D01*
X15327428Y-19908380D02*
X15327428Y-20765523D01*
X15375047Y-20860761D01*
X15470285Y-20908380D01*
X15565523Y-20908380D01*
X15898857Y-20908380D02*
X15898857Y-20241714D01*
X15898857Y-19908380D02*
X15851238Y-19956000D01*
X15898857Y-20003619D01*
X15946476Y-19956000D01*
X15898857Y-19908380D01*
X15898857Y-20003619D01*
X16375047Y-20241714D02*
X16375047Y-20908380D01*
X16375047Y-20336952D02*
X16422666Y-20289333D01*
X16517904Y-20241714D01*
X16660761Y-20241714D01*
X16756000Y-20289333D01*
X16803619Y-20384571D01*
X16803619Y-20908380D01*
X17708380Y-20241714D02*
X17708380Y-21051238D01*
X17660761Y-21146476D01*
X17613142Y-21194095D01*
X17517904Y-21241714D01*
X17375047Y-21241714D01*
X17279809Y-21194095D01*
X17708380Y-20860761D02*
X17613142Y-20908380D01*
X17422666Y-20908380D01*
X17327428Y-20860761D01*
X17279809Y-20813142D01*
X17232190Y-20717904D01*
X17232190Y-20432190D01*
X17279809Y-20336952D01*
X17327428Y-20289333D01*
X17422666Y-20241714D01*
X17613142Y-20241714D01*
X17708380Y-20289333D01*
X18184571Y-20908380D02*
X18184571Y-19908380D01*
X18184571Y-20384571D02*
X18756000Y-20384571D01*
X18756000Y-20908380D02*
X18756000Y-19908380D01*
X19375047Y-20908380D02*
X19279809Y-20860761D01*
X19232190Y-20813142D01*
X19184571Y-20717904D01*
X19184571Y-20432190D01*
X19232190Y-20336952D01*
X19279809Y-20289333D01*
X19375047Y-20241714D01*
X19517904Y-20241714D01*
X19613142Y-20289333D01*
X19660761Y-20336952D01*
X19708380Y-20432190D01*
X19708380Y-20717904D01*
X19660761Y-20813142D01*
X19613142Y-20860761D01*
X19517904Y-20908380D01*
X19375047Y-20908380D01*
X20279809Y-20908380D02*
X20184571Y-20860761D01*
X20136952Y-20765523D01*
X20136952Y-19908380D01*
X21041714Y-20860761D02*
X20946476Y-20908380D01*
X20756000Y-20908380D01*
X20660761Y-20860761D01*
X20613142Y-20765523D01*
X20613142Y-20384571D01*
X20660761Y-20289333D01*
X20756000Y-20241714D01*
X20946476Y-20241714D01*
X21041714Y-20289333D01*
X21089333Y-20384571D01*
X21089333Y-20479809D01*
X20613142Y-20575047D01*
X15794095Y-16708380D02*
X15794095Y-15708380D01*
X15794095Y-16184571D02*
X16365523Y-16184571D01*
X16365523Y-16708380D02*
X16365523Y-15708380D01*
X17270285Y-16041714D02*
X17270285Y-16708380D01*
X17032190Y-15660761D02*
X16794095Y-16375047D01*
X17413142Y-16375047D01*
%TO.C,H1*%
X17312285Y-85415380D02*
X17312285Y-84415380D01*
X17645619Y-85129666D01*
X17978952Y-84415380D01*
X17978952Y-85415380D01*
X18598000Y-85415380D02*
X18502761Y-85367761D01*
X18455142Y-85320142D01*
X18407523Y-85224904D01*
X18407523Y-84939190D01*
X18455142Y-84843952D01*
X18502761Y-84796333D01*
X18598000Y-84748714D01*
X18740857Y-84748714D01*
X18836095Y-84796333D01*
X18883714Y-84843952D01*
X18931333Y-84939190D01*
X18931333Y-85224904D01*
X18883714Y-85320142D01*
X18836095Y-85367761D01*
X18740857Y-85415380D01*
X18598000Y-85415380D01*
X19788476Y-84748714D02*
X19788476Y-85415380D01*
X19359904Y-84748714D02*
X19359904Y-85272523D01*
X19407523Y-85367761D01*
X19502761Y-85415380D01*
X19645619Y-85415380D01*
X19740857Y-85367761D01*
X19788476Y-85320142D01*
X20264666Y-84748714D02*
X20264666Y-85415380D01*
X20264666Y-84843952D02*
X20312285Y-84796333D01*
X20407523Y-84748714D01*
X20550380Y-84748714D01*
X20645619Y-84796333D01*
X20693238Y-84891571D01*
X20693238Y-85415380D01*
X21026571Y-84748714D02*
X21407523Y-84748714D01*
X21169428Y-84415380D02*
X21169428Y-85272523D01*
X21217047Y-85367761D01*
X21312285Y-85415380D01*
X21407523Y-85415380D01*
X21740857Y-85415380D02*
X21740857Y-84748714D01*
X21740857Y-84415380D02*
X21693238Y-84463000D01*
X21740857Y-84510619D01*
X21788476Y-84463000D01*
X21740857Y-84415380D01*
X21740857Y-84510619D01*
X22217047Y-84748714D02*
X22217047Y-85415380D01*
X22217047Y-84843952D02*
X22264666Y-84796333D01*
X22359904Y-84748714D01*
X22502761Y-84748714D01*
X22598000Y-84796333D01*
X22645619Y-84891571D01*
X22645619Y-85415380D01*
X23550380Y-84748714D02*
X23550380Y-85558238D01*
X23502761Y-85653476D01*
X23455142Y-85701095D01*
X23359904Y-85748714D01*
X23217047Y-85748714D01*
X23121809Y-85701095D01*
X23550380Y-85367761D02*
X23455142Y-85415380D01*
X23264666Y-85415380D01*
X23169428Y-85367761D01*
X23121809Y-85320142D01*
X23074190Y-85224904D01*
X23074190Y-84939190D01*
X23121809Y-84843952D01*
X23169428Y-84796333D01*
X23264666Y-84748714D01*
X23455142Y-84748714D01*
X23550380Y-84796333D01*
X24026571Y-85415380D02*
X24026571Y-84415380D01*
X24026571Y-84891571D02*
X24598000Y-84891571D01*
X24598000Y-85415380D02*
X24598000Y-84415380D01*
X25217047Y-85415380D02*
X25121809Y-85367761D01*
X25074190Y-85320142D01*
X25026571Y-85224904D01*
X25026571Y-84939190D01*
X25074190Y-84843952D01*
X25121809Y-84796333D01*
X25217047Y-84748714D01*
X25359904Y-84748714D01*
X25455142Y-84796333D01*
X25502761Y-84843952D01*
X25550380Y-84939190D01*
X25550380Y-85224904D01*
X25502761Y-85320142D01*
X25455142Y-85367761D01*
X25359904Y-85415380D01*
X25217047Y-85415380D01*
X26121809Y-85415380D02*
X26026571Y-85367761D01*
X25978952Y-85272523D01*
X25978952Y-84415380D01*
X26883714Y-85367761D02*
X26788476Y-85415380D01*
X26598000Y-85415380D01*
X26502761Y-85367761D01*
X26455142Y-85272523D01*
X26455142Y-84891571D01*
X26502761Y-84796333D01*
X26598000Y-84748714D01*
X26788476Y-84748714D01*
X26883714Y-84796333D01*
X26931333Y-84891571D01*
X26931333Y-84986809D01*
X26455142Y-85082047D01*
X13538095Y-82452380D02*
X13538095Y-81452380D01*
X13538095Y-81928571D02*
X14109523Y-81928571D01*
X14109523Y-82452380D02*
X14109523Y-81452380D01*
X15109523Y-82452380D02*
X14538095Y-82452380D01*
X14823809Y-82452380D02*
X14823809Y-81452380D01*
X14728571Y-81595238D01*
X14633333Y-81690476D01*
X14538095Y-81738095D01*
%TO.C,H2*%
X37338285Y-84708380D02*
X37338285Y-83708380D01*
X37671619Y-84422666D01*
X38004952Y-83708380D01*
X38004952Y-84708380D01*
X38624000Y-84708380D02*
X38528761Y-84660761D01*
X38481142Y-84613142D01*
X38433523Y-84517904D01*
X38433523Y-84232190D01*
X38481142Y-84136952D01*
X38528761Y-84089333D01*
X38624000Y-84041714D01*
X38766857Y-84041714D01*
X38862095Y-84089333D01*
X38909714Y-84136952D01*
X38957333Y-84232190D01*
X38957333Y-84517904D01*
X38909714Y-84613142D01*
X38862095Y-84660761D01*
X38766857Y-84708380D01*
X38624000Y-84708380D01*
X39814476Y-84041714D02*
X39814476Y-84708380D01*
X39385904Y-84041714D02*
X39385904Y-84565523D01*
X39433523Y-84660761D01*
X39528761Y-84708380D01*
X39671619Y-84708380D01*
X39766857Y-84660761D01*
X39814476Y-84613142D01*
X40290666Y-84041714D02*
X40290666Y-84708380D01*
X40290666Y-84136952D02*
X40338285Y-84089333D01*
X40433523Y-84041714D01*
X40576380Y-84041714D01*
X40671619Y-84089333D01*
X40719238Y-84184571D01*
X40719238Y-84708380D01*
X41052571Y-84041714D02*
X41433523Y-84041714D01*
X41195428Y-83708380D02*
X41195428Y-84565523D01*
X41243047Y-84660761D01*
X41338285Y-84708380D01*
X41433523Y-84708380D01*
X41766857Y-84708380D02*
X41766857Y-84041714D01*
X41766857Y-83708380D02*
X41719238Y-83756000D01*
X41766857Y-83803619D01*
X41814476Y-83756000D01*
X41766857Y-83708380D01*
X41766857Y-83803619D01*
X42243047Y-84041714D02*
X42243047Y-84708380D01*
X42243047Y-84136952D02*
X42290666Y-84089333D01*
X42385904Y-84041714D01*
X42528761Y-84041714D01*
X42624000Y-84089333D01*
X42671619Y-84184571D01*
X42671619Y-84708380D01*
X43576380Y-84041714D02*
X43576380Y-84851238D01*
X43528761Y-84946476D01*
X43481142Y-84994095D01*
X43385904Y-85041714D01*
X43243047Y-85041714D01*
X43147809Y-84994095D01*
X43576380Y-84660761D02*
X43481142Y-84708380D01*
X43290666Y-84708380D01*
X43195428Y-84660761D01*
X43147809Y-84613142D01*
X43100190Y-84517904D01*
X43100190Y-84232190D01*
X43147809Y-84136952D01*
X43195428Y-84089333D01*
X43290666Y-84041714D01*
X43481142Y-84041714D01*
X43576380Y-84089333D01*
X44052571Y-84708380D02*
X44052571Y-83708380D01*
X44052571Y-84184571D02*
X44624000Y-84184571D01*
X44624000Y-84708380D02*
X44624000Y-83708380D01*
X45243047Y-84708380D02*
X45147809Y-84660761D01*
X45100190Y-84613142D01*
X45052571Y-84517904D01*
X45052571Y-84232190D01*
X45100190Y-84136952D01*
X45147809Y-84089333D01*
X45243047Y-84041714D01*
X45385904Y-84041714D01*
X45481142Y-84089333D01*
X45528761Y-84136952D01*
X45576380Y-84232190D01*
X45576380Y-84517904D01*
X45528761Y-84613142D01*
X45481142Y-84660761D01*
X45385904Y-84708380D01*
X45243047Y-84708380D01*
X46147809Y-84708380D02*
X46052571Y-84660761D01*
X46004952Y-84565523D01*
X46004952Y-83708380D01*
X46909714Y-84660761D02*
X46814476Y-84708380D01*
X46624000Y-84708380D01*
X46528761Y-84660761D01*
X46481142Y-84565523D01*
X46481142Y-84184571D01*
X46528761Y-84089333D01*
X46624000Y-84041714D01*
X46814476Y-84041714D01*
X46909714Y-84089333D01*
X46957333Y-84184571D01*
X46957333Y-84279809D01*
X46481142Y-84375047D01*
X50038095Y-82452380D02*
X50038095Y-81452380D01*
X50038095Y-81928571D02*
X50609523Y-81928571D01*
X50609523Y-82452380D02*
X50609523Y-81452380D01*
X51038095Y-81547619D02*
X51085714Y-81500000D01*
X51180952Y-81452380D01*
X51419047Y-81452380D01*
X51514285Y-81500000D01*
X51561904Y-81547619D01*
X51609523Y-81642857D01*
X51609523Y-81738095D01*
X51561904Y-81880952D01*
X50990476Y-82452380D01*
X51609523Y-82452380D01*
%TO.C,H3*%
X74208285Y-85415380D02*
X74208285Y-84415380D01*
X74541619Y-85129666D01*
X74874952Y-84415380D01*
X74874952Y-85415380D01*
X75494000Y-85415380D02*
X75398761Y-85367761D01*
X75351142Y-85320142D01*
X75303523Y-85224904D01*
X75303523Y-84939190D01*
X75351142Y-84843952D01*
X75398761Y-84796333D01*
X75494000Y-84748714D01*
X75636857Y-84748714D01*
X75732095Y-84796333D01*
X75779714Y-84843952D01*
X75827333Y-84939190D01*
X75827333Y-85224904D01*
X75779714Y-85320142D01*
X75732095Y-85367761D01*
X75636857Y-85415380D01*
X75494000Y-85415380D01*
X76684476Y-84748714D02*
X76684476Y-85415380D01*
X76255904Y-84748714D02*
X76255904Y-85272523D01*
X76303523Y-85367761D01*
X76398761Y-85415380D01*
X76541619Y-85415380D01*
X76636857Y-85367761D01*
X76684476Y-85320142D01*
X77160666Y-84748714D02*
X77160666Y-85415380D01*
X77160666Y-84843952D02*
X77208285Y-84796333D01*
X77303523Y-84748714D01*
X77446380Y-84748714D01*
X77541619Y-84796333D01*
X77589238Y-84891571D01*
X77589238Y-85415380D01*
X77922571Y-84748714D02*
X78303523Y-84748714D01*
X78065428Y-84415380D02*
X78065428Y-85272523D01*
X78113047Y-85367761D01*
X78208285Y-85415380D01*
X78303523Y-85415380D01*
X78636857Y-85415380D02*
X78636857Y-84748714D01*
X78636857Y-84415380D02*
X78589238Y-84463000D01*
X78636857Y-84510619D01*
X78684476Y-84463000D01*
X78636857Y-84415380D01*
X78636857Y-84510619D01*
X79113047Y-84748714D02*
X79113047Y-85415380D01*
X79113047Y-84843952D02*
X79160666Y-84796333D01*
X79255904Y-84748714D01*
X79398761Y-84748714D01*
X79494000Y-84796333D01*
X79541619Y-84891571D01*
X79541619Y-85415380D01*
X80446380Y-84748714D02*
X80446380Y-85558238D01*
X80398761Y-85653476D01*
X80351142Y-85701095D01*
X80255904Y-85748714D01*
X80113047Y-85748714D01*
X80017809Y-85701095D01*
X80446380Y-85367761D02*
X80351142Y-85415380D01*
X80160666Y-85415380D01*
X80065428Y-85367761D01*
X80017809Y-85320142D01*
X79970190Y-85224904D01*
X79970190Y-84939190D01*
X80017809Y-84843952D01*
X80065428Y-84796333D01*
X80160666Y-84748714D01*
X80351142Y-84748714D01*
X80446380Y-84796333D01*
X80922571Y-85415380D02*
X80922571Y-84415380D01*
X80922571Y-84891571D02*
X81494000Y-84891571D01*
X81494000Y-85415380D02*
X81494000Y-84415380D01*
X82113047Y-85415380D02*
X82017809Y-85367761D01*
X81970190Y-85320142D01*
X81922571Y-85224904D01*
X81922571Y-84939190D01*
X81970190Y-84843952D01*
X82017809Y-84796333D01*
X82113047Y-84748714D01*
X82255904Y-84748714D01*
X82351142Y-84796333D01*
X82398761Y-84843952D01*
X82446380Y-84939190D01*
X82446380Y-85224904D01*
X82398761Y-85320142D01*
X82351142Y-85367761D01*
X82255904Y-85415380D01*
X82113047Y-85415380D01*
X83017809Y-85415380D02*
X82922571Y-85367761D01*
X82874952Y-85272523D01*
X82874952Y-84415380D01*
X83779714Y-85367761D02*
X83684476Y-85415380D01*
X83494000Y-85415380D01*
X83398761Y-85367761D01*
X83351142Y-85272523D01*
X83351142Y-84891571D01*
X83398761Y-84796333D01*
X83494000Y-84748714D01*
X83684476Y-84748714D01*
X83779714Y-84796333D01*
X83827333Y-84891571D01*
X83827333Y-84986809D01*
X83351142Y-85082047D01*
X86538095Y-82452380D02*
X86538095Y-81452380D01*
X86538095Y-81928571D02*
X87109523Y-81928571D01*
X87109523Y-82452380D02*
X87109523Y-81452380D01*
X87490476Y-81452380D02*
X88109523Y-81452380D01*
X87776190Y-81833333D01*
X87919047Y-81833333D01*
X88014285Y-81880952D01*
X88061904Y-81928571D01*
X88109523Y-82023809D01*
X88109523Y-82261904D01*
X88061904Y-82357142D01*
X88014285Y-82404761D01*
X87919047Y-82452380D01*
X87633333Y-82452380D01*
X87538095Y-82404761D01*
X87490476Y-82357142D01*
%TO.C,JStrip1*%
X67778380Y-38194428D02*
X67778380Y-37623000D01*
X68778380Y-37908714D02*
X67778380Y-37908714D01*
X68730761Y-36908714D02*
X68778380Y-37003952D01*
X68778380Y-37194428D01*
X68730761Y-37289666D01*
X68635523Y-37337285D01*
X68254571Y-37337285D01*
X68159333Y-37289666D01*
X68111714Y-37194428D01*
X68111714Y-37003952D01*
X68159333Y-36908714D01*
X68254571Y-36861095D01*
X68349809Y-36861095D01*
X68445047Y-37337285D01*
X68778380Y-36432523D02*
X68111714Y-36432523D01*
X68302190Y-36432523D02*
X68206952Y-36384904D01*
X68159333Y-36337285D01*
X68111714Y-36242047D01*
X68111714Y-36146809D01*
X68778380Y-35813476D02*
X68111714Y-35813476D01*
X68206952Y-35813476D02*
X68159333Y-35765857D01*
X68111714Y-35670619D01*
X68111714Y-35527761D01*
X68159333Y-35432523D01*
X68254571Y-35384904D01*
X68778380Y-35384904D01*
X68254571Y-35384904D02*
X68159333Y-35337285D01*
X68111714Y-35242047D01*
X68111714Y-35099190D01*
X68159333Y-35003952D01*
X68254571Y-34956333D01*
X68778380Y-34956333D01*
X68778380Y-34480142D02*
X68111714Y-34480142D01*
X67778380Y-34480142D02*
X67826000Y-34527761D01*
X67873619Y-34480142D01*
X67826000Y-34432523D01*
X67778380Y-34480142D01*
X67873619Y-34480142D01*
X68111714Y-34003952D02*
X68778380Y-34003952D01*
X68206952Y-34003952D02*
X68159333Y-33956333D01*
X68111714Y-33861095D01*
X68111714Y-33718238D01*
X68159333Y-33623000D01*
X68254571Y-33575380D01*
X68778380Y-33575380D01*
X68778380Y-32670619D02*
X68254571Y-32670619D01*
X68159333Y-32718238D01*
X68111714Y-32813476D01*
X68111714Y-33003952D01*
X68159333Y-33099190D01*
X68730761Y-32670619D02*
X68778380Y-32765857D01*
X68778380Y-33003952D01*
X68730761Y-33099190D01*
X68635523Y-33146809D01*
X68540285Y-33146809D01*
X68445047Y-33099190D01*
X68397428Y-33003952D01*
X68397428Y-32765857D01*
X68349809Y-32670619D01*
X68778380Y-32051571D02*
X68730761Y-32146809D01*
X68635523Y-32194428D01*
X67778380Y-32194428D01*
X68873619Y-31908714D02*
X68873619Y-31146809D01*
X68778380Y-30432523D02*
X68778380Y-30908714D01*
X67778380Y-30908714D01*
X68683142Y-29527761D02*
X68730761Y-29575380D01*
X68778380Y-29718238D01*
X68778380Y-29813476D01*
X68730761Y-29956333D01*
X68635523Y-30051571D01*
X68540285Y-30099190D01*
X68349809Y-30146809D01*
X68206952Y-30146809D01*
X68016476Y-30099190D01*
X67921238Y-30051571D01*
X67826000Y-29956333D01*
X67778380Y-29813476D01*
X67778380Y-29718238D01*
X67826000Y-29575380D01*
X67873619Y-29527761D01*
X68778380Y-29099190D02*
X67778380Y-29099190D01*
X67778380Y-28861095D01*
X67826000Y-28718238D01*
X67921238Y-28623000D01*
X68016476Y-28575380D01*
X68206952Y-28527761D01*
X68349809Y-28527761D01*
X68540285Y-28575380D01*
X68635523Y-28623000D01*
X68730761Y-28718238D01*
X68778380Y-28861095D01*
X68778380Y-29099190D01*
X68730761Y-28146809D02*
X68778380Y-28051571D01*
X68778380Y-27861095D01*
X68730761Y-27765857D01*
X68635523Y-27718238D01*
X68587904Y-27718238D01*
X68492666Y-27765857D01*
X68445047Y-27861095D01*
X68445047Y-28003952D01*
X68397428Y-28099190D01*
X68302190Y-28146809D01*
X68254571Y-28146809D01*
X68159333Y-28099190D01*
X68111714Y-28003952D01*
X68111714Y-27861095D01*
X68159333Y-27765857D01*
X68111714Y-27432523D02*
X68111714Y-27051571D01*
X67778380Y-27289666D02*
X68635523Y-27289666D01*
X68730761Y-27242047D01*
X68778380Y-27146809D01*
X68778380Y-27051571D01*
X68778380Y-26718238D02*
X68111714Y-26718238D01*
X68302190Y-26718238D02*
X68206952Y-26670619D01*
X68159333Y-26623000D01*
X68111714Y-26527761D01*
X68111714Y-26432523D01*
X68778380Y-26099190D02*
X68111714Y-26099190D01*
X67778380Y-26099190D02*
X67826000Y-26146809D01*
X67873619Y-26099190D01*
X67826000Y-26051571D01*
X67778380Y-26099190D01*
X67873619Y-26099190D01*
X68111714Y-25623000D02*
X69111714Y-25623000D01*
X68159333Y-25623000D02*
X68111714Y-25527761D01*
X68111714Y-25337285D01*
X68159333Y-25242047D01*
X68206952Y-25194428D01*
X68302190Y-25146809D01*
X68587904Y-25146809D01*
X68683142Y-25194428D01*
X68730761Y-25242047D01*
X68778380Y-25337285D01*
X68778380Y-25527761D01*
X68730761Y-25623000D01*
X72858380Y-33718238D02*
X73572666Y-33718238D01*
X73715523Y-33765857D01*
X73810761Y-33861095D01*
X73858380Y-34003952D01*
X73858380Y-34099190D01*
X73810761Y-33289666D02*
X73858380Y-33146809D01*
X73858380Y-32908714D01*
X73810761Y-32813476D01*
X73763142Y-32765857D01*
X73667904Y-32718238D01*
X73572666Y-32718238D01*
X73477428Y-32765857D01*
X73429809Y-32813476D01*
X73382190Y-32908714D01*
X73334571Y-33099190D01*
X73286952Y-33194428D01*
X73239333Y-33242047D01*
X73144095Y-33289666D01*
X73048857Y-33289666D01*
X72953619Y-33242047D01*
X72906000Y-33194428D01*
X72858380Y-33099190D01*
X72858380Y-32861095D01*
X72906000Y-32718238D01*
X73191714Y-32432523D02*
X73191714Y-32051571D01*
X72858380Y-32289666D02*
X73715523Y-32289666D01*
X73810761Y-32242047D01*
X73858380Y-32146809D01*
X73858380Y-32051571D01*
X73858380Y-31718238D02*
X73191714Y-31718238D01*
X73382190Y-31718238D02*
X73286952Y-31670619D01*
X73239333Y-31623000D01*
X73191714Y-31527761D01*
X73191714Y-31432523D01*
X73858380Y-31099190D02*
X73191714Y-31099190D01*
X72858380Y-31099190D02*
X72906000Y-31146809D01*
X72953619Y-31099190D01*
X72906000Y-31051571D01*
X72858380Y-31099190D01*
X72953619Y-31099190D01*
X73191714Y-30623000D02*
X74191714Y-30623000D01*
X73239333Y-30623000D02*
X73191714Y-30527761D01*
X73191714Y-30337285D01*
X73239333Y-30242047D01*
X73286952Y-30194428D01*
X73382190Y-30146809D01*
X73667904Y-30146809D01*
X73763142Y-30194428D01*
X73810761Y-30242047D01*
X73858380Y-30337285D01*
X73858380Y-30527761D01*
X73810761Y-30623000D01*
X73858380Y-29194428D02*
X73858380Y-29765857D01*
X73858380Y-29480142D02*
X72858380Y-29480142D01*
X73001238Y-29575380D01*
X73096476Y-29670619D01*
X73144095Y-29765857D01*
%TO.C,JAC1*%
X23154238Y-71334380D02*
X23725666Y-71334380D01*
X23439952Y-72334380D02*
X23439952Y-71334380D01*
X24439952Y-72286761D02*
X24344714Y-72334380D01*
X24154238Y-72334380D01*
X24059000Y-72286761D01*
X24011380Y-72191523D01*
X24011380Y-71810571D01*
X24059000Y-71715333D01*
X24154238Y-71667714D01*
X24344714Y-71667714D01*
X24439952Y-71715333D01*
X24487571Y-71810571D01*
X24487571Y-71905809D01*
X24011380Y-72001047D01*
X24916142Y-72334380D02*
X24916142Y-71667714D01*
X24916142Y-71858190D02*
X24963761Y-71762952D01*
X25011380Y-71715333D01*
X25106619Y-71667714D01*
X25201857Y-71667714D01*
X25535190Y-72334380D02*
X25535190Y-71667714D01*
X25535190Y-71762952D02*
X25582809Y-71715333D01*
X25678047Y-71667714D01*
X25820904Y-71667714D01*
X25916142Y-71715333D01*
X25963761Y-71810571D01*
X25963761Y-72334380D01*
X25963761Y-71810571D02*
X26011380Y-71715333D01*
X26106619Y-71667714D01*
X26249476Y-71667714D01*
X26344714Y-71715333D01*
X26392333Y-71810571D01*
X26392333Y-72334380D01*
X26868523Y-72334380D02*
X26868523Y-71667714D01*
X26868523Y-71334380D02*
X26820904Y-71382000D01*
X26868523Y-71429619D01*
X26916142Y-71382000D01*
X26868523Y-71334380D01*
X26868523Y-71429619D01*
X27344714Y-71667714D02*
X27344714Y-72334380D01*
X27344714Y-71762952D02*
X27392333Y-71715333D01*
X27487571Y-71667714D01*
X27630428Y-71667714D01*
X27725666Y-71715333D01*
X27773285Y-71810571D01*
X27773285Y-72334380D01*
X28678047Y-72334380D02*
X28678047Y-71810571D01*
X28630428Y-71715333D01*
X28535190Y-71667714D01*
X28344714Y-71667714D01*
X28249476Y-71715333D01*
X28678047Y-72286761D02*
X28582809Y-72334380D01*
X28344714Y-72334380D01*
X28249476Y-72286761D01*
X28201857Y-72191523D01*
X28201857Y-72096285D01*
X28249476Y-72001047D01*
X28344714Y-71953428D01*
X28582809Y-71953428D01*
X28678047Y-71905809D01*
X29297095Y-72334380D02*
X29201857Y-72286761D01*
X29154238Y-72191523D01*
X29154238Y-71334380D01*
X29439952Y-72429619D02*
X30201857Y-72429619D01*
X30392333Y-72048666D02*
X30868523Y-72048666D01*
X30297095Y-72334380D02*
X30630428Y-71334380D01*
X30963761Y-72334380D01*
X31868523Y-72239142D02*
X31820904Y-72286761D01*
X31678047Y-72334380D01*
X31582809Y-72334380D01*
X31439952Y-72286761D01*
X31344714Y-72191523D01*
X31297095Y-72096285D01*
X31249476Y-71905809D01*
X31249476Y-71762952D01*
X31297095Y-71572476D01*
X31344714Y-71477238D01*
X31439952Y-71382000D01*
X31582809Y-71334380D01*
X31678047Y-71334380D01*
X31820904Y-71382000D01*
X31868523Y-71429619D01*
%TO.C,PS1*%
X39702380Y-43288333D02*
X38702380Y-43288333D01*
X39178571Y-43288333D02*
X39178571Y-42716904D01*
X39702380Y-42716904D02*
X38702380Y-42716904D01*
X39702380Y-41764523D02*
X39702380Y-42240714D01*
X38702380Y-42240714D01*
X39702380Y-41431190D02*
X38702380Y-41431190D01*
X39702380Y-40859761D02*
X39130952Y-41288333D01*
X38702380Y-40859761D02*
X39273809Y-41431190D01*
X39321428Y-40431190D02*
X39321428Y-39669285D01*
X39702380Y-39193095D02*
X38702380Y-39193095D01*
X38702380Y-38812142D01*
X38750000Y-38716904D01*
X38797619Y-38669285D01*
X38892857Y-38621666D01*
X39035714Y-38621666D01*
X39130952Y-38669285D01*
X39178571Y-38716904D01*
X39226190Y-38812142D01*
X39226190Y-39193095D01*
X39702380Y-38193095D02*
X38702380Y-38193095D01*
X39416666Y-37859761D01*
X38702380Y-37526428D01*
X39702380Y-37526428D01*
X38702380Y-36859761D02*
X38702380Y-36764523D01*
X38750000Y-36669285D01*
X38797619Y-36621666D01*
X38892857Y-36574047D01*
X39083333Y-36526428D01*
X39321428Y-36526428D01*
X39511904Y-36574047D01*
X39607142Y-36621666D01*
X39654761Y-36669285D01*
X39702380Y-36764523D01*
X39702380Y-36859761D01*
X39654761Y-36955000D01*
X39607142Y-37002619D01*
X39511904Y-37050238D01*
X39321428Y-37097857D01*
X39083333Y-37097857D01*
X38892857Y-37050238D01*
X38797619Y-37002619D01*
X38750000Y-36955000D01*
X38702380Y-36859761D01*
X39702380Y-35574047D02*
X39702380Y-36145476D01*
X39702380Y-35859761D02*
X38702380Y-35859761D01*
X38845238Y-35955000D01*
X38940476Y-36050238D01*
X38988095Y-36145476D01*
X26471714Y-37536380D02*
X26471714Y-36536380D01*
X26852666Y-36536380D01*
X26947904Y-36584000D01*
X26995523Y-36631619D01*
X27043142Y-36726857D01*
X27043142Y-36869714D01*
X26995523Y-36964952D01*
X26947904Y-37012571D01*
X26852666Y-37060190D01*
X26471714Y-37060190D01*
X27424095Y-37488761D02*
X27566952Y-37536380D01*
X27805047Y-37536380D01*
X27900285Y-37488761D01*
X27947904Y-37441142D01*
X27995523Y-37345904D01*
X27995523Y-37250666D01*
X27947904Y-37155428D01*
X27900285Y-37107809D01*
X27805047Y-37060190D01*
X27614571Y-37012571D01*
X27519333Y-36964952D01*
X27471714Y-36917333D01*
X27424095Y-36822095D01*
X27424095Y-36726857D01*
X27471714Y-36631619D01*
X27519333Y-36584000D01*
X27614571Y-36536380D01*
X27852666Y-36536380D01*
X27995523Y-36584000D01*
X28947904Y-37536380D02*
X28376476Y-37536380D01*
X28662190Y-37536380D02*
X28662190Y-36536380D01*
X28566952Y-36679238D01*
X28471714Y-36774476D01*
X28376476Y-36822095D01*
%TO.C,U1*%
X40068666Y-24582380D02*
X39735333Y-24106190D01*
X39497238Y-24582380D02*
X39497238Y-23582380D01*
X39878190Y-23582380D01*
X39973428Y-23630000D01*
X40021047Y-23677619D01*
X40068666Y-23772857D01*
X40068666Y-23915714D01*
X40021047Y-24010952D01*
X39973428Y-24058571D01*
X39878190Y-24106190D01*
X39497238Y-24106190D01*
X40497238Y-24058571D02*
X40830571Y-24058571D01*
X40973428Y-24582380D02*
X40497238Y-24582380D01*
X40497238Y-23582380D01*
X40973428Y-23582380D01*
X41735333Y-24058571D02*
X41402000Y-24058571D01*
X41402000Y-24582380D02*
X41402000Y-23582380D01*
X41878190Y-23582380D01*
X42402000Y-23582380D02*
X42402000Y-23820476D01*
X42163904Y-23725238D02*
X42402000Y-23820476D01*
X42640095Y-23725238D01*
X42259142Y-24010952D02*
X42402000Y-23820476D01*
X42544857Y-24010952D01*
X43163904Y-23582380D02*
X43163904Y-23820476D01*
X42925809Y-23725238D02*
X43163904Y-23820476D01*
X43402000Y-23725238D01*
X43021047Y-24010952D02*
X43163904Y-23820476D01*
X43306761Y-24010952D01*
%TO.C,U2*%
X76009809Y-44521380D02*
X75533619Y-44521380D01*
X75533619Y-43521380D01*
X76819333Y-44521380D02*
X76343142Y-44521380D01*
X76343142Y-43521380D01*
X77724095Y-44426142D02*
X77676476Y-44473761D01*
X77533619Y-44521380D01*
X77438380Y-44521380D01*
X77295523Y-44473761D01*
X77200285Y-44378523D01*
X77152666Y-44283285D01*
X77105047Y-44092809D01*
X77105047Y-43949952D01*
X77152666Y-43759476D01*
X77200285Y-43664238D01*
X77295523Y-43569000D01*
X77438380Y-43521380D01*
X77533619Y-43521380D01*
X77676476Y-43569000D01*
X77724095Y-43616619D01*
X77914571Y-44616619D02*
X78676476Y-44616619D01*
X79343142Y-43854714D02*
X79343142Y-44521380D01*
X79105047Y-43473761D02*
X78866952Y-44188047D01*
X79486000Y-44188047D01*
X80438380Y-44426142D02*
X80390761Y-44473761D01*
X80247904Y-44521380D01*
X80152666Y-44521380D01*
X80009809Y-44473761D01*
X79914571Y-44378523D01*
X79866952Y-44283285D01*
X79819333Y-44092809D01*
X79819333Y-43949952D01*
X79866952Y-43759476D01*
X79914571Y-43664238D01*
X80009809Y-43569000D01*
X80152666Y-43521380D01*
X80247904Y-43521380D01*
X80390761Y-43569000D01*
X80438380Y-43616619D01*
X80866952Y-44521380D02*
X80866952Y-43521380D01*
X80866952Y-43997571D02*
X81438380Y-43997571D01*
X81438380Y-44521380D02*
X81438380Y-43521380D01*
%TO.C,JStrip2*%
X80351380Y-71214428D02*
X80351380Y-70643000D01*
X81351380Y-70928714D02*
X80351380Y-70928714D01*
X81303761Y-69928714D02*
X81351380Y-70023952D01*
X81351380Y-70214428D01*
X81303761Y-70309666D01*
X81208523Y-70357285D01*
X80827571Y-70357285D01*
X80732333Y-70309666D01*
X80684714Y-70214428D01*
X80684714Y-70023952D01*
X80732333Y-69928714D01*
X80827571Y-69881095D01*
X80922809Y-69881095D01*
X81018047Y-70357285D01*
X81351380Y-69452523D02*
X80684714Y-69452523D01*
X80875190Y-69452523D02*
X80779952Y-69404904D01*
X80732333Y-69357285D01*
X80684714Y-69262047D01*
X80684714Y-69166809D01*
X81351380Y-68833476D02*
X80684714Y-68833476D01*
X80779952Y-68833476D02*
X80732333Y-68785857D01*
X80684714Y-68690619D01*
X80684714Y-68547761D01*
X80732333Y-68452523D01*
X80827571Y-68404904D01*
X81351380Y-68404904D01*
X80827571Y-68404904D02*
X80732333Y-68357285D01*
X80684714Y-68262047D01*
X80684714Y-68119190D01*
X80732333Y-68023952D01*
X80827571Y-67976333D01*
X81351380Y-67976333D01*
X81351380Y-67500142D02*
X80684714Y-67500142D01*
X80351380Y-67500142D02*
X80399000Y-67547761D01*
X80446619Y-67500142D01*
X80399000Y-67452523D01*
X80351380Y-67500142D01*
X80446619Y-67500142D01*
X80684714Y-67023952D02*
X81351380Y-67023952D01*
X80779952Y-67023952D02*
X80732333Y-66976333D01*
X80684714Y-66881095D01*
X80684714Y-66738238D01*
X80732333Y-66643000D01*
X80827571Y-66595380D01*
X81351380Y-66595380D01*
X81351380Y-65690619D02*
X80827571Y-65690619D01*
X80732333Y-65738238D01*
X80684714Y-65833476D01*
X80684714Y-66023952D01*
X80732333Y-66119190D01*
X81303761Y-65690619D02*
X81351380Y-65785857D01*
X81351380Y-66023952D01*
X81303761Y-66119190D01*
X81208523Y-66166809D01*
X81113285Y-66166809D01*
X81018047Y-66119190D01*
X80970428Y-66023952D01*
X80970428Y-65785857D01*
X80922809Y-65690619D01*
X81351380Y-65071571D02*
X81303761Y-65166809D01*
X81208523Y-65214428D01*
X80351380Y-65214428D01*
X81446619Y-64928714D02*
X81446619Y-64166809D01*
X81351380Y-63452523D02*
X81351380Y-63928714D01*
X80351380Y-63928714D01*
X81256142Y-62547761D02*
X81303761Y-62595380D01*
X81351380Y-62738238D01*
X81351380Y-62833476D01*
X81303761Y-62976333D01*
X81208523Y-63071571D01*
X81113285Y-63119190D01*
X80922809Y-63166809D01*
X80779952Y-63166809D01*
X80589476Y-63119190D01*
X80494238Y-63071571D01*
X80399000Y-62976333D01*
X80351380Y-62833476D01*
X80351380Y-62738238D01*
X80399000Y-62595380D01*
X80446619Y-62547761D01*
X81351380Y-62119190D02*
X80351380Y-62119190D01*
X80351380Y-61881095D01*
X80399000Y-61738238D01*
X80494238Y-61643000D01*
X80589476Y-61595380D01*
X80779952Y-61547761D01*
X80922809Y-61547761D01*
X81113285Y-61595380D01*
X81208523Y-61643000D01*
X81303761Y-61738238D01*
X81351380Y-61881095D01*
X81351380Y-62119190D01*
X81303761Y-61166809D02*
X81351380Y-61071571D01*
X81351380Y-60881095D01*
X81303761Y-60785857D01*
X81208523Y-60738238D01*
X81160904Y-60738238D01*
X81065666Y-60785857D01*
X81018047Y-60881095D01*
X81018047Y-61023952D01*
X80970428Y-61119190D01*
X80875190Y-61166809D01*
X80827571Y-61166809D01*
X80732333Y-61119190D01*
X80684714Y-61023952D01*
X80684714Y-60881095D01*
X80732333Y-60785857D01*
X80684714Y-60452523D02*
X80684714Y-60071571D01*
X80351380Y-60309666D02*
X81208523Y-60309666D01*
X81303761Y-60262047D01*
X81351380Y-60166809D01*
X81351380Y-60071571D01*
X81351380Y-59738238D02*
X80684714Y-59738238D01*
X80875190Y-59738238D02*
X80779952Y-59690619D01*
X80732333Y-59643000D01*
X80684714Y-59547761D01*
X80684714Y-59452523D01*
X81351380Y-59119190D02*
X80684714Y-59119190D01*
X80351380Y-59119190D02*
X80399000Y-59166809D01*
X80446619Y-59119190D01*
X80399000Y-59071571D01*
X80351380Y-59119190D01*
X80446619Y-59119190D01*
X80684714Y-58643000D02*
X81684714Y-58643000D01*
X80732333Y-58643000D02*
X80684714Y-58547761D01*
X80684714Y-58357285D01*
X80732333Y-58262047D01*
X80779952Y-58214428D01*
X80875190Y-58166809D01*
X81160904Y-58166809D01*
X81256142Y-58214428D01*
X81303761Y-58262047D01*
X81351380Y-58357285D01*
X81351380Y-58547761D01*
X81303761Y-58643000D01*
X75271380Y-66738238D02*
X75985666Y-66738238D01*
X76128523Y-66785857D01*
X76223761Y-66881095D01*
X76271380Y-67023952D01*
X76271380Y-67119190D01*
X76223761Y-66309666D02*
X76271380Y-66166809D01*
X76271380Y-65928714D01*
X76223761Y-65833476D01*
X76176142Y-65785857D01*
X76080904Y-65738238D01*
X75985666Y-65738238D01*
X75890428Y-65785857D01*
X75842809Y-65833476D01*
X75795190Y-65928714D01*
X75747571Y-66119190D01*
X75699952Y-66214428D01*
X75652333Y-66262047D01*
X75557095Y-66309666D01*
X75461857Y-66309666D01*
X75366619Y-66262047D01*
X75319000Y-66214428D01*
X75271380Y-66119190D01*
X75271380Y-65881095D01*
X75319000Y-65738238D01*
X75604714Y-65452523D02*
X75604714Y-65071571D01*
X75271380Y-65309666D02*
X76128523Y-65309666D01*
X76223761Y-65262047D01*
X76271380Y-65166809D01*
X76271380Y-65071571D01*
X76271380Y-64738238D02*
X75604714Y-64738238D01*
X75795190Y-64738238D02*
X75699952Y-64690619D01*
X75652333Y-64643000D01*
X75604714Y-64547761D01*
X75604714Y-64452523D01*
X76271380Y-64119190D02*
X75604714Y-64119190D01*
X75271380Y-64119190D02*
X75319000Y-64166809D01*
X75366619Y-64119190D01*
X75319000Y-64071571D01*
X75271380Y-64119190D01*
X75366619Y-64119190D01*
X75604714Y-63643000D02*
X76604714Y-63643000D01*
X75652333Y-63643000D02*
X75604714Y-63547761D01*
X75604714Y-63357285D01*
X75652333Y-63262047D01*
X75699952Y-63214428D01*
X75795190Y-63166809D01*
X76080904Y-63166809D01*
X76176142Y-63214428D01*
X76223761Y-63262047D01*
X76271380Y-63357285D01*
X76271380Y-63547761D01*
X76223761Y-63643000D01*
X75366619Y-62785857D02*
X75319000Y-62738238D01*
X75271380Y-62643000D01*
X75271380Y-62404904D01*
X75319000Y-62309666D01*
X75366619Y-62262047D01*
X75461857Y-62214428D01*
X75557095Y-62214428D01*
X75699952Y-62262047D01*
X76271380Y-62833476D01*
X76271380Y-62214428D01*
%TD*%
M02*
